<svg width="486.779" height="94.823" viewBox="0 0 486.779 94.823" xmlns="http://www.w3.org/2000/svg"><g id="svgGroup" stroke-linecap="round" fill-rule="evenodd" font-size="9pt" stroke="#000000" stroke-width="0mm" fill="#000000" style="stroke:#000000;stroke-width:0mm;fill:#000000"><path d="M 259.716 48.11 L 261.916 49.71 Q 257.916 59.91 252.916 67.61 Q 250.816 70.91 248.216 74.06 Q 245.616 77.21 242.666 79.56 Q 239.716 81.91 236.366 83.26 Q 233.016 84.61 229.316 84.31 Q 226.816 84.21 225.216 81.81 Q 223.616 79.41 222.666 75.31 Q 221.716 71.21 221.366 65.81 Q 221.016 60.41 221.016 54.41 Q 221.016 48.41 221.266 42.06 Q 221.516 35.71 221.916 29.71 Q 221.016 29.81 220.216 29.81 Q 219.416 29.81 218.616 29.91 L 217.016 29.91 Q 216.216 29.91 215.416 30.01 L 210.716 30.01 L 209.316 30.01 L 208.916 30.01 L 208.616 26.91 L 208.716 26.91 Q 208.916 26.91 209.116 26.81 Q 209.316 26.81 209.616 26.76 Q 209.916 26.71 210.416 26.61 Q 211.216 26.41 212.416 26.26 Q 213.616 26.11 215.116 25.91 Q 215.816 25.81 216.616 25.71 L 218.216 25.51 Q 219.016 25.31 219.916 25.26 Q 220.816 25.21 221.716 25.11 Q 221.916 25.01 222.116 25.01 Q 222.416 20.91 222.616 17.21 Q 222.816 13.51 222.916 10.51 Q 223.016 7.51 222.966 5.41 Q 222.916 3.31 222.616 2.21 Q 227.316 1.41 230.916 2.41 Q 232.416 2.81 233.866 3.66 Q 235.316 4.51 236.366 6.01 Q 237.416 7.51 237.966 9.66 Q 238.516 11.81 238.316 14.91 Q 238.216 16.71 238.116 18.96 Q 238.016 21.21 237.816 23.71 Q 238.516 23.71 239.216 23.66 Q 239.916 23.61 240.616 23.61 Q 241.416 23.51 242.166 23.51 L 243.716 23.51 Q 244.516 23.51 245.166 23.46 Q 245.816 23.41 246.416 23.41 L 248.516 23.41 L 250.316 23.41 L 250.516 26.51 Q 250.416 26.51 250.116 26.61 Q 249.816 26.71 248.816 26.91 Q 247.916 27.11 246.716 27.21 Q 246.116 27.31 245.466 27.41 Q 244.816 27.51 244.116 27.61 L 242.516 27.81 L 240.916 28.01 Q 240.116 28.11 239.266 28.21 Q 238.416 28.31 237.616 28.41 Q 237.416 32.51 237.266 36.91 Q 237.116 41.31 237.016 45.81 L 237.016 58.36 Q 237.016 64.31 237.516 68.36 Q 238.016 72.41 239.466 73.91 Q 240.916 75.41 243.816 73.01 Q 245.016 72.01 246.366 70.46 Q 247.716 68.91 249.066 66.96 Q 250.416 65.01 251.716 62.86 Q 253.016 60.71 254.216 58.61 Q 256.916 53.71 259.716 48.11 Z M 129.216 19.01 L 129.216 20.11 Q 129.016 25.01 128.866 30.96 Q 128.716 36.91 128.616 43.06 Q 128.516 49.21 128.566 55.11 Q 128.616 61.01 128.966 65.71 Q 129.316 70.41 129.966 73.56 Q 130.616 76.71 131.716 77.31 Q 131.316 78.71 130.016 79.96 Q 128.716 81.21 127.066 82.16 Q 125.416 83.11 123.716 83.71 Q 122.016 84.31 120.716 84.41 Q 117.516 84.61 115.566 82.11 Q 113.616 79.61 112.666 75.16 Q 111.716 70.71 111.616 64.81 Q 111.516 58.91 111.816 52.41 Q 111.016 52.31 110.366 52.26 Q 109.716 52.21 108.916 52.21 Q 108.116 52.11 107.216 52.06 Q 106.316 52.01 105.516 51.91 Q 104.716 51.81 103.866 51.76 Q 103.016 51.71 102.216 51.71 Q 101.816 51.61 101.416 51.61 Q 101.016 51.61 100.616 51.51 Q 100.216 51.51 99.866 51.46 Q 99.516 51.41 99.116 51.41 Q 98.316 51.31 97.666 51.26 Q 97.016 51.21 96.316 51.11 Q 96.116 51.11 96.016 51.06 Q 95.916 51.01 95.716 51.01 Q 94.916 56.71 94.316 62.11 Q 93.716 67.51 93.166 72.01 Q 92.616 76.51 92.066 79.71 Q 91.516 82.91 90.916 84.21 Q 90.416 85.71 89.116 86.96 Q 87.816 88.21 86.166 89.16 Q 84.516 90.11 82.766 90.71 Q 81.016 91.31 79.716 91.31 Q 82.416 74.41 85.266 61.71 Q 88.116 49.01 91.016 39.71 Q 93.916 30.41 96.816 24.21 Q 99.716 18.01 102.466 14.11 Q 105.216 10.21 107.766 8.26 Q 110.316 6.31 112.516 5.61 Q 114.716 4.91 116.516 4.96 Q 118.316 5.01 119.616 5.21 Q 120.116 5.21 120.916 5.41 L 121.116 5.41 Q 122.516 5.71 123.916 6.51 Q 125.316 7.31 126.466 8.81 Q 127.616 10.31 128.366 12.61 Q 129.116 14.91 129.216 18.31 L 129.216 18.71 L 129.216 18.91 L 129.216 19.01 Z M 187.616 47.51 Q 188.716 47.31 189.516 47.31 Q 190.216 47.31 190.666 47.61 Q 191.116 47.91 190.916 48.81 Q 190.716 49.41 190.116 52.31 Q 189.516 55.21 188.266 59.16 Q 187.016 63.11 185.116 67.51 Q 183.216 71.91 180.416 75.66 Q 177.616 79.41 173.866 81.86 Q 170.116 84.31 165.316 84.31 Q 162.516 84.31 160.666 82.96 Q 158.816 81.61 157.766 79.31 Q 156.716 77.01 156.316 73.96 Q 155.916 70.91 155.916 67.51 Q 153.716 70.91 150.566 73.06 Q 147.416 75.21 142.916 75.01 Q 138.916 74.91 136.916 72.36 Q 134.916 69.81 134.216 66.01 Q 133.516 62.21 133.766 57.66 Q 134.016 53.11 134.516 49.01 Q 135.016 44.91 135.466 41.81 Q 135.916 38.71 135.616 37.61 Q 139.716 37.01 142.916 37.71 Q 144.216 38.01 145.466 38.61 Q 146.716 39.21 147.616 40.26 Q 148.516 41.31 148.916 42.81 Q 149.316 44.31 149.016 46.51 Q 148.216 52.21 147.766 56.81 Q 147.316 61.41 147.666 64.01 Q 148.016 66.61 149.316 66.91 Q 150.616 67.21 153.316 64.51 Q 155.916 61.81 157.066 57.86 Q 158.216 53.91 158.616 50.21 Q 159.016 45.91 158.716 41.31 Q 163.516 40.51 167.116 41.51 Q 168.616 41.91 170.066 42.76 Q 171.516 43.61 172.566 45.11 Q 173.616 46.61 174.166 48.76 Q 174.716 50.91 174.516 54.01 Q 174.016 60.21 173.516 65.06 Q 173.016 69.91 173.166 72.66 Q 173.316 75.41 174.466 75.56 Q 175.616 75.71 178.416 72.41 Q 181.216 69.11 182.966 64.81 Q 184.716 60.51 185.816 56.71 Q 187.016 52.21 187.616 47.51 Z M 305.316 51.21 Q 306.416 51.01 307.216 51.11 Q 307.916 51.21 308.366 51.51 Q 308.816 51.81 308.516 52.71 Q 308.316 53.31 307.416 56.71 Q 306.516 60.11 304.866 64.86 Q 303.216 69.61 300.816 74.96 Q 298.416 80.31 295.266 84.81 Q 292.116 89.31 288.066 92.16 Q 284.016 95.01 279.216 94.81 Q 275.916 94.71 274.166 92.46 Q 272.416 90.21 271.766 86.61 Q 271.116 83.01 271.366 78.51 Q 271.616 74.01 272.216 69.31 Q 272.816 64.61 273.516 60.06 Q 274.216 55.51 274.616 51.91 Q 269.116 51.81 265.916 51.06 Q 262.716 50.31 261.066 49.11 Q 259.416 47.91 259.066 46.41 Q 258.716 44.91 258.766 43.16 Q 258.816 41.41 258.966 39.61 Q 259.116 37.81 258.616 36.11 Q 262.616 34.61 265.716 34.61 Q 267.016 34.61 268.266 34.96 Q 269.516 35.31 270.416 36.21 Q 271.316 37.11 271.816 38.66 Q 272.316 40.21 272.116 42.61 Q 272.016 43.61 272.666 44.16 Q 273.316 44.71 274.166 44.91 Q 275.016 45.11 275.716 45.16 L 276.416 45.21 Q 278.016 45.11 280.566 45.36 Q 283.116 45.61 285.366 46.96 Q 287.616 48.31 289.016 51.11 Q 290.416 53.91 289.816 58.81 Q 289.316 62.91 288.766 66.91 Q 288.216 70.91 287.916 74.36 Q 287.616 77.81 287.566 80.46 Q 287.516 83.11 288.066 84.46 Q 288.616 85.81 289.716 85.66 Q 290.816 85.51 292.816 83.41 Q 295.716 80.21 298.066 74.86 Q 300.416 69.51 302.016 64.21 Q 303.816 58.01 305.316 51.21 Z M 358.216 80.31 L 358.116 80.31 Q 355.816 80.31 354.316 77.56 Q 352.816 74.81 351.966 70.26 Q 351.116 65.71 350.766 59.96 Q 350.416 54.21 350.466 48.11 Q 350.516 42.01 350.766 36.11 Q 351.016 30.21 351.316 25.46 Q 351.616 20.71 351.916 17.66 Q 352.216 14.61 352.216 14.11 Q 352.516 10.81 352.816 8.16 Q 353.116 5.51 353.666 3.66 Q 354.216 1.81 355.166 0.86 Q 356.116 -0.09 357.816 0.01 Q 357.916 0.01 360.016 0.31 Q 362.116 0.61 364.716 2.41 Q 366.316 3.51 367.616 4.91 Q 368.916 6.31 370.016 8.01 Q 372.616 12.51 373.516 18.51 Q 374.316 23.91 373.716 28.66 Q 373.116 33.41 370.916 37.41 Q 369.916 39.21 368.766 40.71 Q 367.616 42.21 366.516 43.31 Q 366.316 48.81 366.216 53.81 Q 366.116 58.81 366.216 62.91 Q 366.316 65.21 366.566 66.56 Q 366.816 67.91 367.316 68.46 Q 367.816 69.01 368.716 68.71 Q 369.616 68.41 371.116 67.41 Q 374.616 65.21 377.316 62.36 Q 380.016 59.51 381.916 56.91 Q 384.116 53.91 385.716 50.91 L 388.516 52.01 Q 388.416 52.51 387.316 54.36 Q 386.216 56.21 384.366 58.91 Q 382.516 61.61 380.066 64.71 Q 377.616 67.81 374.766 70.71 Q 371.916 73.61 368.816 76.01 Q 365.716 78.41 362.516 79.51 Q 361.716 79.91 360.866 80.06 Q 360.016 80.21 359.216 80.21 Q 358.916 80.31 358.216 80.31 Z M 68.016 48.71 L 70.116 49.71 Q 68.816 52.21 67.716 54.41 Q 66.716 56.31 65.666 58.31 Q 64.616 60.31 63.916 61.41 Q 63.316 62.51 62.566 63.76 Q 61.816 65.01 60.816 66.21 Q 60.316 66.81 59.766 67.41 Q 59.216 68.01 58.516 68.51 Q 58.316 68.71 58.166 68.76 Q 58.016 68.81 57.816 69.01 L 57.416 69.21 L 57.016 69.41 Q 56.916 69.41 56.516 69.61 L 56.216 69.61 Q 56.216 69.71 56.116 69.71 L 55.716 69.71 L 55.616 69.71 L 55.516 69.71 L 55.416 69.71 L 55.116 69.71 Q 54.416 69.71 53.916 69.31 Q 53.216 69.01 52.916 68.31 Q 52.516 67.81 52.416 67.21 Q 52.316 66.61 52.116 66.11 Q 51.916 65.01 51.916 64.06 L 51.916 62.21 Q 52.016 60.31 52.116 58.51 Q 52.216 56.71 52.416 54.91 Q 52.516 54.01 52.566 53.11 Q 52.616 52.21 52.616 51.41 L 52.616 49.81 Q 52.616 49.01 52.516 48.41 Q 52.416 48.01 52.016 47.81 Q 51.716 47.61 51.216 48.11 L 50.616 48.71 Q 50.216 49.21 49.866 49.86 Q 49.516 50.51 49.216 51.11 Q 48.816 51.81 48.516 52.46 Q 48.216 53.11 47.916 53.81 Q 47.416 55.21 46.916 56.46 Q 46.416 57.71 46.016 59.01 Q 45.216 61.51 44.616 63.61 L 43.616 67.11 Q 43.416 67.51 43.316 68.06 Q 43.216 68.61 43.016 69.11 Q 42.816 69.71 42.716 70.41 Q 42.016 73.01 40.966 74.61 Q 39.916 76.21 38.716 77.01 Q 37.516 77.81 36.266 78.11 Q 35.016 78.41 34.016 78.41 Q 30.416 78.51 28.716 76.21 Q 27.016 73.91 26.666 70.16 Q 26.316 66.41 26.766 61.71 Q 27.216 57.01 27.866 52.26 Q 28.516 47.51 28.916 43.31 Q 29.316 39.11 28.716 36.41 Q 33.116 35.51 36.416 36.61 Q 37.816 37.11 39.166 38.11 Q 40.516 39.11 41.466 40.91 Q 42.416 42.71 42.916 45.31 Q 43.416 47.91 43.216 51.61 L 43.216 52.11 Q 43.916 50.81 45.016 49.26 Q 46.116 47.71 47.316 46.36 Q 48.516 45.01 49.816 44.11 Q 51.116 43.21 52.416 43.21 Q 54.016 43.21 54.716 44.51 Q 55.416 45.81 55.616 47.66 Q 55.816 49.51 55.616 51.71 Q 55.416 53.91 55.216 55.71 Q 55.216 56.21 55.166 56.81 Q 55.116 57.41 55.016 57.91 L 55.016 58.51 Q 54.816 59.51 54.766 60.46 Q 54.716 61.41 54.616 62.31 L 54.616 63.96 Q 54.616 64.81 54.716 65.51 Q 54.916 66.31 55.016 66.51 L 55.116 66.61 Q 55.216 66.61 55.216 66.66 Q 55.216 66.71 55.316 66.71 L 55.416 66.71 L 55.716 66.61 L 55.916 66.61 L 56.016 66.61 Q 56.016 66.51 56.216 66.51 Q 56.316 66.41 56.416 66.41 Q 56.516 66.41 56.716 66.31 Q 56.816 66.21 56.916 66.16 Q 57.016 66.11 57.216 65.91 Q 57.716 65.61 58.116 65.16 Q 58.516 64.71 59.016 64.21 Q 60.716 62.21 62.016 59.81 Q 62.616 58.71 63.616 56.86 Q 64.616 55.01 65.616 53.21 Q 66.716 51.11 68.016 48.71 Z M 355.516 47.81 L 358.816 47.81 Q 355.716 57.21 351.316 64.61 Q 349.416 67.81 347.066 70.81 Q 344.716 73.81 341.866 76.11 Q 339.016 78.41 335.666 79.86 Q 332.316 81.31 328.516 81.31 Q 325.516 81.31 323.766 79.81 Q 322.016 78.31 321.166 75.86 Q 320.316 73.41 320.166 70.11 Q 320.016 66.81 320.216 63.21 Q 318.916 64.41 317.416 65.61 Q 315.916 66.81 314.116 67.61 Q 312.316 68.41 310.116 68.76 Q 307.916 69.11 305.416 68.71 Q 301.516 68.01 299.916 65.46 Q 298.316 62.91 298.616 59.66 Q 298.916 56.41 300.866 53.16 Q 302.816 49.91 306.116 47.91 Q 308.516 46.41 310.916 45.71 Q 313.316 45.01 315.466 44.76 Q 317.616 44.51 319.366 44.66 Q 321.116 44.81 322.216 45.01 Q 322.416 43.01 322.366 41.26 Q 322.316 39.51 322.016 38.31 Q 326.716 37.51 330.316 38.51 Q 331.816 38.91 333.266 39.76 Q 334.716 40.61 335.766 42.11 Q 336.816 43.61 337.366 45.76 Q 337.916 47.91 337.716 51.01 Q 337.216 57.21 337.216 61.86 Q 337.216 66.51 337.866 69.11 Q 338.516 71.71 339.916 71.96 Q 341.316 72.21 343.716 69.51 Q 347.116 65.71 349.366 61.86 Q 351.616 58.01 353.016 54.81 Q 354.616 51.21 355.516 47.81 Z M 465.716 47.81 L 469.016 47.81 Q 465.916 57.21 461.516 64.61 Q 459.616 67.81 457.266 70.81 Q 454.916 73.81 452.066 76.11 Q 449.216 78.41 445.866 79.86 Q 442.516 81.31 438.716 81.31 Q 435.716 81.31 433.966 79.81 Q 432.216 78.31 431.366 75.86 Q 430.516 73.41 430.366 70.11 Q 430.216 66.81 430.416 63.21 Q 429.116 64.41 427.616 65.61 Q 426.116 66.81 424.316 67.61 Q 422.516 68.41 420.316 68.76 Q 418.116 69.11 415.616 68.71 Q 411.716 68.01 410.116 65.46 Q 408.516 62.91 408.816 59.66 Q 409.116 56.41 411.066 53.16 Q 413.016 49.91 416.316 47.91 Q 418.716 46.41 421.116 45.71 Q 423.516 45.01 425.666 44.76 Q 427.816 44.51 429.566 44.66 Q 431.316 44.81 432.416 45.01 Q 432.616 43.01 432.566 41.26 Q 432.516 39.51 432.216 38.31 Q 436.916 37.51 440.516 38.51 Q 442.016 38.91 443.466 39.76 Q 444.916 40.61 445.966 42.11 Q 447.016 43.61 447.566 45.76 Q 448.116 47.91 447.916 51.01 Q 447.416 57.21 447.416 61.86 Q 447.416 66.51 448.066 69.11 Q 448.716 71.71 450.116 71.96 Q 451.516 72.21 453.916 69.51 Q 457.316 65.71 459.566 61.86 Q 461.816 58.01 463.216 54.81 Q 464.816 51.21 465.716 47.81 Z M 226.916 52.71 L 227.316 55.11 Q 222.816 52.91 218.716 51.81 Q 215.116 50.81 211.266 50.81 Q 207.416 50.81 204.716 53.21 Q 207.016 56.71 209.566 60.26 Q 212.116 63.81 214.216 67.26 Q 216.316 70.71 217.816 73.96 Q 219.316 77.21 219.616 80.11 Q 219.916 83.01 218.766 85.46 Q 217.616 87.91 214.516 89.71 Q 213.616 90.21 212.316 90.76 Q 211.016 91.31 209.416 91.71 Q 207.816 92.11 206.066 92.26 Q 204.316 92.41 202.516 92.01 L 202.416 92.01 Q 202.116 92.01 202.016 91.91 Q 201.516 91.81 200.916 91.66 Q 200.316 91.51 199.516 91.21 Q 198.116 90.81 196.016 89.51 Q 195.116 88.91 194.116 88.06 Q 193.116 87.21 192.216 86.11 Q 190.316 83.71 189.416 80.71 Q 189.416 80.51 189.366 80.31 Q 189.316 80.11 189.316 79.91 L 189.216 79.71 L 189.216 79.51 L 189.116 79.11 L 189.016 78.81 L 189.016 78.41 Q 188.916 78.11 188.916 77.61 Q 188.616 76.11 188.616 74.41 Q 188.616 72.71 188.766 71.06 Q 188.916 69.41 189.416 67.71 Q 190.316 64.61 192.016 61.41 Q 192.116 61.31 192.116 61.26 Q 192.116 61.21 192.216 61.11 Q 190.516 58.91 188.916 56.31 Q 186.316 52.31 185.316 49.11 Q 184.316 45.91 184.466 43.36 Q 184.616 40.81 185.616 38.91 Q 186.616 37.01 188.016 35.61 Q 191.316 32.41 197.316 31.01 Q 195.716 34.91 197.516 39.81 Q 199.316 44.71 202.616 50.01 Q 204.716 48.91 206.816 48.41 Q 208.916 47.91 211.016 47.91 Q 213.116 47.91 215.116 48.26 Q 217.116 48.61 218.916 49.11 Q 223.016 50.31 226.916 52.71 Z M 34.516 48.81 L 37.416 49.91 Q 37.116 50.41 36.116 52.86 Q 35.116 55.31 33.366 58.61 Q 31.616 61.91 29.266 65.61 Q 26.916 69.31 23.866 72.41 Q 20.816 75.51 17.166 77.51 Q 13.516 79.51 9.216 79.31 Q 5.216 79.21 3.216 76.66 Q 1.216 74.11 0.516 70.31 Q -0.184 66.51 0.066 61.96 Q 0.316 57.41 0.816 53.31 Q 1.316 49.21 1.766 46.11 Q 2.216 43.01 1.916 41.91 Q 6.016 41.31 9.216 42.01 Q 10.516 42.31 11.766 42.91 Q 13.016 43.51 13.916 44.56 Q 14.816 45.61 15.216 47.11 Q 15.616 48.61 15.316 50.81 Q 14.516 56.51 14.216 60.81 Q 13.916 65.11 14.416 67.56 Q 14.916 70.01 16.316 70.56 Q 17.716 71.11 20.316 69.31 Q 22.916 67.41 25.516 64.01 Q 28.116 60.61 30.116 57.21 Q 32.516 53.21 34.516 48.81 Z M 416.816 48.81 L 419.716 49.91 Q 419.416 50.41 418.416 52.86 Q 417.416 55.31 415.666 58.61 Q 413.916 61.91 411.566 65.61 Q 409.216 69.31 406.166 72.41 Q 403.116 75.51 399.466 77.51 Q 395.816 79.51 391.516 79.31 Q 387.516 79.21 385.516 76.66 Q 383.516 74.11 382.816 70.31 Q 382.116 66.51 382.366 61.96 Q 382.616 57.41 383.116 53.31 Q 383.616 49.21 384.066 46.11 Q 384.516 43.01 384.216 41.91 Q 388.316 41.31 391.516 42.01 Q 392.816 42.31 394.066 42.91 Q 395.316 43.51 396.216 44.56 Q 397.116 45.61 397.516 47.11 Q 397.916 48.61 397.616 50.81 Q 396.816 56.51 396.516 60.81 Q 396.216 65.11 396.716 67.56 Q 397.216 70.01 398.616 70.56 Q 400.016 71.11 402.616 69.31 Q 405.216 67.41 407.816 64.01 Q 410.416 60.61 412.416 57.21 Q 414.816 53.21 416.816 48.81 Z M 109.316 47.71 Q 108.516 47.61 107.666 47.56 Q 106.816 47.51 105.916 47.31 Q 105.116 47.21 104.316 47.16 Q 103.516 47.11 102.716 47.01 Q 102.216 46.91 101.866 46.91 Q 101.516 46.91 101.116 46.81 Q 100.716 46.71 100.366 46.71 Q 100.016 46.71 99.616 46.61 Q 98.916 46.51 98.216 46.46 Q 97.516 46.41 96.916 46.31 Q 96.716 46.21 96.416 46.21 Q 97.316 39.91 98.616 34.01 Q 99.916 28.11 101.616 23.51 Q 103.316 18.91 105.516 16.11 Q 107.716 13.31 110.616 13.21 Q 111.816 13.21 112.516 14.51 Q 113.216 15.81 113.516 18.01 Q 113.816 20.21 113.766 23.01 Q 113.716 25.81 113.566 28.61 Q 113.416 31.41 113.116 34.06 Q 112.816 36.71 112.716 38.51 Q 112.516 40.81 112.366 43.21 Q 112.216 45.61 112.016 47.91 Q 111.316 47.91 110.666 47.86 Q 110.016 47.81 109.316 47.71 Z M 470.616 66.21 Q 471.216 68.11 471.166 70.21 Q 471.116 72.31 471.166 74.26 Q 471.216 76.21 471.666 77.81 Q 472.116 79.41 473.666 80.31 Q 475.216 81.21 478.266 81.31 Q 481.316 81.41 486.516 80.31 Q 487.016 75.91 486.566 72.96 Q 486.116 70.01 485.116 68.16 Q 484.116 66.31 482.616 65.46 Q 481.116 64.61 479.516 64.41 Q 475.716 63.91 470.616 66.21 Z M 198.816 85.11 L 197.416 84.11 Q 196.716 83.61 196.116 82.91 Q 195.516 82.11 195.016 81.26 Q 194.516 80.41 194.216 79.31 Q 194.016 78.81 193.916 78.16 Q 193.816 77.51 193.616 76.91 Q 193.516 76.21 193.466 75.56 Q 193.416 74.91 193.316 74.31 Q 193.216 71.71 193.816 68.81 Q 194.316 66.61 195.116 64.91 Q 197.216 67.71 199.066 70.21 Q 200.916 72.71 202.166 75.06 Q 203.416 77.41 203.866 79.61 Q 204.316 81.81 203.616 84.01 Q 203.116 85.71 201.966 85.81 Q 200.816 85.91 199.416 85.41 L 198.816 85.11 Z M 366.716 38.61 Q 367.016 32.01 367.416 25.81 Q 367.816 19.61 368.216 14.61 Q 369.516 16.41 370.066 18.66 Q 370.616 20.91 370.816 22.86 Q 371.016 24.81 370.966 26.26 Q 370.916 27.71 370.916 27.91 Q 370.416 31.41 369.266 34.01 Q 368.116 36.61 366.716 38.61 Z M 9.716 36.11 Q 6.616 36.11 4.416 33.91 Q 2.216 31.71 2.216 28.61 Q 2.216 25.41 4.416 23.26 Q 6.616 21.11 9.716 21.11 Q 12.816 21.11 15.016 23.26 Q 17.216 25.41 17.216 28.61 Q 17.216 31.71 15.016 33.91 Q 12.816 36.11 9.716 36.11 Z M 392.016 36.11 Q 388.916 36.11 386.716 33.91 Q 384.516 31.71 384.516 28.61 Q 384.516 25.41 386.716 23.26 Q 388.916 21.11 392.016 21.11 Q 395.116 21.11 397.316 23.26 Q 399.516 25.41 399.516 28.61 Q 399.516 31.71 397.316 33.91 Q 395.116 36.11 392.016 36.11 Z M 309.316 57.61 Q 309.416 55.01 310.916 53.51 Q 312.416 52.01 314.466 51.26 Q 316.516 50.51 318.566 50.31 Q 320.616 50.11 321.716 50.11 Q 321.516 51.51 321.366 52.91 Q 321.216 54.31 321.016 55.81 Q 319.316 57.61 317.266 59.16 Q 315.216 60.71 313.416 61.26 Q 311.616 61.81 310.416 61.06 Q 309.216 60.31 309.316 57.61 Z M 419.516 57.61 Q 419.616 55.01 421.116 53.51 Q 422.616 52.01 424.666 51.26 Q 426.716 50.51 428.766 50.31 Q 430.816 50.11 431.916 50.11 Q 431.716 51.51 431.566 52.91 Q 431.416 54.31 431.216 55.81 Q 429.516 57.61 427.466 59.16 Q 425.416 60.71 423.616 61.26 Q 421.816 61.81 420.616 61.06 Q 419.416 60.31 419.516 57.61 Z" vector-effect="non-scaling-stroke"/></g></svg>