<svg xmlns="http://www.w3.org/2000/svg" xmlns:xlink="http://www.w3.org/1999/xlink" width="1080" zoomAndPan="magnify" viewBox="0 0 810 515.249984" height="687" preserveAspectRatio="xMidYMid meet" version="1.0"><defs><clipPath id="ee0df03884"><path d="M 19 59 L 809.410156 59 L 809.410156 123 L 19 123 Z M 19 59 " clip-rule="nonzero"/></clipPath><clipPath id="4beec3a092"><path d="M 19 402 L 809.410156 402 L 809.410156 466 L 19 466 Z M 19 402 " clip-rule="nonzero"/></clipPath><clipPath id="6f84b0ae20"><path d="M 19 230 L 809.410156 230 L 809.410156 295 L 19 295 Z M 19 230 " clip-rule="nonzero"/></clipPath></defs><g clip-path="url(#ee0df03884)"><path fill="#a17015" d="M 19.773438 82.976562 L 20.964844 59.253906 L 809.398438 98.871094 L 808.207031 122.59375 Z M 19.773438 82.976562 " fill-opacity="1" fill-rule="nonzero"/></g><path fill="#8f3525" d="M 353.671875 32.628906 C 366.476562 42.1875 369.992188 58.121094 371.316406 75.144531 C 372.386719 88.976562 372.007812 103.519531 373.984375 115.941406 C 374.433594 118.746094 374.996094 121.445312 375.722656 124 C 377.835938 131.398438 373.929688 139.179688 366.988281 143.90625 C 361.511719 147.632812 328.984375 134.339844 297.605469 143.347656 C 281.617188 147.9375 261.699219 136.304688 256.558594 122.402344 C 256.011719 120.933594 255.636719 119.445312 255.445312 117.945312 C 252.683594 96.367188 245.964844 69.207031 251.261719 44.03125 C 251.417969 43.292969 251.589844 42.550781 251.78125 41.804688 C 253.359375 35.765625 256.363281 29.703125 262.710938 26.855469 C 268.191406 24.398438 283.886719 33.414062 290.113281 34.015625 C 314.304688 36.378906 335.335938 18.933594 353.671875 32.628906 Z M 353.671875 32.628906 " fill-opacity="1" fill-rule="nonzero"/><path fill="#8f3525" d="M 494.886719 46.488281 C 508.414062 53.375 518.890625 56.03125 513.953125 66.449219 C 511.691406 71.214844 504.285156 81.449219 504.351562 86.851562 C 504.398438 91.117188 504.59375 95.382812 504.816406 99.585938 C 504.988281 102.808594 505.183594 105.992188 505.347656 109.113281 C 506.234375 125.738281 506.414062 140.542969 499.035156 149.21875 C 483 168.070312 449.324219 171.410156 421.070312 156.945312 C 420.886719 156.851562 405.867188 149.4375 405.679688 149.34375 C 393.371094 143.027344 382.9375 132.546875 379.179688 121.992188 C 377.246094 116.558594 377.078125 111.105469 379.328125 106.191406 C 381.46875 101.523438 385.496094 96.753906 387.390625 92.007812 C 388.9375 88.132812 389.0625 84.265625 385.570312 80.480469 C 382.621094 77.277344 378.101562 66.378906 378.746094 62.875 C 379.464844 58.96875 378.871094 39.007812 390.328125 35.382812 C 421.6875 25.457031 461.988281 29.730469 494.886719 46.488281 Z M 494.886719 46.488281 " fill-opacity="1" fill-rule="nonzero"/><path fill="#8f3525" d="M 234.898438 16.144531 C 247.441406 20.714844 256.945312 21.390625 253.394531 33.539062 C 252.796875 35.578125 251.648438 38.546875 250.453125 41.777344 C 248.394531 47.34375 246.203125 53.679688 246.511719 57.324219 C 248.777344 83.875 255.167969 109.601562 246.789062 125.066406 C 244.703125 128.910156 242.164062 132.414062 239.257812 135.53125 C 224.457031 151.429688 200.1875 157.457031 178.285156 149.414062 C 178.105469 149.351562 164.199219 144.527344 164.027344 144.46875 C 149.296875 139.039062 136.773438 125.546875 136.308594 111.269531 C 136.230469 108.789062 136.515625 106.285156 137.214844 103.796875 C 138.59375 98.894531 141.328125 93.589844 142.796875 88.585938 C 144.292969 83.515625 144.496094 78.757812 140.695312 75.035156 C 137.824219 72.222656 132.945312 61.511719 133.238281 57.632812 C 133.5625 53.3125 131.441406 32.105469 141.308594 25.863281 C 168.320312 8.78125 204.390625 5.03125 234.898438 16.144531 Z M 234.898438 16.144531 " fill-opacity="1" fill-rule="nonzero"/><path fill="#8f3525" d="M 121.308594 11.035156 C 121.355469 11.097656 121.402344 11.15625 121.453125 11.21875 C 126.410156 17.738281 128.472656 25.804688 130.035156 33.707031 C 133.070312 49.105469 134.589844 64.765625 134.589844 80.421875 C 134.59375 97.679688 132.753906 114.933594 129.070312 131.816406 C 128.351562 135.105469 127.5 138.511719 125.242188 141.082031 C 122.984375 143.65625 118.894531 145.078125 115.820312 143.414062 C 113.152344 141.964844 112.128906 138.816406 110.089844 136.621094 C 106.539062 132.789062 100.277344 132.363281 95.179688 133.902344 C 90.082031 135.441406 85.710938 138.542969 81.007812 140.960938 C 61.058594 151.214844 34.28125 147.730469 17.824219 132.738281 C 15.023438 127.160156 12.601562 121.972656 10.574219 117.105469 C 7.816406 110.480469 5.765625 104.4375 4.4375 98.761719 C 0.597656 82.382812 2.738281 69.082031 10.972656 53.824219 C 16.441406 43.699219 6.242188 28.765625 16.136719 22.703125 C 29.78125 14.339844 46.875 32.507812 62.78125 29.378906 C 78.523438 26.277344 83.949219 4.425781 99.738281 1.542969 C 107.917969 0.046875 116.335938 4.609375 121.308594 11.035156 Z M 121.308594 11.035156 " fill-opacity="1" fill-rule="nonzero"/><path fill="#732719" d="M 353.671875 32.628906 C 366.476562 42.1875 369.992188 58.121094 371.316406 75.144531 C 372.386719 88.976562 372.007812 103.519531 373.984375 115.941406 C 372.195312 116.691406 370.222656 117.09375 368.085938 117.03125 C 359.390625 116.804688 353.683594 108.664062 353.910156 101.328125 C 354.136719 93.992188 358.417969 87.222656 361.585938 80.359375 C 364.757812 73.5 366.777344 65.496094 362.675781 59.058594 C 358.574219 52.625 346.035156 50.28125 341.261719 56.457031 C 339.820312 58.316406 339.273438 60.644531 337.464844 62.257812 C 333.984375 65.375 327.8125 64.316406 323.4375 62.226562 C 319.066406 60.132812 314.894531 57.164062 309.839844 57.0625 C 304.792969 56.964844 305.222656 61.546875 302.929688 65.363281 C 299.550781 70.976562 287.933594 64.445312 281.164062 61.914062 C 274.394531 59.378906 268.488281 54.339844 267.691406 48.117188 C 267.066406 43.214844 267.191406 35.734375 261.347656 36.152344 C 258.589844 36.347656 256.8125 38.613281 254.738281 40.167969 C 253.820312 40.859375 252.824219 41.398438 251.773438 41.800781 C 253.351562 35.761719 256.355469 29.699219 262.703125 26.851562 C 268.183594 24.394531 283.878906 33.410156 290.101562 34.011719 C 314.304688 36.378906 335.335938 18.933594 353.671875 32.628906 Z M 353.671875 32.628906 " fill-opacity="1" fill-rule="nonzero"/><path fill="#732719" d="M 121.308594 11.035156 C 123.007812 15.714844 123.527344 20.609375 122.085938 25.296875 C 119.515625 33.683594 108.847656 40.285156 99.507812 37.210938 C 95.347656 35.84375 91.1875 32.765625 87.054688 34.117188 C 82.597656 35.570312 82.164062 40.796875 80.28125 44.628906 C 76.222656 52.878906 63.378906 55.25 53.71875 52.039062 C 44.050781 48.828125 36.878906 41.660156 30.128906 34.765625 C 17.761719 50.765625 40.125 75.816406 26.707031 91.148438 C 21.519531 97.078125 13.253906 98.863281 4.429688 98.761719 C 0.589844 82.382812 2.730469 69.082031 10.964844 53.824219 C 16.433594 43.699219 6.234375 28.765625 16.128906 22.703125 C 29.773438 14.339844 46.867188 32.507812 62.773438 29.378906 C 78.515625 26.277344 83.941406 4.425781 99.730469 1.542969 C 107.917969 0.046875 116.335938 4.609375 121.308594 11.035156 Z M 121.308594 11.035156 " fill-opacity="1" fill-rule="nonzero"/><path fill="#732719" d="M 234.898438 16.144531 C 247.441406 20.714844 256.945312 21.390625 253.394531 33.539062 C 252.796875 35.578125 251.648438 38.546875 250.453125 41.777344 C 249.664062 41.550781 248.890625 41.246094 248.136719 40.863281 C 244.496094 39.007812 241.121094 35.464844 237.09375 36.300781 C 232.746094 37.199219 231.539062 42.316406 229.207031 45.871094 C 224.183594 53.542969 211.941406 54.335938 203.496094 49.992188 C 195.046875 45.648438 189.507812 37.707031 184.332031 30.074219 C 170.429688 44.394531 187.277344 71.859375 172.507812 85.394531 C 164.949219 92.324219 153.503906 91.429688 142.800781 88.578125 C 144.296875 83.511719 144.5 78.753906 140.699219 75.03125 C 137.828125 72.21875 132.949219 61.507812 133.242188 57.628906 C 133.566406 53.308594 131.445312 32.101562 141.3125 25.859375 C 168.320312 8.78125 204.390625 5.03125 234.898438 16.144531 Z M 234.898438 16.144531 " fill-opacity="1" fill-rule="nonzero"/><path fill="#732719" d="M 494.886719 46.488281 C 508.414062 53.375 518.890625 56.03125 513.953125 66.449219 C 511.691406 71.214844 504.285156 81.449219 504.351562 86.851562 C 504.398438 91.117188 504.59375 95.382812 504.816406 99.585938 C 501.855469 97.960938 499.339844 95.484375 497.878906 92.882812 C 495.308594 88.292969 495.238281 83.414062 495.222656 78.722656 C 492.726562 78.816406 490.234375 78.914062 487.738281 79.007812 C 480.566406 68.179688 473.398438 57.351562 466.230469 46.527344 C 460.597656 42.777344 453.914062 47.976562 453.503906 53.25 C 453.097656 58.523438 455.0625 64.773438 451.0625 68.503906 C 444.648438 74.492188 429.933594 68.351562 420.851562 71.71875 C 415.75 73.613281 413.410156 78.15625 411.707031 82.53125 C 410.007812 86.902344 408.46875 91.605469 404.214844 94.433594 C 399.960938 97.265625 391.90625 97.136719 388.113281 92.84375 C 387.871094 92.570312 387.628906 92.292969 387.394531 92.015625 C 388.941406 88.140625 389.066406 84.273438 385.574219 80.488281 C 382.625 77.285156 378.105469 66.386719 378.75 62.882812 C 379.46875 58.976562 378.875 39.015625 390.332031 35.390625 C 421.6875 25.457031 461.988281 29.730469 494.886719 46.488281 Z M 494.886719 46.488281 " fill-opacity="1" fill-rule="nonzero"/><path fill="#9c592a" d="M 50.800781 125.324219 C 50.574219 126.117188 49.824219 125.738281 50.480469 128.421875 C 49.574219 126.636719 49.042969 124.503906 48.332031 124.035156 C 46.453125 122.65625 43.171875 118.191406 43.683594 122.316406 C 43.3125 120.652344 44.140625 120.730469 42.832031 117.367188 C 41.324219 114.703125 39.933594 112.578125 38.613281 111.210938 C 39.566406 111.859375 37.089844 107.59375 36.78125 106.671875 C 33.398438 100.609375 31.773438 101.28125 29.082031 96.75 C 30.269531 97.546875 34.046875 103.289062 33.328125 99.851562 C 31.585938 95.019531 28.757812 90.984375 27.148438 87.652344 C 27 87.207031 28.148438 89.167969 28.5625 89.667969 C 27.128906 85.75 27.105469 82.914062 24.179688 78.214844 C 22.90625 72.753906 25.601562 72.332031 27.097656 71.097656 C 29.949219 75.027344 33.265625 80.335938 36.269531 84.703125 C 36.144531 84.148438 36.046875 83.492188 35.742188 82.582031 C 38.808594 89.71875 43.855469 98.902344 46.101562 101.921875 C 48.046875 106.078125 45.09375 101.488281 46.980469 105.824219 C 47.695312 108.320312 49.410156 111.242188 50.632812 113.957031 C 51.703125 119.164062 52.507812 122.304688 54.210938 128.304688 C 50.949219 120.800781 52.980469 129.621094 50.800781 125.324219 Z M 50.800781 125.324219 " fill-opacity="1" fill-rule="nonzero"/><path fill="#9c592a" d="M 104.347656 125.585938 C 104.292969 126.746094 103.394531 126.03125 104.75 130.226562 C 103.335938 127.351562 102.25 124.023438 101.371094 123.183594 C 99 120.753906 94.375 113.382812 95.921875 119.738281 C 95.121094 117.152344 96.035156 117.414062 93.8125 112.074219 C 91.535156 107.761719 89.515625 104.28125 87.765625 101.972656 C 88.953125 103.125 85.246094 96.203125 84.695312 94.753906 C 79.570312 84.9375 77.96875 85.664062 73.972656 78.308594 C 75.453125 79.730469 80.917969 89.121094 79.316406 83.78125 C 76.269531 76.132812 72.238281 69.503906 69.695312 64.148438 C 69.425781 63.445312 71.140625 66.628906 71.710938 67.46875 C 69.214844 61.261719 68.507812 56.949219 64.207031 49.289062 C 61.515625 40.769531 64.335938 40.621094 65.664062 39.011719 C 69.695312 45.484375 74.558594 54.140625 78.863281 61.3125 C 78.59375 60.445312 78.332031 59.4375 77.78125 57.996094 C 82.820312 69.378906 90.492188 84.230469 93.648438 89.222656 C 96.753906 95.871094 92.453125 88.378906 95.535156 95.304688 C 96.910156 99.222656 99.46875 103.964844 101.441406 108.300781 C 103.851562 116.402344 105.476562 121.3125 108.761719 130.726562 C 103.421875 118.742188 107.742188 132.496094 104.347656 125.585938 Z M 104.347656 125.585938 " fill-opacity="1" fill-rule="nonzero"/><path fill="#9c592a" d="M 305.257812 135.683594 C 305.199219 136.847656 304.300781 136.132812 305.65625 140.324219 C 304.246094 137.453125 303.160156 134.121094 302.273438 133.28125 C 299.90625 130.851562 295.277344 123.484375 296.824219 129.835938 C 296.027344 127.25 296.941406 127.511719 294.714844 122.175781 C 292.441406 117.863281 290.417969 114.378906 288.664062 112.070312 C 289.851562 113.222656 286.144531 106.304688 285.589844 104.851562 C 280.464844 95.035156 278.867188 95.761719 274.863281 88.40625 C 276.34375 89.828125 281.808594 99.222656 280.207031 93.878906 C 277.164062 86.230469 273.128906 79.601562 270.582031 74.25 C 270.3125 73.546875 272.027344 76.730469 272.597656 77.566406 C 270.097656 71.363281 269.394531 67.050781 265.09375 59.386719 C 262.402344 50.867188 265.226562 50.71875 266.550781 49.113281 C 270.582031 55.585938 275.445312 64.242188 279.753906 71.410156 C 279.488281 70.542969 279.222656 69.535156 278.671875 68.09375 C 283.710938 79.480469 291.386719 94.328125 294.546875 99.320312 C 297.652344 105.972656 293.347656 98.476562 296.429688 105.402344 C 297.808594 109.320312 300.367188 114.0625 302.339844 118.402344 C 304.75 126.5 306.375 131.410156 309.664062 140.828125 C 304.332031 128.839844 308.652344 142.597656 305.257812 135.683594 Z M 305.257812 135.683594 " fill-opacity="1" fill-rule="nonzero"/><path fill="#9c592a" d="M 346.375 128.484375 C 346.226562 129.445312 345.40625 128.910156 346.382812 132.28125 C 345.246094 130 344.460938 127.324219 343.675781 126.6875 C 341.574219 124.828125 337.675781 119.042969 338.664062 124.183594 C 338.097656 122.101562 338.960938 122.261719 337.234375 118 C 335.375 114.585938 333.703125 111.839844 332.183594 110.050781 C 333.246094 110.925781 330.210938 105.453125 329.789062 104.292969 C 325.609375 96.519531 323.996094 97.21875 320.710938 91.402344 C 322.035156 92.480469 326.578125 99.882812 325.457031 95.582031 C 323.121094 89.46875 319.75 84.253906 317.710938 80.003906 C 317.511719 79.4375 318.917969 81.960938 319.402344 82.613281 C 317.484375 77.652344 317.152344 74.148438 313.59375 68.097656 C 311.679688 61.242188 314.429688 60.945312 315.847656 59.542969 C 319.238281 64.632812 323.257812 71.460938 326.855469 77.105469 C 326.667969 76.40625 326.496094 75.59375 326.078125 74.441406 C 330.042969 83.515625 336.289062 95.277344 338.949219 99.195312 C 341.421875 104.484375 337.855469 98.578125 340.28125 104.089844 C 341.296875 107.230469 343.402344 110.980469 344.964844 114.4375 C 346.640625 120.960938 347.824219 124.90625 350.246094 132.464844 C 346.035156 122.902344 349.105469 133.96875 346.375 128.484375 Z M 346.375 128.484375 " fill-opacity="1" fill-rule="nonzero"/><path fill="#9c592a" d="M 432.859375 140.367188 C 432.464844 141.164062 431.773438 140.445312 431.910156 143.703125 C 431.332031 141.355469 431.210938 138.761719 430.574219 137.960938 C 428.90625 135.683594 426.410156 129.410156 426.113281 134.214844 C 426.0625 132.21875 426.902344 132.628906 426.222656 128.359375 C 425.199219 124.789062 424.1875 121.871094 423.097656 119.832031 C 423.953125 120.925781 422.253906 115.191406 422.121094 114.046875 C 419.835938 105.945312 418.023438 106.054688 416.152344 99.945312 C 417.21875 101.300781 419.96875 109.195312 419.914062 105.078125 C 419.085938 98.996094 416.972656 93.382812 415.976562 89.027344 C 415.914062 88.472656 416.707031 91.113281 417.035156 91.835938 C 416.339844 86.898438 416.886719 83.71875 414.800781 77.320312 C 414.582031 70.722656 417.453125 71.3125 419.242188 70.523438 C 421.402344 76.027344 423.765625 83.257812 425.988281 89.316406 C 425.972656 88.644531 426.007812 87.875 425.871094 86.738281 C 427.609375 95.910156 430.984375 108.148438 432.699219 112.40625 C 433.878906 117.804688 431.746094 111.519531 432.820312 117.105469 C 433.058594 120.171875 434.246094 124.109375 434.960938 127.621094 C 435.023438 133.859375 435.226562 137.679688 435.78125 145.050781 C 433.921875 135.375 434.25 146.019531 432.859375 140.367188 Z M 432.859375 140.367188 " fill-opacity="1" fill-rule="nonzero"/><path fill="#9c592a" d="M 468.519531 134.96875 C 468.15625 135.925781 467.433594 135.0625 467.710938 138.976562 C 467.035156 136.152344 466.800781 133.035156 466.125 132.074219 C 464.359375 129.335938 461.585938 121.789062 461.503906 127.574219 C 461.371094 125.167969 462.226562 125.664062 461.363281 120.53125 C 460.179688 116.242188 459.042969 112.726562 457.863281 110.273438 C 458.765625 111.589844 456.820312 104.695312 456.636719 103.316406 C 454 93.574219 452.1875 93.710938 450.054688 86.363281 C 451.179688 87.996094 454.273438 97.484375 454.039062 92.53125 C 452.945312 85.21875 450.589844 78.46875 449.402344 73.234375 C 449.3125 72.5625 450.222656 75.742188 450.582031 76.609375 C 449.671875 70.671875 450.078125 66.847656 447.714844 59.152344 C 447.207031 51.21875 450.101562 51.925781 451.859375 50.972656 C 454.257812 57.585938 456.929688 66.285156 459.425781 73.566406 C 459.378906 72.761719 459.378906 71.835938 459.195312 70.464844 C 461.332031 81.5 465.242188 96.214844 467.136719 101.335938 C 468.550781 107.828125 466.140625 100.273438 467.460938 106.988281 C 467.835938 110.679688 469.195312 115.410156 470.0625 119.632812 C 470.390625 127.132812 470.761719 131.730469 471.636719 140.597656 C 469.363281 128.960938 470.15625 141.765625 468.519531 134.96875 Z M 468.519531 134.96875 " fill-opacity="1" fill-rule="nonzero"/><path fill="#9c592a" d="M 186.253906 137.234375 C 186.023438 138.375 185.300781 137.5625 185.910156 141.871094 C 185.046875 138.863281 184.550781 135.4375 183.867188 134.5 C 182.046875 131.808594 178.898438 123.96875 179.351562 130.4375 C 179.011719 127.785156 179.8125 128.15625 178.574219 122.609375 C 177.136719 118.070312 175.800781 114.386719 174.53125 111.894531 C 175.453125 113.179688 173.089844 105.890625 172.800781 104.390625 C 169.566406 94.070312 167.976562 94.597656 165.40625 86.839844 C 166.554688 88.421875 170.171875 98.371094 169.511719 92.894531 C 167.867188 84.964844 165.152344 77.925781 163.625 72.328125 C 163.484375 71.601562 164.582031 74.957031 164.980469 75.851562 C 163.628906 69.417969 163.636719 65.070312 160.832031 56.980469 C 159.648438 48.230469 162.28125 48.425781 163.753906 47 C 166.492188 53.882812 169.660156 63.027344 172.546875 70.636719 C 172.429688 69.746094 172.34375 68.714844 172.054688 67.226562 C 174.96875 79.089844 179.789062 94.691406 181.941406 100.007812 C 183.792969 106.957031 180.960938 99.027344 182.75 106.246094 C 183.421875 110.285156 185.0625 115.28125 186.222656 119.808594 C 187.207031 128.105469 187.957031 133.15625 189.554688 142.859375 C 186.453125 130.359375 188.332031 144.476562 186.253906 137.234375 Z M 186.253906 137.234375 " fill-opacity="1" fill-rule="nonzero"/><path fill="#9c592a" d="M 211.222656 111.277344 C 210.996094 111.976562 210.484375 111.511719 210.75 114.085938 C 210.230469 112.304688 210.003906 110.257812 209.519531 109.71875 C 208.253906 108.167969 206.203125 103.5625 206.261719 107.445312 C 206.125 105.859375 206.714844 106.050781 206.019531 102.757812 C 205.125 100.078125 204.273438 97.90625 203.417969 96.453125 C 204.0625 97.191406 202.585938 92.890625 202.433594 91.996094 C 200.429688 85.898438 199.191406 86.28125 197.578125 81.703125 C 198.386719 82.617188 200.699219 88.472656 200.4375 85.195312 C 199.542969 80.480469 197.789062 76.339844 196.867188 73.023438 C 196.792969 72.59375 197.480469 74.570312 197.746094 75.097656 C 197 71.269531 197.203125 68.648438 195.425781 63.878906 C 194.914062 58.652344 196.914062 58.664062 198.097656 57.746094 C 199.875 61.792969 201.886719 67.179688 203.742188 71.660156 C 203.691406 71.128906 203.675781 70.507812 203.519531 69.625 C 205.210938 76.664062 208.1875 85.882812 209.589844 89.003906 C 210.695312 93.121094 208.886719 88.453125 209.929688 92.734375 C 210.261719 95.144531 211.285156 98.089844 211.96875 100.777344 C 212.347656 105.738281 212.695312 108.757812 213.472656 114.542969 C 211.679688 107.125 212.488281 115.5625 211.222656 111.277344 Z M 211.222656 111.277344 " fill-opacity="1" fill-rule="nonzero"/><g clip-path="url(#4beec3a092)"><path fill="#a17015" d="M 19.773438 425.976562 L 20.964844 402.253906 L 809.398438 441.871094 L 808.207031 465.597656 Z M 19.773438 425.976562 " fill-opacity="1" fill-rule="nonzero"/></g><path fill="#8f3525" d="M 353.671875 375.628906 C 366.476562 385.1875 369.992188 401.121094 371.316406 418.148438 C 372.386719 431.976562 372.007812 446.519531 373.984375 458.941406 C 374.433594 461.746094 374.996094 464.445312 375.722656 467 C 377.835938 474.398438 373.929688 482.179688 366.988281 486.910156 C 361.511719 490.632812 328.984375 477.339844 297.605469 486.347656 C 281.617188 490.9375 261.699219 479.304688 256.558594 465.402344 C 256.011719 463.933594 255.636719 462.445312 255.445312 460.945312 C 252.683594 439.367188 245.964844 412.207031 251.261719 387.03125 C 251.417969 386.292969 251.589844 385.550781 251.78125 384.804688 C 253.359375 378.765625 256.363281 372.703125 262.710938 369.855469 C 268.191406 367.398438 283.886719 376.414062 290.113281 377.019531 C 314.304688 379.378906 335.335938 361.933594 353.671875 375.628906 Z M 353.671875 375.628906 " fill-opacity="1" fill-rule="nonzero"/><path fill="#8f3525" d="M 494.886719 389.488281 C 508.414062 396.378906 518.890625 399.035156 513.953125 409.449219 C 511.691406 414.214844 504.285156 424.449219 504.351562 429.855469 C 504.398438 434.117188 504.59375 438.382812 504.816406 442.589844 C 504.988281 445.808594 505.183594 448.992188 505.347656 452.113281 C 506.234375 468.738281 506.414062 483.542969 499.035156 492.222656 C 483 511.070312 449.324219 514.410156 421.070312 499.949219 C 420.886719 499.851562 405.867188 492.4375 405.679688 492.34375 C 393.371094 486.027344 382.9375 475.546875 379.179688 464.992188 C 377.246094 459.558594 377.078125 454.105469 379.328125 449.191406 C 381.46875 444.523438 385.496094 439.753906 387.390625 435.011719 C 388.9375 431.132812 389.0625 427.265625 385.570312 423.480469 C 382.621094 420.277344 378.101562 409.378906 378.746094 405.875 C 379.464844 401.96875 378.871094 382.011719 390.328125 378.382812 C 421.6875 368.457031 461.988281 372.734375 494.886719 389.488281 Z M 494.886719 389.488281 " fill-opacity="1" fill-rule="nonzero"/><path fill="#8f3525" d="M 234.898438 359.148438 C 247.441406 363.714844 256.945312 364.390625 253.394531 376.539062 C 252.796875 378.582031 251.648438 381.550781 250.453125 384.777344 C 248.394531 390.34375 246.203125 396.679688 246.511719 400.324219 C 248.777344 426.875 255.167969 452.601562 246.789062 468.066406 C 244.703125 471.910156 242.164062 475.414062 239.257812 478.53125 C 224.457031 494.429688 200.1875 500.457031 178.285156 492.414062 C 178.105469 492.351562 164.199219 487.53125 164.027344 487.46875 C 149.296875 482.039062 136.773438 468.546875 136.308594 454.269531 C 136.230469 451.792969 136.515625 449.289062 137.214844 446.800781 C 138.59375 441.894531 141.328125 436.589844 142.796875 431.585938 C 144.292969 426.515625 144.496094 421.757812 140.695312 418.035156 C 137.824219 415.222656 132.945312 404.511719 133.238281 400.632812 C 133.5625 396.3125 131.441406 375.105469 141.308594 368.863281 C 168.320312 351.78125 204.390625 348.03125 234.898438 359.148438 Z M 234.898438 359.148438 " fill-opacity="1" fill-rule="nonzero"/><path fill="#8f3525" d="M 121.308594 354.035156 C 121.355469 354.097656 121.402344 354.160156 121.453125 354.21875 C 126.410156 360.738281 128.472656 368.804688 130.035156 376.710938 C 133.070312 392.105469 134.589844 407.769531 134.589844 423.421875 C 134.59375 440.679688 132.753906 457.933594 129.070312 474.820312 C 128.351562 478.105469 127.5 481.511719 125.242188 484.082031 C 122.984375 486.65625 118.894531 488.082031 115.820312 486.414062 C 113.152344 484.96875 112.128906 481.816406 110.089844 479.621094 C 106.539062 475.789062 100.277344 475.367188 95.179688 476.902344 C 90.082031 478.441406 85.710938 481.542969 81.007812 483.960938 C 61.058594 494.214844 34.28125 490.734375 17.824219 475.738281 C 15.023438 470.160156 12.601562 464.972656 10.574219 460.105469 C 7.816406 453.480469 5.765625 447.4375 4.4375 441.761719 C 0.597656 425.382812 2.738281 412.082031 10.972656 396.824219 C 16.441406 386.703125 6.242188 371.765625 16.136719 365.707031 C 29.78125 357.339844 46.875 375.507812 62.78125 372.378906 C 78.523438 369.277344 83.949219 347.425781 99.738281 344.542969 C 107.917969 343.046875 116.335938 347.609375 121.308594 354.035156 Z M 121.308594 354.035156 " fill-opacity="1" fill-rule="nonzero"/><path fill="#732719" d="M 353.671875 375.628906 C 366.476562 385.1875 369.992188 401.121094 371.316406 418.148438 C 372.386719 431.976562 372.007812 446.519531 373.984375 458.941406 C 372.195312 459.691406 370.222656 460.09375 368.085938 460.03125 C 359.390625 459.804688 353.683594 451.664062 353.910156 444.328125 C 354.136719 436.992188 358.417969 430.222656 361.585938 423.359375 C 364.757812 416.5 366.777344 408.496094 362.675781 402.058594 C 358.574219 395.625 346.035156 393.28125 341.261719 399.457031 C 339.820312 401.316406 339.273438 403.644531 337.464844 405.257812 C 333.984375 408.375 327.8125 407.316406 323.4375 405.226562 C 319.066406 403.132812 314.894531 400.164062 309.839844 400.0625 C 304.792969 399.96875 305.222656 404.546875 302.929688 408.363281 C 299.550781 413.976562 287.933594 407.445312 281.164062 404.914062 C 274.394531 402.382812 268.488281 397.339844 267.691406 391.117188 C 267.066406 386.214844 267.191406 378.738281 261.347656 379.152344 C 258.589844 379.347656 256.8125 381.613281 254.738281 383.167969 C 253.820312 383.859375 252.824219 384.398438 251.773438 384.800781 C 253.351562 378.761719 256.355469 372.699219 262.703125 369.851562 C 268.183594 367.394531 283.878906 376.410156 290.101562 377.011719 C 314.304688 379.378906 335.335938 361.933594 353.671875 375.628906 Z M 353.671875 375.628906 " fill-opacity="1" fill-rule="nonzero"/><path fill="#732719" d="M 121.308594 354.035156 C 123.007812 358.714844 123.527344 363.609375 122.085938 368.296875 C 119.515625 376.683594 108.847656 383.285156 99.507812 380.210938 C 95.347656 378.84375 91.1875 375.769531 87.054688 377.117188 C 82.597656 378.570312 82.164062 383.796875 80.28125 387.632812 C 76.222656 395.878906 63.378906 398.253906 53.71875 395.039062 C 44.050781 391.828125 36.878906 384.660156 30.128906 377.765625 C 17.761719 393.765625 40.125 418.816406 26.707031 434.152344 C 21.519531 440.082031 13.253906 441.863281 4.429688 441.761719 C 0.589844 425.382812 2.730469 412.082031 10.964844 396.824219 C 16.433594 386.703125 6.234375 371.765625 16.128906 365.707031 C 29.773438 357.339844 46.867188 375.507812 62.773438 372.378906 C 78.515625 369.277344 83.941406 347.425781 99.730469 344.542969 C 107.917969 343.046875 116.335938 347.609375 121.308594 354.035156 Z M 121.308594 354.035156 " fill-opacity="1" fill-rule="nonzero"/><path fill="#732719" d="M 234.898438 359.148438 C 247.441406 363.714844 256.945312 364.390625 253.394531 376.539062 C 252.796875 378.582031 251.648438 381.550781 250.453125 384.777344 C 249.664062 384.550781 248.890625 384.246094 248.136719 383.863281 C 244.496094 382.011719 241.121094 378.464844 237.09375 379.300781 C 232.746094 380.199219 231.539062 385.316406 229.207031 388.871094 C 224.183594 396.542969 211.941406 397.335938 203.496094 392.992188 C 195.046875 388.652344 189.507812 380.707031 184.332031 373.074219 C 170.429688 387.398438 187.277344 414.859375 172.507812 428.394531 C 164.949219 435.328125 153.503906 434.429688 142.800781 431.582031 C 144.296875 426.511719 144.5 421.753906 140.699219 418.03125 C 137.828125 415.21875 132.949219 404.507812 133.242188 400.628906 C 133.566406 396.308594 131.445312 375.101562 141.3125 368.859375 C 168.320312 351.78125 204.390625 348.03125 234.898438 359.148438 Z M 234.898438 359.148438 " fill-opacity="1" fill-rule="nonzero"/><path fill="#732719" d="M 494.886719 389.488281 C 508.414062 396.378906 518.890625 399.035156 513.953125 409.449219 C 511.691406 414.214844 504.285156 424.449219 504.351562 429.855469 C 504.398438 434.117188 504.59375 438.382812 504.816406 442.589844 C 501.855469 440.960938 499.339844 438.484375 497.878906 435.882812 C 495.308594 431.292969 495.238281 426.414062 495.222656 421.722656 C 492.726562 421.820312 490.234375 421.914062 487.738281 422.007812 C 480.566406 411.179688 473.398438 400.355469 466.230469 389.527344 C 460.597656 385.777344 453.914062 390.976562 453.503906 396.25 C 453.097656 401.527344 455.0625 407.777344 451.0625 411.503906 C 444.648438 417.492188 429.933594 411.351562 420.851562 414.722656 C 415.75 416.613281 413.410156 421.15625 411.707031 425.53125 C 410.007812 429.902344 408.46875 434.605469 404.214844 437.4375 C 399.960938 440.265625 391.90625 440.136719 388.113281 435.84375 C 387.871094 435.570312 387.628906 435.292969 387.394531 435.019531 C 388.941406 431.140625 389.066406 427.273438 385.574219 423.488281 C 382.625 420.285156 378.105469 409.386719 378.75 405.882812 C 379.46875 401.976562 378.875 382.019531 390.332031 378.390625 C 421.6875 368.457031 461.988281 372.734375 494.886719 389.488281 Z M 494.886719 389.488281 " fill-opacity="1" fill-rule="nonzero"/><path fill="#9c592a" d="M 50.800781 468.324219 C 50.574219 469.121094 49.824219 468.738281 50.480469 471.421875 C 49.574219 469.636719 49.042969 467.503906 48.332031 467.035156 C 46.453125 465.65625 43.171875 461.191406 43.683594 465.316406 C 43.3125 463.65625 44.140625 463.734375 42.832031 460.371094 C 41.324219 457.703125 39.933594 455.578125 38.613281 454.214844 C 39.566406 454.859375 37.089844 450.59375 36.78125 449.671875 C 33.398438 443.609375 31.773438 444.28125 29.082031 439.75 C 30.269531 440.550781 34.046875 446.289062 33.328125 442.851562 C 31.585938 438.019531 28.757812 433.984375 27.148438 430.652344 C 27 430.207031 28.148438 432.167969 28.5625 432.671875 C 27.128906 428.75 27.105469 425.914062 24.179688 421.214844 C 22.90625 415.753906 25.601562 415.332031 27.097656 414.101562 C 29.949219 418.027344 33.265625 423.335938 36.269531 427.703125 C 36.144531 427.148438 36.046875 426.492188 35.742188 425.582031 C 38.808594 432.71875 43.855469 441.902344 46.101562 444.925781 C 48.046875 449.078125 45.09375 444.488281 46.980469 448.828125 C 47.695312 451.324219 49.410156 454.242188 50.632812 456.957031 C 51.703125 462.167969 52.507812 465.304688 54.210938 471.308594 C 50.949219 463.800781 52.980469 472.625 50.800781 468.324219 Z M 50.800781 468.324219 " fill-opacity="1" fill-rule="nonzero"/><path fill="#9c592a" d="M 104.347656 468.585938 C 104.292969 469.75 103.394531 469.035156 104.75 473.226562 C 103.335938 470.351562 102.25 467.023438 101.371094 466.183594 C 99 463.753906 94.375 456.382812 95.921875 462.738281 C 95.121094 460.152344 96.035156 460.414062 93.8125 455.078125 C 91.535156 450.761719 89.515625 447.28125 87.765625 444.972656 C 88.953125 446.125 85.246094 439.203125 84.695312 437.753906 C 79.570312 427.9375 77.96875 428.664062 73.972656 421.308594 C 75.453125 422.730469 80.917969 432.125 79.316406 426.78125 C 76.269531 419.132812 72.238281 412.503906 69.695312 407.152344 C 69.425781 406.449219 71.140625 409.628906 71.710938 410.46875 C 69.214844 404.265625 68.507812 399.949219 64.207031 392.289062 C 61.515625 383.769531 64.335938 383.621094 65.664062 382.015625 C 69.695312 388.484375 74.558594 397.140625 78.863281 404.3125 C 78.59375 403.445312 78.332031 402.4375 77.78125 400.996094 C 82.820312 412.382812 90.492188 427.230469 93.648438 432.222656 C 96.753906 438.871094 92.453125 431.378906 95.535156 438.304688 C 96.910156 442.222656 99.46875 446.964844 101.441406 451.300781 C 103.851562 459.402344 105.476562 464.3125 108.761719 473.730469 C 103.421875 461.742188 107.742188 475.496094 104.347656 468.585938 Z M 104.347656 468.585938 " fill-opacity="1" fill-rule="nonzero"/><path fill="#9c592a" d="M 305.257812 478.683594 C 305.199219 479.847656 304.300781 479.132812 305.65625 483.328125 C 304.246094 480.453125 303.160156 477.121094 302.273438 476.28125 C 299.90625 473.851562 295.277344 466.484375 296.824219 472.835938 C 296.027344 470.25 296.941406 470.511719 294.714844 465.175781 C 292.441406 460.863281 290.417969 457.378906 288.664062 455.074219 C 289.851562 456.222656 286.144531 449.304688 285.589844 447.851562 C 280.464844 438.035156 278.867188 438.765625 274.863281 431.40625 C 276.34375 432.832031 281.808594 442.222656 280.207031 436.882812 C 277.164062 429.234375 273.128906 422.605469 270.582031 417.25 C 270.3125 416.546875 272.027344 419.730469 272.597656 420.570312 C 270.097656 414.363281 269.394531 410.050781 265.09375 402.390625 C 262.402344 393.867188 265.226562 393.722656 266.550781 392.113281 C 270.582031 398.585938 275.445312 407.242188 279.753906 414.414062 C 279.488281 413.546875 279.222656 412.539062 278.671875 411.09375 C 283.710938 422.480469 291.386719 437.328125 294.546875 442.320312 C 297.652344 448.976562 293.347656 441.476562 296.429688 448.402344 C 297.808594 452.320312 300.367188 457.0625 302.339844 461.402344 C 304.75 469.503906 306.375 474.410156 309.664062 483.828125 C 304.332031 471.839844 308.652344 485.597656 305.257812 478.683594 Z M 305.257812 478.683594 " fill-opacity="1" fill-rule="nonzero"/><path fill="#9c592a" d="M 346.375 471.484375 C 346.226562 472.445312 345.40625 471.910156 346.382812 475.285156 C 345.246094 473 344.460938 470.324219 343.675781 469.6875 C 341.574219 467.828125 337.675781 462.042969 338.664062 467.183594 C 338.097656 465.101562 338.960938 465.261719 337.234375 461.003906 C 335.375 457.585938 333.703125 454.84375 332.183594 453.050781 C 333.246094 453.925781 330.210938 448.453125 329.789062 447.292969 C 325.609375 439.519531 323.996094 440.21875 320.710938 434.402344 C 322.035156 435.484375 326.578125 442.882812 325.457031 438.582031 C 323.121094 432.46875 319.75 427.253906 317.710938 423.003906 C 317.511719 422.441406 318.917969 424.960938 319.402344 425.613281 C 317.484375 420.65625 317.152344 417.148438 313.59375 411.097656 C 311.679688 404.242188 314.429688 403.949219 315.847656 402.546875 C 319.238281 407.632812 323.257812 414.460938 326.855469 420.109375 C 326.667969 419.410156 326.496094 418.59375 326.078125 417.441406 C 330.042969 426.515625 336.289062 438.277344 338.949219 442.199219 C 341.421875 447.484375 337.855469 441.578125 340.28125 447.089844 C 341.296875 450.234375 343.402344 453.984375 344.964844 457.4375 C 346.640625 463.964844 347.824219 467.90625 350.246094 475.464844 C 346.035156 465.902344 349.105469 476.96875 346.375 471.484375 Z M 346.375 471.484375 " fill-opacity="1" fill-rule="nonzero"/><path fill="#9c592a" d="M 432.859375 483.367188 C 432.464844 484.164062 431.773438 483.445312 431.910156 486.703125 C 431.332031 484.355469 431.210938 481.765625 430.574219 480.960938 C 428.90625 478.683594 426.410156 472.410156 426.113281 477.214844 C 426.0625 475.21875 426.902344 475.628906 426.222656 471.359375 C 425.199219 467.792969 424.1875 464.871094 423.097656 462.832031 C 423.953125 463.925781 422.253906 458.195312 422.121094 457.046875 C 419.835938 448.945312 418.023438 449.058594 416.152344 442.945312 C 417.21875 444.304688 419.96875 452.195312 419.914062 448.078125 C 419.085938 441.996094 416.972656 436.382812 415.976562 432.027344 C 415.914062 431.472656 416.707031 434.113281 417.035156 434.835938 C 416.339844 429.898438 416.886719 426.71875 414.800781 420.320312 C 414.582031 413.722656 417.453125 414.3125 419.242188 413.523438 C 421.402344 419.027344 423.765625 426.257812 425.988281 432.316406 C 425.972656 431.644531 426.007812 430.878906 425.871094 429.738281 C 427.609375 438.914062 430.984375 451.148438 432.699219 455.40625 C 433.878906 460.804688 431.746094 454.523438 432.820312 460.105469 C 433.058594 463.171875 434.246094 467.109375 434.960938 470.621094 C 435.023438 476.859375 435.226562 480.679688 435.78125 488.050781 C 433.921875 478.375 434.25 489.023438 432.859375 483.367188 Z M 432.859375 483.367188 " fill-opacity="1" fill-rule="nonzero"/><path fill="#9c592a" d="M 468.519531 477.96875 C 468.15625 478.925781 467.433594 478.0625 467.710938 481.976562 C 467.035156 479.152344 466.800781 476.035156 466.125 475.074219 C 464.359375 472.335938 461.585938 464.789062 461.503906 470.574219 C 461.371094 468.167969 462.226562 468.664062 461.363281 463.53125 C 460.179688 459.242188 459.042969 455.726562 457.863281 453.277344 C 458.765625 454.589844 456.820312 447.695312 456.636719 446.316406 C 454 436.578125 452.1875 436.710938 450.054688 429.363281 C 451.179688 430.996094 454.273438 440.484375 454.039062 435.53125 C 452.945312 428.222656 450.589844 421.46875 449.402344 416.234375 C 449.3125 415.5625 450.222656 418.742188 450.582031 419.609375 C 449.671875 413.671875 450.078125 409.847656 447.714844 402.15625 C 447.207031 394.21875 450.101562 394.925781 451.859375 393.972656 C 454.257812 400.589844 456.929688 409.285156 459.425781 416.566406 C 459.378906 415.761719 459.378906 414.835938 459.195312 413.46875 C 461.332031 424.5 465.242188 439.214844 467.136719 444.335938 C 468.550781 450.828125 466.140625 443.273438 467.460938 449.992188 C 467.835938 453.679688 469.195312 458.410156 470.0625 462.636719 C 470.390625 470.136719 470.761719 474.734375 471.636719 483.597656 C 469.363281 471.960938 470.15625 484.765625 468.519531 477.96875 Z M 468.519531 477.96875 " fill-opacity="1" fill-rule="nonzero"/><path fill="#9c592a" d="M 186.253906 480.234375 C 186.023438 481.378906 185.300781 480.5625 185.910156 484.871094 C 185.046875 481.863281 184.550781 478.4375 183.867188 477.5 C 182.046875 474.8125 178.898438 466.96875 179.351562 473.4375 C 179.011719 470.785156 179.8125 471.15625 178.574219 465.613281 C 177.136719 461.074219 175.800781 457.386719 174.53125 454.894531 C 175.453125 456.179688 173.089844 448.890625 172.800781 447.390625 C 169.566406 437.070312 167.976562 437.597656 165.40625 429.839844 C 166.554688 431.425781 170.171875 441.371094 169.511719 435.894531 C 167.867188 427.964844 165.152344 420.925781 163.625 415.328125 C 163.484375 414.601562 164.582031 417.957031 164.980469 418.855469 C 163.628906 412.417969 163.636719 408.070312 160.832031 399.980469 C 159.648438 391.234375 162.28125 391.425781 163.753906 390 C 166.492188 396.882812 169.660156 406.027344 172.546875 413.636719 C 172.429688 412.746094 172.34375 411.714844 172.054688 410.226562 C 174.96875 422.089844 179.789062 437.691406 181.941406 443.007812 C 183.792969 449.957031 180.960938 442.03125 182.75 449.246094 C 183.421875 453.285156 185.0625 458.28125 186.222656 462.808594 C 187.207031 471.105469 187.957031 476.15625 189.554688 485.859375 C 186.453125 473.359375 188.332031 487.476562 186.253906 480.234375 Z M 186.253906 480.234375 " fill-opacity="1" fill-rule="nonzero"/><path fill="#9c592a" d="M 211.222656 454.277344 C 210.996094 454.976562 210.484375 454.511719 210.75 457.085938 C 210.230469 455.308594 210.003906 453.257812 209.519531 452.722656 C 208.253906 451.171875 206.203125 446.566406 206.261719 450.445312 C 206.125 448.859375 206.714844 449.054688 206.019531 445.757812 C 205.125 443.078125 204.273438 440.90625 203.417969 439.457031 C 204.0625 440.191406 202.585938 435.890625 202.433594 434.996094 C 200.429688 428.898438 199.191406 429.28125 197.578125 424.707031 C 198.386719 425.617188 200.699219 431.472656 200.4375 428.195312 C 199.542969 423.480469 197.789062 419.339844 196.867188 416.023438 C 196.792969 415.59375 197.480469 417.570312 197.746094 418.097656 C 197 414.269531 197.203125 411.648438 195.425781 406.878906 C 194.914062 401.652344 196.914062 401.664062 198.097656 400.75 C 199.875 404.792969 201.886719 410.179688 203.742188 414.660156 C 203.691406 414.128906 203.675781 413.507812 203.519531 412.625 C 205.210938 419.664062 208.1875 428.882812 209.589844 432.003906 C 210.695312 436.121094 208.886719 431.453125 209.929688 435.734375 C 210.261719 438.144531 211.285156 441.09375 211.96875 443.777344 C 212.347656 448.738281 212.695312 451.757812 213.472656 457.542969 C 211.679688 450.125 212.488281 458.5625 211.222656 454.277344 Z M 211.222656 454.277344 " fill-opacity="1" fill-rule="nonzero"/><g clip-path="url(#6f84b0ae20)"><path fill="#a17015" d="M 19.773438 254.476562 L 20.964844 230.753906 L 809.398438 270.371094 L 808.207031 294.097656 Z M 19.773438 254.476562 " fill-opacity="1" fill-rule="nonzero"/></g><path fill="#8f3525" d="M 353.671875 204.128906 C 366.476562 213.6875 369.992188 229.621094 371.316406 246.644531 C 372.386719 260.476562 372.007812 275.019531 373.984375 287.441406 C 374.433594 290.246094 374.996094 292.945312 375.722656 295.5 C 377.835938 302.898438 373.929688 310.679688 366.988281 315.40625 C 361.511719 319.132812 328.984375 305.839844 297.605469 314.847656 C 281.617188 319.4375 261.699219 307.804688 256.558594 293.902344 C 256.011719 292.433594 255.636719 290.945312 255.445312 289.445312 C 252.683594 267.867188 245.964844 240.707031 251.261719 215.53125 C 251.417969 214.792969 251.589844 214.050781 251.78125 213.304688 C 253.359375 207.265625 256.363281 201.203125 262.710938 198.355469 C 268.191406 195.898438 283.886719 204.914062 290.113281 205.515625 C 314.304688 207.878906 335.335938 190.433594 353.671875 204.128906 Z M 353.671875 204.128906 " fill-opacity="1" fill-rule="nonzero"/><path fill="#8f3525" d="M 494.886719 217.988281 C 508.414062 224.875 518.890625 227.535156 513.953125 237.949219 C 511.691406 242.714844 504.285156 252.949219 504.351562 258.351562 C 504.398438 262.617188 504.59375 266.882812 504.816406 271.089844 C 504.988281 274.308594 505.183594 277.492188 505.347656 280.613281 C 506.234375 297.238281 506.414062 312.042969 499.035156 320.71875 C 483 339.570312 449.324219 342.910156 421.070312 328.445312 C 420.886719 328.351562 405.867188 320.9375 405.679688 320.84375 C 393.371094 314.527344 382.9375 304.046875 379.179688 293.492188 C 377.246094 288.058594 377.078125 282.605469 379.328125 277.691406 C 381.46875 273.023438 385.496094 268.253906 387.390625 263.507812 C 388.9375 259.632812 389.0625 255.765625 385.570312 251.980469 C 382.621094 248.777344 378.101562 237.878906 378.746094 234.375 C 379.464844 230.46875 378.871094 210.507812 390.328125 206.882812 C 421.6875 196.957031 461.988281 201.234375 494.886719 217.988281 Z M 494.886719 217.988281 " fill-opacity="1" fill-rule="nonzero"/><path fill="#8f3525" d="M 234.898438 187.644531 C 247.441406 192.214844 256.945312 192.890625 253.394531 205.039062 C 252.796875 207.078125 251.648438 210.050781 250.453125 213.277344 C 248.394531 218.84375 246.203125 225.179688 246.511719 228.824219 C 248.777344 255.375 255.167969 281.101562 246.789062 296.566406 C 244.703125 300.410156 242.164062 303.914062 239.257812 307.03125 C 224.457031 322.929688 200.1875 328.957031 178.285156 320.914062 C 178.105469 320.851562 164.199219 316.027344 164.027344 315.96875 C 149.296875 310.539062 136.773438 297.046875 136.308594 282.769531 C 136.230469 280.289062 136.515625 277.785156 137.214844 275.300781 C 138.59375 270.394531 141.328125 265.089844 142.796875 260.085938 C 144.292969 255.015625 144.496094 250.257812 140.695312 246.535156 C 137.824219 243.722656 132.945312 233.011719 133.238281 229.132812 C 133.5625 224.8125 131.441406 203.605469 141.308594 197.363281 C 168.320312 180.28125 204.390625 176.53125 234.898438 187.644531 Z M 234.898438 187.644531 " fill-opacity="1" fill-rule="nonzero"/><path fill="#8f3525" d="M 121.308594 182.535156 C 121.355469 182.597656 121.402344 182.660156 121.453125 182.71875 C 126.410156 189.238281 128.472656 197.304688 130.035156 205.207031 C 133.070312 220.605469 134.589844 236.265625 134.589844 251.921875 C 134.59375 269.179688 132.753906 286.433594 129.070312 303.320312 C 128.351562 306.605469 127.5 310.011719 125.242188 312.582031 C 122.984375 315.15625 118.894531 316.578125 115.820312 314.914062 C 113.152344 313.46875 112.128906 310.316406 110.089844 308.121094 C 106.539062 304.289062 100.277344 303.867188 95.179688 305.402344 C 90.082031 306.941406 85.710938 310.042969 81.007812 312.460938 C 61.058594 322.714844 34.28125 319.230469 17.824219 304.238281 C 15.023438 298.660156 12.601562 293.472656 10.574219 288.605469 C 7.816406 281.980469 5.765625 275.9375 4.4375 270.261719 C 0.597656 253.882812 2.738281 240.582031 10.972656 225.324219 C 16.441406 215.203125 6.242188 200.265625 16.136719 194.203125 C 29.78125 185.839844 46.875 204.007812 62.78125 200.878906 C 78.523438 197.777344 83.949219 175.925781 99.738281 173.042969 C 107.917969 171.546875 116.335938 176.109375 121.308594 182.535156 Z M 121.308594 182.535156 " fill-opacity="1" fill-rule="nonzero"/><path fill="#732719" d="M 353.671875 204.128906 C 366.476562 213.6875 369.992188 229.621094 371.316406 246.644531 C 372.386719 260.476562 372.007812 275.019531 373.984375 287.441406 C 372.195312 288.191406 370.222656 288.59375 368.085938 288.53125 C 359.390625 288.304688 353.683594 280.164062 353.910156 272.828125 C 354.136719 265.492188 358.417969 258.722656 361.585938 251.859375 C 364.757812 245 366.777344 236.996094 362.675781 230.558594 C 358.574219 224.125 346.035156 221.78125 341.261719 227.957031 C 339.820312 229.816406 339.273438 232.144531 337.464844 233.757812 C 333.984375 236.875 327.8125 235.816406 323.4375 233.726562 C 319.066406 231.632812 314.894531 228.664062 309.839844 228.5625 C 304.792969 228.464844 305.222656 233.046875 302.929688 236.863281 C 299.550781 242.476562 287.933594 235.945312 281.164062 233.414062 C 274.394531 230.878906 268.488281 225.839844 267.691406 219.617188 C 267.066406 214.714844 267.191406 207.234375 261.347656 207.652344 C 258.589844 207.847656 256.8125 210.113281 254.738281 211.667969 C 253.820312 212.359375 252.824219 212.898438 251.773438 213.300781 C 253.351562 207.261719 256.355469 201.199219 262.703125 198.351562 C 268.183594 195.894531 283.878906 204.910156 290.101562 205.511719 C 314.304688 207.878906 335.335938 190.433594 353.671875 204.128906 Z M 353.671875 204.128906 " fill-opacity="1" fill-rule="nonzero"/><path fill="#732719" d="M 121.308594 182.535156 C 123.007812 187.214844 123.527344 192.109375 122.085938 196.796875 C 119.515625 205.183594 108.847656 211.785156 99.507812 208.710938 C 95.347656 207.34375 91.1875 204.265625 87.054688 205.617188 C 82.597656 207.070312 82.164062 212.296875 80.28125 216.128906 C 76.222656 224.378906 63.378906 226.753906 53.71875 223.539062 C 44.050781 220.328125 36.878906 213.160156 30.128906 206.265625 C 17.761719 222.265625 40.125 247.316406 26.707031 262.648438 C 21.519531 268.578125 13.253906 270.363281 4.429688 270.261719 C 0.589844 253.882812 2.730469 240.582031 10.964844 225.324219 C 16.433594 215.203125 6.234375 200.265625 16.128906 194.203125 C 29.773438 185.839844 46.867188 204.007812 62.773438 200.878906 C 78.515625 197.777344 83.941406 175.925781 99.730469 173.042969 C 107.917969 171.546875 116.335938 176.109375 121.308594 182.535156 Z M 121.308594 182.535156 " fill-opacity="1" fill-rule="nonzero"/><path fill="#732719" d="M 234.898438 187.644531 C 247.441406 192.214844 256.945312 192.890625 253.394531 205.039062 C 252.796875 207.078125 251.648438 210.050781 250.453125 213.277344 C 249.664062 213.050781 248.890625 212.746094 248.136719 212.363281 C 244.496094 210.507812 241.121094 206.964844 237.09375 207.800781 C 232.746094 208.699219 231.539062 213.816406 229.207031 217.371094 C 224.183594 225.042969 211.941406 225.835938 203.496094 221.492188 C 195.046875 217.152344 189.507812 209.207031 184.332031 201.574219 C 170.429688 215.894531 187.277344 243.359375 172.507812 256.894531 C 164.949219 263.828125 153.503906 262.929688 142.800781 260.082031 C 144.296875 255.011719 144.5 250.253906 140.699219 246.53125 C 137.828125 243.71875 132.949219 233.007812 133.242188 229.128906 C 133.566406 224.808594 131.445312 203.601562 141.3125 197.359375 C 168.320312 180.28125 204.390625 176.53125 234.898438 187.644531 Z M 234.898438 187.644531 " fill-opacity="1" fill-rule="nonzero"/><path fill="#732719" d="M 494.886719 217.988281 C 508.414062 224.875 518.890625 227.535156 513.953125 237.949219 C 511.691406 242.714844 504.285156 252.949219 504.351562 258.351562 C 504.398438 262.617188 504.59375 266.882812 504.816406 271.089844 C 501.855469 269.460938 499.339844 266.984375 497.878906 264.382812 C 495.308594 259.792969 495.238281 254.914062 495.222656 250.222656 C 492.726562 250.316406 490.234375 250.414062 487.738281 250.507812 C 480.566406 239.679688 473.398438 228.851562 466.230469 218.027344 C 460.597656 214.277344 453.914062 219.476562 453.503906 224.75 C 453.097656 230.023438 455.0625 236.277344 451.0625 240.003906 C 444.648438 245.992188 429.933594 239.851562 420.851562 243.222656 C 415.75 245.113281 413.410156 249.65625 411.707031 254.03125 C 410.007812 258.402344 408.46875 263.105469 404.214844 265.9375 C 399.960938 268.765625 391.90625 268.636719 388.113281 264.34375 C 387.871094 264.070312 387.628906 263.792969 387.394531 263.519531 C 388.941406 259.640625 389.066406 255.773438 385.574219 251.988281 C 382.625 248.785156 378.105469 237.886719 378.75 234.382812 C 379.46875 230.476562 378.875 210.515625 390.332031 206.890625 C 421.6875 196.957031 461.988281 201.234375 494.886719 217.988281 Z M 494.886719 217.988281 " fill-opacity="1" fill-rule="nonzero"/><path fill="#9c592a" d="M 50.800781 296.824219 C 50.574219 297.621094 49.824219 297.238281 50.480469 299.921875 C 49.574219 298.136719 49.042969 296.003906 48.332031 295.535156 C 46.453125 294.15625 43.171875 289.691406 43.683594 293.816406 C 43.3125 292.152344 44.140625 292.230469 42.832031 288.867188 C 41.324219 286.203125 39.933594 284.078125 38.613281 282.714844 C 39.566406 283.359375 37.089844 279.09375 36.78125 278.171875 C 33.398438 272.109375 31.773438 272.78125 29.082031 268.25 C 30.269531 269.046875 34.046875 274.789062 33.328125 271.351562 C 31.585938 266.519531 28.757812 262.484375 27.148438 259.152344 C 27 258.707031 28.148438 260.667969 28.5625 261.171875 C 27.128906 257.25 27.105469 254.414062 24.179688 249.714844 C 22.90625 244.253906 25.601562 243.832031 27.097656 242.601562 C 29.949219 246.527344 33.265625 251.835938 36.269531 256.203125 C 36.144531 255.648438 36.046875 254.992188 35.742188 254.082031 C 38.808594 261.21875 43.855469 270.402344 46.101562 273.425781 C 48.046875 277.578125 45.09375 272.988281 46.980469 277.328125 C 47.695312 279.820312 49.410156 282.742188 50.632812 285.457031 C 51.703125 290.664062 52.507812 293.804688 54.210938 299.808594 C 50.949219 292.300781 52.980469 301.121094 50.800781 296.824219 Z M 50.800781 296.824219 " fill-opacity="1" fill-rule="nonzero"/><path fill="#9c592a" d="M 104.347656 297.085938 C 104.292969 298.25 103.394531 297.53125 104.75 301.726562 C 103.335938 298.851562 102.25 295.523438 101.371094 294.683594 C 99 292.253906 94.375 284.882812 95.921875 291.238281 C 95.121094 288.652344 96.035156 288.914062 93.8125 283.578125 C 91.535156 279.261719 89.515625 275.78125 87.765625 273.472656 C 88.953125 274.625 85.246094 267.703125 84.695312 266.253906 C 79.570312 256.4375 77.96875 257.164062 73.972656 249.808594 C 75.453125 251.230469 80.917969 260.621094 79.316406 255.28125 C 76.269531 247.632812 72.238281 241.003906 69.695312 235.652344 C 69.425781 234.949219 71.140625 238.128906 71.710938 238.96875 C 69.214844 232.765625 68.507812 228.449219 64.207031 220.789062 C 61.515625 212.269531 64.335938 212.121094 65.664062 210.511719 C 69.695312 216.984375 74.558594 225.640625 78.863281 232.8125 C 78.59375 231.945312 78.332031 230.9375 77.78125 229.496094 C 82.820312 240.882812 90.492188 255.730469 93.648438 260.722656 C 96.753906 267.371094 92.453125 259.878906 95.535156 266.804688 C 96.910156 270.722656 99.46875 275.464844 101.441406 279.800781 C 103.851562 287.902344 105.476562 292.8125 108.761719 302.230469 C 103.421875 290.242188 107.742188 303.996094 104.347656 297.085938 Z M 104.347656 297.085938 " fill-opacity="1" fill-rule="nonzero"/><path fill="#9c592a" d="M 305.257812 307.183594 C 305.199219 308.347656 304.300781 307.632812 305.65625 311.828125 C 304.246094 308.953125 303.160156 305.621094 302.273438 304.78125 C 299.90625 302.351562 295.277344 294.984375 296.824219 301.335938 C 296.027344 298.75 296.941406 299.011719 294.714844 293.675781 C 292.441406 289.363281 290.417969 285.878906 288.664062 283.574219 C 289.851562 284.722656 286.144531 277.804688 285.589844 276.351562 C 280.464844 266.535156 278.867188 267.265625 274.863281 259.90625 C 276.34375 261.332031 281.808594 270.722656 280.207031 265.378906 C 277.164062 257.730469 273.128906 251.105469 270.582031 245.75 C 270.3125 245.046875 272.027344 248.230469 272.597656 249.066406 C 270.097656 242.863281 269.394531 238.550781 265.09375 230.890625 C 262.402344 222.367188 265.226562 222.21875 266.550781 220.613281 C 270.582031 227.085938 275.445312 235.742188 279.753906 242.914062 C 279.488281 242.042969 279.222656 241.039062 278.671875 239.59375 C 283.710938 250.980469 291.386719 265.828125 294.546875 270.820312 C 297.652344 277.472656 293.347656 269.976562 296.429688 276.902344 C 297.808594 280.820312 300.367188 285.5625 302.339844 289.902344 C 304.75 298 306.375 302.910156 309.664062 312.328125 C 304.332031 300.339844 308.652344 314.097656 305.257812 307.183594 Z M 305.257812 307.183594 " fill-opacity="1" fill-rule="nonzero"/><path fill="#9c592a" d="M 346.375 299.984375 C 346.226562 300.945312 345.40625 300.410156 346.382812 303.78125 C 345.246094 301.5 344.460938 298.824219 343.675781 298.1875 C 341.574219 296.328125 337.675781 290.542969 338.664062 295.683594 C 338.097656 293.601562 338.960938 293.761719 337.234375 289.5 C 335.375 286.085938 333.703125 283.34375 332.183594 281.550781 C 333.246094 282.425781 330.210938 276.953125 329.789062 275.792969 C 325.609375 268.019531 323.996094 268.71875 320.710938 262.902344 C 322.035156 263.984375 326.578125 271.382812 325.457031 267.082031 C 323.121094 260.96875 319.75 255.753906 317.710938 251.503906 C 317.511719 250.9375 318.917969 253.460938 319.402344 254.113281 C 317.484375 249.15625 317.152344 245.648438 313.59375 239.597656 C 311.679688 232.742188 314.429688 232.445312 315.847656 231.042969 C 319.238281 236.132812 323.257812 242.960938 326.855469 248.609375 C 326.667969 247.910156 326.496094 247.09375 326.078125 245.941406 C 330.042969 255.015625 336.289062 266.777344 338.949219 270.699219 C 341.421875 275.984375 337.855469 270.078125 340.28125 275.589844 C 341.296875 278.734375 343.402344 282.484375 344.964844 285.9375 C 346.640625 292.460938 347.824219 296.40625 350.246094 303.964844 C 346.035156 294.402344 349.105469 305.46875 346.375 299.984375 Z M 346.375 299.984375 " fill-opacity="1" fill-rule="nonzero"/><path fill="#9c592a" d="M 432.859375 311.867188 C 432.464844 312.664062 431.773438 311.945312 431.910156 315.203125 C 431.332031 312.855469 431.210938 310.265625 430.574219 309.460938 C 428.90625 307.183594 426.410156 300.910156 426.113281 305.714844 C 426.0625 303.71875 426.902344 304.128906 426.222656 299.859375 C 425.199219 296.289062 424.1875 293.371094 423.097656 291.332031 C 423.953125 292.425781 422.253906 286.695312 422.121094 285.546875 C 419.835938 277.445312 418.023438 277.554688 416.152344 271.445312 C 417.21875 272.804688 419.96875 280.695312 419.914062 276.578125 C 419.085938 270.496094 416.972656 264.882812 415.976562 260.527344 C 415.914062 259.972656 416.707031 262.613281 417.035156 263.335938 C 416.339844 258.398438 416.886719 255.21875 414.800781 248.820312 C 414.582031 242.222656 417.453125 242.8125 419.242188 242.023438 C 421.402344 247.527344 423.765625 254.757812 425.988281 260.816406 C 425.972656 260.144531 426.007812 259.378906 425.871094 258.238281 C 427.609375 267.410156 430.984375 279.648438 432.699219 283.90625 C 433.878906 289.304688 431.746094 283.019531 432.820312 288.605469 C 433.058594 291.671875 434.246094 295.609375 434.960938 299.121094 C 435.023438 305.359375 435.226562 309.179688 435.78125 316.550781 C 433.921875 306.875 434.25 317.523438 432.859375 311.867188 Z M 432.859375 311.867188 " fill-opacity="1" fill-rule="nonzero"/><path fill="#9c592a" d="M 468.519531 306.46875 C 468.15625 307.425781 467.433594 306.5625 467.710938 310.476562 C 467.035156 307.652344 466.800781 304.535156 466.125 303.574219 C 464.359375 300.835938 461.585938 293.289062 461.503906 299.074219 C 461.371094 296.667969 462.226562 297.164062 461.363281 292.03125 C 460.179688 287.742188 459.042969 284.226562 457.863281 281.777344 C 458.765625 283.089844 456.820312 276.195312 456.636719 274.816406 C 454 265.078125 452.1875 265.210938 450.054688 257.863281 C 451.179688 259.496094 454.273438 268.984375 454.039062 264.03125 C 452.945312 256.71875 450.589844 249.96875 449.402344 244.734375 C 449.3125 244.0625 450.222656 247.242188 450.582031 248.109375 C 449.671875 242.171875 450.078125 238.347656 447.714844 230.65625 C 447.207031 222.71875 450.101562 223.425781 451.859375 222.472656 C 454.257812 229.085938 456.929688 237.785156 459.425781 245.066406 C 459.378906 244.261719 459.378906 243.335938 459.195312 241.964844 C 461.332031 253 465.242188 267.714844 467.136719 272.835938 C 468.550781 279.328125 466.140625 271.773438 467.460938 278.488281 C 467.835938 282.179688 469.195312 286.910156 470.0625 291.132812 C 470.390625 298.636719 470.761719 303.230469 471.636719 312.097656 C 469.363281 300.460938 470.15625 313.265625 468.519531 306.46875 Z M 468.519531 306.46875 " fill-opacity="1" fill-rule="nonzero"/><path fill="#9c592a" d="M 186.253906 308.734375 C 186.023438 309.878906 185.300781 309.0625 185.910156 313.371094 C 185.046875 310.363281 184.550781 306.9375 183.867188 306 C 182.046875 303.308594 178.898438 295.46875 179.351562 301.9375 C 179.011719 299.285156 179.8125 299.65625 178.574219 294.113281 C 177.136719 289.570312 175.800781 285.886719 174.53125 283.394531 C 175.453125 284.679688 173.089844 277.390625 172.800781 275.890625 C 169.566406 265.570312 167.976562 266.097656 165.40625 258.339844 C 166.554688 259.925781 170.171875 269.871094 169.511719 264.394531 C 167.867188 256.464844 165.152344 249.425781 163.625 243.828125 C 163.484375 243.101562 164.582031 246.457031 164.980469 247.351562 C 163.628906 240.917969 163.636719 236.570312 160.832031 228.480469 C 159.648438 219.734375 162.28125 219.925781 163.753906 218.5 C 166.492188 225.382812 169.660156 234.527344 172.546875 242.136719 C 172.429688 241.246094 172.34375 240.214844 172.054688 238.726562 C 174.96875 250.589844 179.789062 266.191406 181.941406 271.507812 C 183.792969 278.457031 180.960938 270.527344 182.75 277.746094 C 183.421875 281.785156 185.0625 286.78125 186.222656 291.308594 C 187.207031 299.605469 187.957031 304.65625 189.554688 314.359375 C 186.453125 301.859375 188.332031 315.976562 186.253906 308.734375 Z M 186.253906 308.734375 " fill-opacity="1" fill-rule="nonzero"/><path fill="#9c592a" d="M 211.222656 282.777344 C 210.996094 283.476562 210.484375 283.011719 210.75 285.585938 C 210.230469 283.808594 210.003906 281.757812 209.519531 281.21875 C 208.253906 279.671875 206.203125 275.066406 206.261719 278.945312 C 206.125 277.359375 206.714844 277.550781 206.019531 274.257812 C 205.125 271.578125 204.273438 269.40625 203.417969 267.953125 C 204.0625 268.691406 202.585938 264.390625 202.433594 263.496094 C 200.429688 257.398438 199.191406 257.78125 197.578125 253.203125 C 198.386719 254.117188 200.699219 259.972656 200.4375 256.695312 C 199.542969 251.980469 197.789062 247.839844 196.867188 244.523438 C 196.792969 244.09375 197.480469 246.070312 197.746094 246.597656 C 197 242.769531 197.203125 240.148438 195.425781 235.378906 C 194.914062 230.152344 196.914062 230.164062 198.097656 229.246094 C 199.875 233.292969 201.886719 238.679688 203.742188 243.160156 C 203.691406 242.628906 203.675781 242.007812 203.519531 241.125 C 205.210938 248.164062 208.1875 257.382812 209.589844 260.503906 C 210.695312 264.621094 208.886719 259.953125 209.929688 264.234375 C 210.261719 266.644531 211.285156 269.589844 211.96875 272.277344 C 212.347656 277.238281 212.695312 280.257812 213.472656 286.042969 C 211.679688 278.625 212.488281 287.0625 211.222656 282.777344 Z M 211.222656 282.777344 " fill-opacity="1" fill-rule="nonzero"/></svg>