<svg width="829" height="1207" viewBox="0 0 829 1207" fill="none" xmlns="http://www.w3.org/2000/svg">
<path fill-rule="evenodd" clip-rule="evenodd" d="M526.847 1191.81C445.696 1192.04 397.091 1191.09 305.299 1189.76C199.059 1186.95 170.426 1192 110.908 1180.32C101.808 1178.38 94.8855 1175.45 87.8635 1171.37C85.3465 1174.22 81.0795 1178.45 77.0275 1175.65C69.5635 1170.71 72.9855 1153.48 71.1345 1143.75C68.0705 1058.07 63.1695 969.826 79.9235 885.179C69.7665 881.877 10.2505 857.394 7.00049 849.192C60.8215 708.461 178.887 543.776 334.227 549.978C337.351 553.83 340.129 559.531 343.596 563.453C364.716 555.545 394.033 547.619 395.48 517.17C399.137 496.849 401.772 477.876 403.533 459.2C403.852 457.064 406.414 456.33 407.988 455.42C408.657 450.591 410.193 445.655 413.527 442.344C440.751 439.898 502.896 451.125 519.204 455.751C541.452 459.558 539.138 483.434 543.282 501.534C549.852 523.909 554.426 547.131 564.19 568.991C566.399 569.295 572.586 570.372 574.867 570.771C574.986 568.294 573.824 560.942 576.095 559.442C580.304 555.212 581.276 563.258 582.211 565.882C674.143 548.522 734.259 626.533 754.404 713.673C768.993 757.496 788.326 801.846 813.563 849.41C829.389 878.942 783.922 884.429 764.862 896.215C784.53 972.741 786.897 1050.68 790.125 1127.81C790.977 1139.67 792.135 1155.8 787.932 1161.71C785.938 1163.26 784.553 1163.21 782.531 1163.33C778.63 1167.54 771.938 1167.26 766.305 1168.46C748.497 1171.7 730.247 1173.86 713.102 1174.19C664.978 1203.97 590.786 1187.32 526.847 1191.81" fill="#EDB98A"/>
<rect x="245" y="671" width="438" height="288" fill="white"/>
<path fill-rule="evenodd" clip-rule="evenodd" d="M396.838 459.143C399.366 446.488 420.254 449.42 419.305 462.183C408.761 509.683 415.18 567.506 348.533 562.831C390.84 637.247 521.484 682.507 563.712 584.806C542.904 582.323 538.787 533.134 536.274 515.923L536.171 514.384C535.614 505.533 535.8 497.329 541.122 489.759C546.432 493.734 548.566 500.933 550.364 507.498L551.681 512.756C556.083 530.277 560.689 547.72 567.673 564.443L567.92 564.483V564.483C567.571 553.141 582.132 547.956 585.741 560.106C684.26 546.539 738.152 627.838 759.415 712.864C774.923 759.407 795.141 804.185 818.107 847.467C835.439 881.286 793.35 889.027 771.087 900.279C788.21 968.88 791.571 1039.95 794.745 1110.31C793.692 1125.33 800.481 1156.13 791.414 1166.9C777.987 1177.4 770.753 1159.4 772.82 1147.85C774.748 1066.21 766.246 984.926 763.804 903.413C746.995 910.514 729.981 917.057 712.777 923.135C713.653 999.626 722.748 1076.12 725.992 1152.22C730.248 1155.57 732.599 1161.38 728.965 1166.45C709.501 1193.59 674.312 1197.65 643.35 1198.04C569.667 1198.96 495.907 1198.68 422.219 1198.46C349.837 1196.82 276.825 1201.45 204.825 1193.16C190.715 1203.75 187.829 1180.91 189.719 1171.16L190.437 1151.65C190.92 1138.63 191.431 1125.62 192.089 1112.62L193.73 1080.91C196.477 1028.07 199.388 975.251 204.006 922.512C162.182 916.794 120.959 906.644 81.0504 892.947C84.3354 984.502 77.5964 1077.04 88.8334 1168.13C96.2484 1178.19 81.3774 1187.64 72.6964 1181.33C61.9304 1173.12 66.5474 1157.06 64.3974 1145.25L64.1215 1137.61C61.1081 1055.21 56.9914 971.084 72.3494 889.821L65.7432 887.257C45.6057 879.396 -6.18186 858.372 0.609364 847.999C54.6744 706.335 175.615 536.895 335.792 544.947C339.85 547.763 341.922 553.249 344.932 557.181L349.697 555.451C368.152 548.696 388.195 540.131 388.741 517.416C392.235 498.06 395.006 478.7 396.838 459.143ZM660.805 812.247C683.75 780.155 524.612 830.875 513.297 834.223L509.037 835.775C439.336 861.113 364.196 885.615 308.618 936.122C307.45 937.401 308.904 939.168 310.415 938.451L310.609 938.336C312.82 937.106 322.394 933.688 315.611 934.983C395.916 884.341 489.213 856.522 580.376 832.191C593.624 828.988 606.935 826.043 620.298 823.362C633.778 820.086 648.989 820.122 660.805 812.247ZM409.339 801.802C411.302 793.802 424.49 720.283 402.586 740.452C396.746 751.031 394.504 763.289 393.453 775.201C390.628 789.089 397.758 804.056 390.825 816.859C384.618 833.581 361.805 853.116 360.281 822.048C397.605 820.773 386.4 773.481 360.989 788.102C347.075 800.011 344.667 822.436 351.633 838.865C340.384 826.621 322.144 826.58 309.124 817.34C285.611 791.924 325.104 765.475 346.609 756.321C347.82 754.988 365.45 748.844 361.714 748.101C344.832 748.257 327.914 751.849 313.345 760.728C283.191 775.439 272.928 820.986 307.422 836.948C314.881 840.542 323.044 842.474 330.429 846.185C349.039 855.831 343.026 867.954 323.814 868.31C315.912 870.036 289.835 862.803 292.755 876.652C297.472 885.31 307.744 886.6 316.743 886.842C340.795 888.491 370.703 874.905 357.11 846.612C373.518 860.59 394.007 841.048 401.039 825.861C409.608 842.664 431.148 837.604 443.304 827.661C461.878 842.288 485.184 826.03 493.458 807.872C493.627 811.65 493.796 815.427 493.979 819.205C494.353 826.948 506.353 829.434 508.127 821.12C510.825 808.48 514.545 795.981 519.662 784.1C531.434 752.867 538.632 766.95 539.042 791.425C540.492 800.614 545.094 808.848 555.251 809.467C558.082 809.64 561.775 807.122 562.217 804.164L562.802 800.25C564.039 792.049 565.473 783.605 568.569 775.9C571.552 801.406 604.956 801.283 614.269 780.134C633.592 791.729 653.867 775.53 662.875 758.775L663.144 758.268C666.292 752.538 658.293 745.608 653.72 750.997L652.133 752.649C643.509 761.575 629.788 774.518 618.447 763.495C618.824 758.524 618.672 753.446 618.366 748.556C617.999 742.724 609.949 737.536 605.372 742.751C598.921 737.27 590.907 738.059 584.159 741.883C566.679 746.822 555.668 763.838 551.876 780.75C551.473 767.237 547.052 752.576 532.207 751.305C516.998 751.176 511.176 768.179 505.989 779.622C505.688 774.497 505.398 769.373 505.137 764.247C504.69 755.428 492.456 755.52 491.454 763.986L491.427 764.248C489.5 782.545 479.365 826.375 453.791 817.798C464.575 805.919 484.082 769.721 465.537 758.446C436.996 751.263 422.356 796.284 434.528 817.235L433.897 817.678C426.943 822.474 415.452 827.814 411.57 817.063L411.13 816.071C409.137 811.525 407.377 806.601 409.339 801.802ZM368.512 796.727C373.916 793.573 375.839 804.019 374.46 807.525C372.25 813.149 366.222 816.282 360.214 818.426L360.234 817.79C360.5 811.368 362.642 800.159 368.512 796.727ZM459.477 770.652C459.599 771.405 459.4 772.324 459.375 773.023C458.451 785.336 452.973 797.159 445.354 806.768C440.968 793.713 446.621 776.461 459.477 770.652ZM589.399 755.253C592.901 754.33 596.613 754.589 600.223 755.565C599.961 759.669 600.852 763.774 602.639 767.541C593.32 795.527 571.412 773.984 589.399 755.253Z" fill="black"/>
<path fill-rule="evenodd" clip-rule="evenodd" d="M643.868 144.463C641.647 138.858 637.719 131.813 631.154 131.532C626.076 116.007 613.45 100.196 595.888 100.616C544.34 47.9022 479.444 50.3872 411.594 61.5462C375.798 68.1852 339.451 81.1852 312.753 106.839C280.777 137.041 268.326 189.74 293.366 227.931C271.725 239.528 271.305 267.048 280.56 286.907C269.435 294.6 268.759 313.272 281.286 319.14C280.62 321.868 281.091 324.688 282.361 327.112C276.15 332.282 268.066 336.101 261.383 339.384C258.429 340.835 256.725 343.205 256.017 345.876C234.073 360.272 179.355 395.454 180.007 423.455C179.685 438.063 190.521 447.677 203.689 451.505C195.854 467.168 189.907 485.463 197.407 502.359C199.48 507.464 215.012 522.467 215.794 522.744C217.161 523.916 239.444 513.686 250.274 508.468C252.374 522.128 266.981 529.285 279.572 524.604C291.511 521.005 298.85 510.898 306.38 501.704C316.375 523.507 345.782 523.758 364.788 514.358C381.857 506.473 394.832 492.021 402.06 474.606C440.442 493.395 485.348 498.872 527.048 491.367C529.724 496.103 535.648 499.284 540.925 497.452C563.099 490.786 587.616 490.412 606.412 475.139C645.591 447.018 648.89 395.174 646.158 350.981C643.735 306.918 645.856 262.488 637.846 218.901C641.322 206.068 647.104 194.723 652.454 182.667C658.266 170.025 658.144 151.232 643.868 144.463Z" fill="#EDB98A"/>
<path fill-rule="evenodd" clip-rule="evenodd" d="M466 57L467.523 57.006C470.041 57.0226 472.554 57.0723 475.062 57.155C488.311 57.591 502.129 59.3099 517.688 62.2521L520.053 62.7066C523.923 63.4642 527.39 64.2244 532.919 65.5159L543.892 68.1019C549.479 69.4037 553.591 70.3045 557.385 71.0291L557.882 71.123C557.882 71.123 587.124 85.1388 596.568 94.3598L597.51 95.2871L597.911 95.688L602.017 95.8176L602.057 96.336L602.092 96.3413C606.169 96.9755 609.857 99.087 613.286 102.374L613.653 102.731L614.005 103.084C616.678 105.802 618.808 108.698 621.744 113.288L622.41 114.337L623.603 116.23L624.57 117.751C625.198 118.745 625.801 119.729 626.381 120.704L626.952 121.676L627.363 122.39L637.965 128.574C639.492 129.465 640.882 130.618 642.154 131.999L642.498 132.381L642.836 132.775L645.724 136.212L645.142 136.818L645.424 137.188L645.928 137.879L646.42 138.579L646.899 139.289L647.105 139.6L647.417 140.273L647.568 140.609L647.689 140.886L648.051 141.072L648.787 142.401C652.609 149.297 654.668 157.128 654.807 165.175C654.903 170.726 654.218 175.767 652.593 180.63C651.468 183.992 649.96 186.634 647.354 190.272L645.295 193.097L644.874 193.68L644.371 194.389C644.292 194.503 644.214 194.615 644.137 194.726C640.788 199.576 612.166 208.757 594.574 209.201L594.044 209.212L593.368 209.218C591.689 209.225 590.067 209.165 588.503 209.035C581.736 208.469 575.409 207.045 568.059 204.716L566.534 204.223L558.435 201.503C558.177 201.417 557.969 201.349 557.825 201.303L557.086 201.072C555.303 200.525 554.006 200.211 553.123 200.097L552.943 200.075L552.925 200.41L552.918 200.726L552.919 200.982C552.971 204.71 550.708 207.427 547.196 209.158C544.96 210.261 542.08 211.048 538.463 211.639L537.886 211.731C531.975 212.644 524.926 213.034 513.134 213.301C512.684 213.312 512.232 213.306 511.775 213.285C509.243 213.169 507.253 212.738 503.554 211.676L501.805 211.174L500.858 210.912C499.098 210.437 498.118 210.247 497.193 210.195L496.924 210.184L496.656 210.179C495.545 210.178 494.742 210.425 493.951 211.028L493.547 211.352L488.111 215.906C487.403 216.495 486.768 217.018 486.303 217.389L486.114 217.538C478.652 223.388 471.538 226.73 463.156 227.048L462.595 227.065L462.011 227.072C461.585 227.072 461.158 227.065 460.73 227.048C457.2 226.914 453.537 225.606 448.534 223.083L447.497 222.553L446.771 222.174C446.401 221.979 446.014 221.774 445.595 221.55L441.863 219.553L439.956 218.556C437.677 217.385 436.406 216.819 435.551 216.586L435.411 216.549L435.331 216.626C433.352 218.559 431.653 220.991 429.825 224.349L429.55 224.86L429.15 225.62L426.554 230.789L426.063 231.75C424.136 235.481 422.611 237.865 420.616 239.957C417.721 242.993 414.214 244.754 409.917 245.037L409.485 245.06L408.973 245.073C406.949 245.093 404.805 244.782 402.48 244.136L401.94 243.981L401.414 243.82C397.95 242.726 392.475 243.407 388.127 245.715C383.404 248.222 380.803 252.046 380.918 256.934C380.976 259.361 381.255 261.964 381.746 264.785L381.885 265.56C382.53 269.047 383.404 272.546 384.75 277.213L387.644 286.976L387.97 288.115L388.298 289.288C388.768 290.995 389.143 292.482 389.452 293.883C390.633 299.238 390.83 303.259 389.646 306.685C384.425 321.791 375.366 329.816 365.053 330.155L364.697 330.163L364.256 330.164C356.334 330.078 349.155 324.916 349.242 318.228C349.251 317.528 349.383 316.875 349.616 316.285L349.721 316.035L349.772 315.929L349.69 315.729C347.255 309.9 341.624 305.645 335.012 304.811L334.636 304.767L334.266 304.732C333.903 304.7 333.54 304.679 333.197 304.667L332.861 304.658L332.459 304.655C323.646 304.668 314.926 310.535 308.066 320.131C306.636 322.133 305.308 324.317 304.115 326.626L303.723 327.4L301.815 331.302L300.527 335.076C293.428 355.854 297.023 377.598 310.877 388.839L311.3 389.177C316.292 393.091 322.162 395.47 328.43 396.11C329.151 396.184 329.877 396.231 330.575 396.249L331.093 396.258L331.688 396.256C333.731 396.23 335.684 395.976 337.438 395.502C338.869 395.116 339.865 394.647 340.558 394.049C340.741 393.892 340.887 393.75 341.014 393.608L341.12 393.481L341.16 393.427L350.629 394.831C352.24 405.055 356.893 415.649 364.462 427.798L364.939 428.559L365.771 429.869L366.617 431.181C375.523 444.879 385.456 456.413 396.374 465.265L397.137 465.878L398.16 466.689L399.099 467.425C400.924 468.841 402.444 469.943 403.965 470.926L404.346 471.17L407.936 473.445L406.269 477.355C402.38 486.477 397.013 494.77 390.399 501.831L389.775 502.49L385.177 507.231L381.641 502.729C381.614 502.695 381.535 502.652 381.441 502.634L381.376 502.627H381.34L381.292 502.632L381.235 502.647L381.178 502.673C378.531 504.108 377.077 505.205 374.988 507.352L374.685 507.666L374.332 508.038L373.846 508.544C371.676 510.768 369.357 512.661 366.829 514.238C360.99 517.876 354.51 519.898 347.799 520.081L347.169 520.092L346.535 520.093C346.308 520.091 346.08 520.087 345.852 520.08C331.85 519.692 319.304 510.723 313.137 497.576C312.892 497.053 312.667 496.883 312.252 496.849L312.134 496.843L311.986 496.841C310.957 496.847 309.697 497.46 308.994 498.282L308.869 498.439L306.509 501.61L305.604 502.807C297.184 513.861 290.271 519.907 280.986 521.743C280.255 521.888 279.481 521.976 278.66 522.013L278.162 522.033H277.87C273.877 522.044 269.275 520.887 265.688 518.849C260.944 516.155 258.011 512.01 258.382 506.875L258.41 506.546L258.476 505.997C258.786 503.255 256.591 501.765 254.912 503.111L254.798 503.207L254.659 503.333C247.742 509.82 239.785 514.798 231.215 517.87L230.457 518.137L229.331 518.521C223.926 520.344 220.115 521.249 216.102 521.319C212.629 521.379 209.742 520.127 207.653 517.718C206.26 516.112 205.409 514.327 204.559 511.722L204.417 511.281L204.107 510.268L203.915 509.609C201.428 500.861 201.374 491.506 203.326 481.184C204.785 473.475 207.106 466.026 211.009 455.587L211.767 453.574L213.331 449.468C213.488 449.056 212.549 447.618 211.968 447.456L211.899 447.444L211.369 447.501C210.997 447.536 210.622 447.56 210.238 447.575L209.654 447.59H209.27C196.591 447.46 186.906 435.026 186.996 421.855C187.094 409.516 193.299 398.907 205.146 386.314L206.175 385.23L207.289 384.076L208.389 382.95C218.917 372.231 229.679 362.874 240.886 354.85L241.814 354.188L242.848 353.459C246.622 350.811 250.291 348.411 255.369 345.255L258.358 343.409L270.473 329.113C270.764 328.948 271.051 328.784 271.333 328.62L271.487 323.66L283.159 323.901C280.197 322.381 277.743 320.537 275.75 318.175C269.125 310.319 269.956 299.405 278.012 294.042L278.296 293.858L281.692 291.761L284.471 294.199C286.891 296.322 289.458 297.73 292.135 298.38L292.559 298.476L294.654 298.92L295.061 299.58L295.297 299.238C295.296 299.204 295.289 299.17 295.278 299.137L295.257 299.089L295.213 299.02L294.949 298.696L294.658 298.348C293.726 297.252 292.68 296.189 290.78 294.36L289.448 293.079L288.41 292.07C285.688 289.396 284.238 287.74 282.697 285.44C278.861 279.717 276.695 273.265 276.605 266.711C276.416 253.084 284.892 240.2 297.453 234.319C297.893 234.113 298.217 232.65 297.69 231.682C285.528 209.368 282.153 182.619 288.262 157.737C293.963 134.522 308.144 114.03 328.448 98.3337C363.302 71.3854 411.652 57.489 462.952 57.0104L464.507 57H466Z" fill="#ECDCBF"/>
<path fill-rule="evenodd" clip-rule="evenodd" d="M279.61 331.496C281.919 330.916 283.159 334.019 281.199 335.266C268.755 343.181 255.9 350.25 243.879 358.862C232.445 367.049 221.885 376.374 212.037 386.401L210.946 387.518C202.043 396.677 192.183 408.329 192.083 421.84C192.006 432.342 200.103 443.805 211.4 442.425C215.656 441.905 219.568 447.305 218.083 451.198L216.52 455.301C210.234 471.906 203.839 490.72 208.804 508.189L208.987 508.813C210.188 512.813 211.454 516.348 216.097 516.268C220.406 516.192 224.89 514.739 228.924 513.352C237.295 510.473 244.881 505.672 251.32 499.634C257.015 494.294 264.292 499.719 263.525 506.506L263.498 506.723C262.449 514.339 274.582 517.875 280.098 516.786C290.989 514.632 298.754 503.72 304.939 495.401C307.912 491.404 315.133 489.83 317.745 495.401C322.921 506.436 333.59 514.684 346.071 515.03C352.554 515.209 358.774 513.364 364.265 509.942C366.506 508.544 368.51 506.883 370.348 504.999L370.805 504.524C373.525 501.641 375.402 500.108 378.876 498.225C382.299 496.37 386.727 498.67 386.706 502.717C386.678 507.959 385.142 511.444 381.527 515.246C378.536 518.395 374.982 521.159 371.246 523.368C363.738 527.804 354.812 530.3 346.071 530.011C332.293 529.555 319.142 522.688 310.617 512.008C301.913 522.415 291.116 531.977 277.085 531.72C266.581 531.528 256.792 526.06 252.102 517.588C245.481 522.153 238.214 525.722 230.44 528.053L229.747 528.258C218.743 531.46 206.079 532.733 198.997 521.809C192.347 511.553 191.851 497.35 193.375 485.627C194.736 475.155 197.958 465.21 201.658 455.401C191.126 452.256 182.951 442.363 180.143 431.699C175.895 415.573 184.136 399.934 194.324 387.952C205.391 374.936 219.32 363.927 233.353 354.291C247.349 344.682 263.028 335.652 279.61 331.496ZM639.479 205.364C639.505 204.916 640.239 204.759 640.307 205.251C645.141 240.328 647.94 275.336 650.257 310.655C651.432 328.548 652.766 346.423 654.226 364.294C655.627 381.431 657.959 399.023 657.432 416.23C656.607 443.174 643.523 465.083 622.069 480.849C601.512 495.958 576.01 503.427 550.989 506.583C536.458 508.416 521.725 508.505 507.178 506.783C499.623 505.888 492.077 504.698 484.677 502.91L481.478 502.11C475.65 500.621 469.143 498.601 468.312 491.698C467.909 488.355 469.685 485.889 472.553 484.211C476.292 482.023 480.579 483.312 484.432 484.309C490.925 485.989 497.487 487.43 504.123 488.427C518.376 490.571 533.028 490.699 547.354 489.215C571.452 486.717 596.872 478.901 615.452 462.759C623.527 455.745 630.548 447.198 634.241 437.044C638.989 423.99 638.286 409.749 638.127 396.079C637.758 364.294 638.083 332.508 637.641 300.72C637.197 268.835 637.584 237.201 639.479 205.364ZM397.145 56.8189C425.303 49.5569 453.88 47.6699 482.804 49.8559C510.081 51.9159 541.154 58.0189 563.432 74.7959C564.513 75.6099 563.866 77.1509 562.528 76.9379C547.634 74.5639 533.116 70.2459 518.286 67.3889C504.022 64.6409 489.501 62.5779 474.977 62.0999C425.855 60.4809 371.196 71.6119 331.586 102.237C313.013 116.596 298.839 135.904 293.198 158.877C287.413 182.44 290.543 207.922 302.16 229.237C303.833 232.306 303.143 237.161 299.653 238.795C289.063 243.753 281.52 254.737 281.684 266.59C281.763 272.339 283.745 277.852 286.93 282.604C290.298 287.629 295.425 291.145 299.192 295.838C300.675 297.686 300.732 300.231 299.557 301.933C301.76 302.898 304.136 303.416 306.304 304.556C308.142 305.523 308.194 308.542 306.304 309.494C301.524 311.901 296.356 309.346 293.13 305.465C292.554 304.772 292.056 304.051 291.602 303.315C287.738 302.496 284.276 300.557 281.253 297.905C275.493 301.354 274.704 309.032 279.652 314.899C282.179 317.894 285.77 319.743 289.398 321.072L289.833 321.229C293.364 322.483 296.598 323.183 298.892 326.008C300.405 322.854 302.142 319.881 304.078 317.172C311.117 307.325 321.937 298.589 334.776 299.698C344.833 300.565 353.546 307.765 355.607 317.699C355.759 318.434 354.651 319.008 354.321 318.241C349.496 306.99 334.229 306.577 325.135 312.44C314.44 319.336 308.595 332.331 306.25 344.434C303.942 356.356 305.276 370.856 314.199 379.924C317.85 383.635 322.817 386.201 328.001 386.877C330.536 387.209 332.771 386.882 335.194 386.394L336.8 386.059C337.914 385.829 339.022 385.642 340.19 385.746L341.931 385.98V385.98L342.921 386.443C343.779 386.828 343.701 386.723 342.688 386.125C345.646 385.883 347.175 388.069 347.337 390.466C347.431 390.526 347.522 390.591 347.598 390.684C358.824 404.422 367.159 420.213 379.072 433.501L382.56 437.394C391.525 447.366 401.76 458.178 413.939 463.352L415.388 463.952C418.932 465.448 422.49 467.497 422.941 471.768C423.346 475.594 420.33 478.473 416.853 479.366C408.935 481.397 399.909 474.36 394.11 469.743C381.64 459.818 371.16 447.166 362.505 433.854L361.65 432.528C354.535 421.417 347.848 408.744 345.77 395.557L345.396 396.165C345.368 396.208 345.346 396.24 345.331 396.26C344.907 396.836 344.44 397.322 343.898 397.788C342.442 399.045 340.666 399.779 338.821 400.277C335.358 401.212 331.561 401.396 328.001 401.032C320.77 400.293 314.011 397.541 308.295 393.059C290.891 379.41 288.836 354.012 295.875 333.407C290.099 334.786 283.52 330.899 279.01 327.568C273.838 323.746 269.573 318.229 268.554 311.739C267.542 305.299 271.648 296.771 277.738 294.286C271.419 286.699 267.74 275.932 267.36 267.311C266.7 252.315 274.667 238.141 286.899 229.959C275.396 205.308 273.18 176.709 280.925 150.535C296.294 98.5959 347.778 69.5509 397.145 56.8189ZM353.325 451.442L353.468 450.986C354.694 446.969 356.276 438.979 362.277 442.021C368.01 444.926 364.35 453.525 362.345 457.711C359.946 462.72 355.803 466.736 350.239 467.812C345.713 468.687 340.743 467.563 337.577 464.066C336.654 463.047 336.133 461.929 335.586 460.695C335.373 460.215 335.277 459.886 335.237 459.672C335.185 459.907 335.037 460.257 334.659 460.669C332.133 463.429 329.747 466.642 327.914 469.907C327.48 470.679 326.112 470.138 326.458 469.293C328.593 464.071 328.234 455.996 332.993 452.219C337.187 448.89 341.129 451.51 343.347 455.388L343.461 455.589C346.704 461.477 351.872 455.885 353.325 451.442ZM307.696 432.574L308.134 431.966C312.619 425.836 320.183 418.462 327.752 424.163C330.159 425.976 330.248 429.002 327.752 430.801L326.807 431.476C323.501 433.82 320.208 436.033 317.78 439.395C315.141 443.05 312.771 446.92 309.223 449.787C302.948 454.857 292.807 455.857 287.362 449.022L286.826 448.344C286.37 447.758 285.848 447.051 285.424 446.346L285.093 446.804C285.061 446.85 285.03 446.894 285.003 446.935L284.927 447.051C282.689 450.627 279.862 453.572 276.341 455.896C269.649 460.311 262.108 460.925 254.537 458.588C253.796 458.358 253.995 457.365 254.712 457.299C263.683 456.461 272.424 450.088 276.073 441.881L276.485 440.96C277.961 437.696 279.616 434.593 283.264 433.311C286.815 432.063 290.543 433.381 292.978 436.067C295.014 438.312 295.538 442.775 299.211 441.791C303.233 440.713 305.497 435.676 307.696 432.574ZM282.001 378.051C283.988 376.541 287.1 378.161 287.647 380.349C290.126 390.255 279.83 401.928 269.936 402.235C267.389 402.313 264.939 401.697 262.683 400.518C260.933 399.604 258.862 397.268 256.941 396.881C254.46 396.382 252.262 399.686 250.515 401.382C248.348 403.487 246.204 405.441 243.776 407.235C242.806 407.952 241.301 406.748 241.711 405.647L242.532 403.458C245.505 395.666 250.625 384.292 260.208 387.525C264.903 389.109 268.437 394.451 273.381 390.221C277.34 386.834 277.709 381.312 282.001 378.051ZM324.279 338.172C333.212 327.918 354.211 333.334 358.193 345.809C359.073 348.564 358.155 352.145 356.003 354.095C353.168 356.664 349.124 357.442 345.682 355.427C342.72 353.694 341.504 350.858 339.327 348.425C336.134 344.86 331.791 342.881 327.316 341.463C326.197 342.051 325.156 342.824 324.222 343.756C323.744 344.233 322.841 343.579 323.265 343.017C323.841 342.253 324.545 341.534 325.346 340.871L324.961 340.758V340.758C323.783 340.43 323.528 339.036 324.279 338.172ZM382.337 224.957C384.339 224.96 386.671 226.841 386.415 229.036L386.337 229.645C385.761 233.824 384.418 236.19 380.236 238.132C376.687 239.777 372.959 240.685 369.069 241.045C367.597 241.181 366.039 241.19 364.46 241.073L364.127 242.991C363.466 246.827 362.855 250.666 362.741 254.576C362.527 261.825 365.232 267.799 368.133 274.271C373.702 286.703 374.328 299.113 368.265 311.527C367.378 313.342 364.867 314.822 362.841 314.638C360.214 314.4 358.945 313.64 357.417 311.527C356.133 309.753 356.427 307.245 357.315 305.39L357.417 305.187C360.472 299.268 361.435 292.581 359.875 286.075C358.409 279.96 355.088 274.464 353.605 268.368C351.189 258.437 353.762 248.587 358.79 240.068C354.995 238.975 351.485 237.027 349.143 234.056L349.153 234.052V234.052C348.259 233.097 348.747 231.102 350.316 231.222L352.09 231.366C357.166 231.79 361.838 232.231 366.971 230.816C369.602 230.09 371.873 228.88 374.132 227.414L374.616 227.096C377.442 225.218 379.009 224.953 382.337 224.957ZM394.484 151.565C407.208 150.842 418.071 159.239 423.352 170.417C429.088 182.552 426.681 196.477 421.618 208.416L420.18 211.758C417.662 217.548 414.357 224.433 409.2 227.54C403.408 231.03 398.401 226.983 400.109 220.55C401.127 216.719 403.882 213.764 406.111 210.602C408.191 207.649 410.132 204.593 411.834 201.405C415.168 195.153 417.657 188.187 417.63 181.024C417.583 167.95 408.945 152.967 394.484 153.159C393.451 153.171 393.468 151.622 394.484 151.565ZM458.837 130.469C458.044 129.867 458.753 128.528 459.64 129.093C474.395 138.477 485.412 156.104 487.63 173.421C488.861 183.029 487.921 193.297 483.829 202.164C481.482 207.252 477.454 212.109 471.822 213.504C466.644 214.785 461.307 211.828 459.7 206.774C459.077 204.813 460.149 202.762 461.768 201.691C467.018 198.22 471.245 193.84 473.718 187.948C476.291 181.822 477.317 175.321 477.348 168.713C477.424 153.238 471.248 139.901 458.837 130.469ZM639.077 137.176C638.394 136.419 639.253 135.303 640.157 135.777C650.824 141.387 657.602 152.133 659.544 163.902C661.447 175.424 658.887 191.11 649.968 199.443C644.935 204.147 635.919 197.891 640.103 191.832C643.053 187.559 646.242 184.04 647.931 178.991C649.437 174.486 649.97 169.943 649.888 165.209C649.709 154.881 646.019 144.876 639.077 137.176ZM508.66 122.748C526.885 121.88 537.93 142.685 540.46 158.192C542.022 167.773 540.848 177.641 535.558 185.951L535.245 186.435C530.88 193.073 522.944 200.716 514.394 197.573C510.775 196.244 509.812 192.367 512.243 189.426C515.963 184.924 521.713 183.089 525.211 178.282C529.135 172.891 530.421 166.137 530.194 159.581L530.163 158.857C529.555 146.797 523.803 123.651 508.66 124.061C507.811 124.083 507.821 122.787 508.66 122.748ZM565.667 119.291C583.295 117.038 594.03 137.776 597.341 152.062C599.409 160.993 599.861 170.956 597.216 179.82L597.018 180.452C594.865 187.067 588.513 198.402 580.221 195.021C577.949 194.095 575.63 191.572 576.718 188.852C578.107 185.375 580.112 184.473 582.784 182.248C584.842 180.535 586.279 178.076 587.337 175.654C590.155 169.199 590.783 161.658 590.398 154.702L590.345 153.879C589.349 140.292 581.982 120.044 565.667 120.416C564.922 120.433 564.973 119.379 565.667 119.291ZM597.94 99.795C607.751 96.059 615.789 105.44 621.429 112.135C628.494 120.524 634.903 129.561 638.526 140.004C641.753 149.309 642.321 159.655 639.414 169.127C637.975 173.817 635.733 178.166 632.673 181.994L632.282 182.477C629.097 186.36 626.023 188.746 620.806 187.356C618.683 186.789 617.786 184.69 618.153 182.684C618.939 178.398 621.148 177.285 624.009 174.293C626.532 171.654 628.404 168.404 629.663 164.987C632.259 157.938 632.394 150.301 630.651 143.039C628.701 134.909 624.863 127.402 620.422 120.367L619.464 118.86C614.76 111.423 608.051 99.9691 598.127 101.176C597.277 101.28 597.266 100.051 597.94 99.795Z" fill="black"/>
<path fill-rule="evenodd" clip-rule="evenodd" d="M532.944 402.352C534.478 399.685 538.01 397.214 541.242 397.593C555.721 399.291 555.696 416.845 550.105 427.093C545.148 436.18 534.889 441.514 524.621 440.735C513.834 439.916 504.643 433.574 500.598 423.483C497.923 416.808 496.687 404.485 503.803 400C503.935 399.916 504.153 399.937 504.258 400.058C507.67 404.027 507.804 409.986 510.791 414.405C513.569 418.515 517.885 421.909 522.941 422.433C526.717 422.825 530.537 421.463 532.014 418.073C532.813 416.239 532.722 415.244 532.422 413.982L532.149 412.885C531.203 409.044 530.778 406.119 532.944 402.352ZM536.814 325.367C544.366 329.957 555.872 340.66 547.748 352.04C538.186 362.073 524.419 350.569 517.634 345.366C511.343 341.334 504.275 351.705 510.112 356.413C559.136 392.708 579.031 326.567 540.634 319.97C536.406 319.243 534.836 323.947 536.814 325.367ZM457.072 293.893C461.707 286.939 472.287 287.963 474.84 296.215C476.223 300.685 474.313 304.703 474.412 309.167C474.495 312.938 474.248 317.14 473.092 320.792C470.456 329.12 462.966 335.002 454.105 334.758C445.273 334.515 437.494 328.925 433.795 321.052C430.083 313.149 430.869 304.97 433.579 296.934C433.709 296.548 434.215 296.361 434.52 296.686C437.723 300.09 440.068 303.684 442.494 307.496L444.981 311.403C446.881 314.345 449.643 318.103 453.191 317.867L453.724 317.815C454.71 317.73 454.559 317.926 455.32 316.582C455.672 315.96 455.608 314.804 455.778 314.07L455.837 313.822V313.822L455.804 313.688C455.729 313.333 455.655 312.663 455.594 311.5L455.582 311.244C455.325 305.807 453.788 298.82 457.072 293.893ZM574.563 298.522C573.732 289.628 586.236 287.653 590.393 294.234C592.561 297.666 593.193 301.977 593.672 306.062L593.896 308C594.388 312.195 594.583 316.559 592.762 320.472C589.894 326.635 583.657 329.893 576.929 329.377C570.504 328.883 564.642 325.158 561.552 319.503C558.797 314.457 556.058 304.605 559.404 299.342C559.606 299.023 560.01 298.982 560.287 299.228C563.449 302.035 563.964 307.155 565.844 310.812C567.783 314.584 570.724 318.26 575.181 318.833C579.445 319.381 581.074 317.052 579.986 312.987C578.583 307.739 575.091 304.169 574.563 298.522ZM460.449 241.016L462.494 240.233C469.5 237.586 479.119 234.527 484.815 240.224C488.329 243.737 488.998 248.912 486.49 253.199C483.451 258.392 478 258.52 472.736 259.285C466.749 260.155 460.66 261.809 455.086 264.167C448.807 266.824 442.98 270.136 437.271 273.835C431.845 277.35 426.438 283.095 419.943 284.178C419.678 284.222 419.377 284.108 419.308 283.817C417.833 277.467 421.932 271.218 425.59 266.264C430.016 260.266 435.379 255.343 441.373 250.929C447.158 246.668 453.768 243.589 460.449 241.016ZM587.716 263.593L588.341 263.483C592.589 262.776 596.439 262.939 599.641 266.304C602.085 268.871 603.027 272.198 601.862 275.592C600.787 278.723 598.383 281.904 594.894 282.56C583.115 284.776 570.068 284.41 558.23 282.732C552.814 281.963 547.349 281.024 542.074 279.542L539.647 278.838C535.242 277.58 530.2 276.266 527.001 273.027C525.851 271.863 526.514 270.197 527.89 269.658C533.472 267.472 541.123 268.635 547.075 268.464C553.999 268.266 560.934 267.747 567.825 267.032C574.559 266.332 581.075 264.811 587.716 263.593Z" fill="black"/>
</svg>
