<svg width="818" height="1196" viewBox="0 0 818 1196" fill="none" xmlns="http://www.w3.org/2000/svg">
<path fill-rule="evenodd" clip-rule="evenodd" d="M790.748 1175.54C810.074 1174.61 802.301 1140.81 800.914 1128.39C785.613 1083.05 789.21 1033.57 783.192 986.046C779.443 941.678 774.626 897.448 770.574 853.114C762.616 763.12 705.469 579.916 640.254 550.453C632.039 514.407 598.108 480.759 555.178 480.759C525.898 446.1 490.655 421.707 445.452 426.632C426.772 427.482 408.656 447.294 390.757 451.12C380.735 452.502 291.795 448.945 273.979 459.526C261.569 465.898 250.366 477.673 254.015 492.664C259.837 510.826 241.744 491.174 204.001 510.559C127.038 556.782 173.028 618.619 175.066 620.535C127.038 687.358 85.0589 741.57 65.6359 823.247C53.0479 883.886 54.4649 946.485 43.9179 1007.44C40.1939 1028.57 34.4809 1048.98 28.2989 1069.5C21.5989 1096.36 18.3411 1163.31 14.6481 1163.9C7.92106 1165.57 18.5359 1179.39 25.6639 1179.4C223.288 1212.18 424.026 1180.76 622.712 1175.62C678.705 1173.68 734.758 1173.23 790.748 1175.54Z" fill="#EDB98A"/>
<path fill-rule="evenodd" clip-rule="evenodd" d="M391.006 509.962C391.006 530.994 464.036 609.146 489.239 603.99C506.041 600.553 531.428 578.137 565.399 536.741V509.962L558.062 480.809C599.622 482.274 632.223 515.218 640.254 550.453C704.817 579.622 761.472 759.472 770.32 850.387L770.574 853.114C774.626 897.448 779.443 941.678 783.192 986.046C789.21 1033.57 785.613 1083.05 800.914 1128.39L801.005 1129.16C802.601 1142.14 809.687 1174.63 790.748 1175.54C734.758 1173.23 678.705 1173.68 622.712 1175.62C424.026 1180.76 223.288 1212.18 25.6639 1179.4C18.5359 1179.39 7.92106 1165.57 14.6481 1163.9C18.3411 1163.31 21.5989 1096.36 28.2989 1069.5L29.5707 1065.26C35.2594 1046.16 40.4507 1027.11 43.9179 1007.44C54.4649 946.485 53.0479 883.886 65.6359 823.247C85.0589 741.57 127.038 687.358 175.066 620.535C173.028 618.619 127.038 556.782 204.001 510.559C241.744 491.174 259.837 510.826 254.015 492.664C250.366 477.673 261.569 465.898 273.979 459.526C291.795 448.945 380.735 452.502 390.757 451.12C395.413 450.125 400.083 448.048 404.774 445.505L403.961 448.215C395.324 477.161 391.006 497.743 391.006 509.962Z" fill="#3F5458"/>
<path fill-rule="evenodd" clip-rule="evenodd" d="M491.219 626.433C491.311 625.528 492.531 625.53 492.625 626.433L494.02 639.902C495.718 656.352 497.352 672.77 498.537 689.297C500.014 709.906 501.002 730.51 501.478 751.165C503.138 823.102 503.468 895.077 503.608 967.032C513.339 966.358 523.071 965.709 532.808 965.081C539.414 964.654 546.021 964.245 552.628 963.842L569.475 962.821V962.821L576.411 962.395C581.098 962.105 586.423 960.925 589.7 965.077C591.012 966.739 591.67 968.899 590.447 970.872C587.626 975.423 583.293 975.264 578.392 975.461C573.768 975.648 569.144 975.831 564.52 976.009C554.611 976.394 544.703 976.757 534.791 977.035C524.389 977.327 513.992 977.564 503.594 977.741C503.489 1008.12 502.232 1038.46 500.873 1068.8L500.258 1082.45C498.595 1119.38 496.806 1156.34 494.265 1193.22C494.056 1196.23 489.785 1196.23 489.578 1193.22C486.716 1151.69 484.828 1110.07 482.956 1068.48C481.598 1038.33 480.808 1008.17 480.432 978.01C479.057 978.019 477.683 978.038 476.309 978.043C437.282 978.213 398.265 978.383 359.238 978.017C359.303 978.094 359.367 978.171 359.41 978.273C362.234 984.94 362.503 993.448 362.434 1000.6C362.355 1008.81 361.25 1016.92 359.36 1024.9C352.589 1053.48 335.123 1079.09 315.231 1100.26L314.581 1100.95C309.889 1105.91 304.506 1110.89 301.625 1117.2C298.682 1123.65 297.661 1131.19 296.209 1138.12L296.039 1138.92L290.361 1165.14C288.557 1173.47 288.045 1185.62 281.451 1191.63C275.299 1197.24 267.149 1194.31 264.254 1187.09C261.993 1181.46 264.245 1175.27 265.584 1169.63L276.075 1125.53C277.799 1118.34 279.683 1111.1 283.403 1104.64C287.214 1098.03 292.801 1093.23 298.502 1088.32C309.297 1079.03 319.207 1068.39 327.588 1056.87C335.966 1045.35 343.126 1032.66 348.147 1019.31C350.661 1012.63 352.721 1005.69 354.142 998.687C355.493 992.046 355.481 985.168 356.926 978.598C357.025 978.144 357.408 977.833 357.847 977.695C357.743 977.402 357.902 977.006 358.312 976.98L390.23 974.929C418.601 973.099 446.972 971.222 475.318 969.077L480.327 968.715V968.715C479.938 928.47 480.268 888.217 480.995 847.957C481.661 811.038 481.675 774.109 482.773 737.195C483.319 718.874 484.496 700.596 485.806 682.313C487.146 663.615 489.291 645.075 491.219 626.433ZM191.527 840.498C191.187 838.448 193.766 837.178 194.955 839.053C208.546 860.475 215.099 883.744 217.861 908.813C220.301 930.938 219.582 953.382 218.367 975.565C217.071 999.225 215.559 1022.88 214.03 1046.53L211.681 1082.79V1082.79L205.786 1173.7C205.364 1180.2 203.888 1186.11 198.289 1189.14C197.58 1189.73 196.841 1190.26 195.98 1190.72C192.955 1192.34 188.943 1191.52 187.194 1188.42L187.895 1188.88C188.506 1189.26 187.82 1188.73 185.837 1187.27L184.154 1185.09V1185.09C182.931 1183.25 182.15 1181.45 181.836 1179.26C181.348 1175.87 181.98 1172.14 182.202 1168.73L186.066 1109.12V1109.12C189.071 1062.77 192.58 1016.44 195.225 970.077C196.457 948.467 197.32 926.836 196.736 905.188C196.154 883.66 195.057 861.767 191.527 840.498ZM309.101 441.443L309.855 441.316C336.85 436.832 366.204 437.671 390.875 450.684C391.079 450.791 390.986 451.13 390.757 451.12L382.816 450.803C357.677 449.819 332.616 449.236 307.898 455.142L305.368 455.752C296.466 457.923 287.17 460.581 280.02 466.46C273.186 472.08 269.783 480.749 266.511 488.73L266.073 489.784C262.754 497.666 258.552 505.141 251.275 510.07C241.85 516.453 230.515 515.671 219.708 516.538C200.68 518.067 185.123 531.857 177.383 548.732C172.696 558.95 170.697 570.406 170.301 581.58C170.098 587.269 170.069 593.18 170.827 598.831C171.069 600.638 173.303 607.221 174.442 607.063C176.973 606.712 179.287 608.032 180.076 610.055C186.328 604.015 192.76 598.149 199.399 592.494C215.948 578.401 233.773 565.628 252.545 554.652C266.872 546.274 281.984 537.974 297.633 531.699C296.393 531.673 295.17 531.919 293.987 532.534C293.469 532.805 292.954 532.155 293.363 531.725C298.292 526.539 304.196 525.801 310.148 527.184C311.418 526.78 312.689 526.389 313.965 526.018C314.6 525.833 314.916 526.708 314.398 527.046L312.936 527.98V527.98C319.429 530.155 325.804 534.43 330.851 537.804C345.349 547.493 358.11 559.338 371.046 570.961L373.398 573.068C384.785 583.235 396.461 593.115 409.398 601.271C416.17 605.54 423.283 609.489 430.744 612.426C437.143 614.947 447.562 616.534 450.559 623.297C453.223 626.533 452.11 630.663 448.99 632.841C443.728 638.632 433.202 634.891 426.932 632.479C419.373 629.571 412.05 626.076 405.066 621.977C391.507 614.017 379.005 604.12 367.359 593.592C355.196 582.596 343.723 570.915 331.893 559.574C326.767 554.66 321.76 549.631 316.626 544.724L314.048 542.282C311.428 539.825 307.695 535.995 303.704 533.677C296.185 538.162 288.55 542.462 281.099 547.063C270.698 553.485 260.603 560.37 250.664 567.482C231.53 581.173 213.398 596.507 196.565 612.943C165.693 643.085 139.391 677.505 116.414 713.951L114.669 716.729C101.612 737.589 89.265 759.123 80.5101 782.173C70.8771 807.538 66.1921 834.211 63.6471 861.136C61.1211 887.868 60.2691 914.735 57.4461 941.442C54.5511 968.833 48.8471 995.619 42.3591 1022.36L40.8117 1028.69C34.9411 1052.64 28.8818 1076.58 25.8641 1101.09C24.2531 1114.18 23.2841 1127.46 23.5031 1140.65C23.7231 1153.93 25.8091 1166.91 27.4921 1180.04C28.1371 1185.08 23.1851 1189.28 18.7541 1189.94C13.6581 1190.71 9.28009 1187.46 7.69609 1182.72C2.75809 1167.97 1.86109 1151.65 2.01609 1136.16C2.17209 1120.44 4.17909 1104.82 7.00309 1089.36C12.5571 1058.97 21.1281 1029.2 28.2981 999.162C34.6171 972.69 38.8581 946.172 41.1441 919.053C43.5171 890.917 44.9381 862.687 49.2671 834.754C53.5401 807.178 61.5801 780.838 73.7051 755.693C84.7451 732.799 98.5071 711.25 112.935 690.363C130.456 665 149.699 640.865 171.209 618.875C169.277 618.791 167.293 618.167 165.471 617.031C159.897 613.554 157.301 606.753 156.503 600.543C154.635 586.016 155.086 570.85 158.822 556.647C164.849 533.735 180.491 513.377 203.161 505.118C208.996 502.992 215.199 502.216 221.383 502.063C227.251 501.917 233.66 502.682 239.322 500.822C248.334 497.86 252.197 487.246 255.581 479.2L255.737 478.83C260.076 468.577 265.284 459.789 274.682 453.387C284.709 446.556 297.271 443.449 309.101 441.443V441.443ZM565.599 481.991C573.711 479.177 583.853 481.731 591.786 484.189C600.624 486.929 608.791 491.975 615.793 497.968C623.18 504.288 629.285 512.092 633.598 520.81L634.01 521.65C637.949 529.737 642.436 540.839 640.45 549.723C640.393 549.975 640.328 550.218 640.254 550.453C656.349 558.376 671.213 568.3 684.157 580.878C699.229 595.523 711.991 612.188 722.791 630.192C765.684 701.699 773.234 787.579 778.3 869.128L779.563 889.805C782.314 934.454 785.533 978.997 793.896 1023.03L794.506 1026.21C803.444 1072.31 816.24 1118.77 814.944 1166.06C814.555 1180.23 793.613 1180.13 793.006 1166.06C790.72 1113.09 778.358 1061.94 769.987 1009.8C755.258 918.055 762.638 823.475 741.768 732.653C733.578 697.011 720.891 662.438 702.774 630.623C693.825 614.906 683.586 599.719 671.592 586.16C661.273 574.493 650.548 563.265 638.489 553.457C634.635 557.317 626.936 555.35 624.924 549.723C623.542 545.856 623.945 541.335 623.058 537.284C622.235 533.525 621.1 529.798 619.588 526.258C616.574 519.203 612.15 512.428 607.043 506.718C601.526 500.546 595.185 495.418 588.09 491.184C580.946 486.921 573.133 485.648 565.599 482.533C565.345 482.428 565.321 482.088 565.599 481.991ZM597.115 972.286C597.127 971.914 597.566 971.738 597.836 971.987C600.68 974.604 602.399 978.36 604.492 981.579C606.906 985.291 609.441 988.927 612.099 992.469C617.425 999.565 623.354 1006.25 629.33 1012.81C634.888 1018.9 640.812 1024.74 646.957 1030.24C653.615 1036.2 661.076 1041.52 667.125 1048.12C679.747 1061.9 681.786 1080.81 684.449 1098.56L684.741 1100.48C686.365 1111.02 687.82 1121.58 689.132 1132.16C689.77 1137.3 690.406 1142.46 690.926 1147.61L691.085 1149.25C691.548 1154.3 691.673 1159.42 688.773 1163.84C685.668 1168.56 678.609 1170.21 674.412 1165.69C667.201 1157.91 668.553 1144.09 667.615 1134.09C666.84 1125.82 665.961 1117.55 664.977 1109.3L664.476 1105.18C663.316 1095.79 662.374 1086.22 660.227 1077C658.334 1068.87 654.727 1062.74 648.809 1056.86C642.847 1050.93 636.652 1045.4 631.149 1039.02C625.312 1032.25 620.047 1024.99 615.303 1017.41C611.245 1010.93 607.993 1003.88 605.013 996.837L604.519 995.664C601.639 988.795 596.89 979.853 597.115 972.286ZM701.227 677.241C701.29 676.283 702.706 676.268 702.727 677.241C702.906 685.481 703.078 693.721 703.249 701.962C704.625 768.364 703.777 834.923 710.439 901.097C713.581 932.298 719.367 963.04 726.062 993.654C729.488 1009.32 733.082 1024.95 736.497 1040.61C739.825 1055.88 743.394 1071.23 746.034 1086.64C748.628 1101.78 750.952 1117.05 751.995 1132.39L752.123 1134.39C752.572 1141.82 754.715 1152.75 750.623 1159.34C746.189 1166.47 737.7 1166.6 732.949 1159.79C728.488 1153.39 729.597 1142.02 728.809 1134.39C728.008 1126.62 727.161 1118.84 726.199 1111.08C724.322 1095.96 721.849 1080.86 719.277 1065.84C713.92 1034.55 706.15 1003.66 700.415 972.418C694.537 940.409 690.359 908.171 690.183 875.581C690.008 842.714 693.487 809.911 695.243 777.116C697.027 743.808 699.055 710.525 701.227 677.241ZM387.547 470.708C389.33 464.705 395.622 460.952 401.76 462.638C407.385 464.184 412.029 471.011 409.83 476.852C407.43 483.226 403.236 488.661 399.7 494.454C396.434 499.807 391.67 504.022 388.343 509.28L392.009 513.232C393.843 515.204 395.683 517.164 397.543 519.09L403.937 525.713C408.918 530.861 413.929 535.981 419.082 540.951C434.234 555.566 449.626 569.701 466.595 582.217C470.458 585.065 474.351 587.897 478.353 590.549L479.845 591.537C482.591 593.335 485.654 595.102 488.971 594.798C497.03 594.058 504.313 585.498 509.851 580.171L510.141 579.894C523.866 566.835 536.575 552.557 547.686 537.205C550.153 533.794 552.542 530.325 554.868 526.815C549.496 520.54 550.779 508.291 550.483 500.681C550.274 495.33 550.258 489.978 550.229 484.623L550.214 483.543C550.149 480.077 549.993 476.752 552.242 473.901C552.373 473.736 552.644 473.741 552.811 473.828C555.892 475.442 556.841 478.145 558.155 481.177L558.293 481.492C559.893 485.131 561.425 488.804 562.975 492.464C564.598 496.296 566.086 500.184 567.594 504.062C568.296 505.866 568.966 507.677 569.621 509.498C570.02 510.661 570.433 511.818 570.857 512.973L570.957 513.062C571.517 513.537 571.992 514.039 572.401 514.557C574.12 515.417 575.486 516.984 576.127 519.286C577.522 524.297 574.635 528.383 572.06 532.36C561.6 548.52 549.676 563.919 536.422 577.888C529.838 584.828 522.913 591.456 515.703 597.743L514.442 598.834C507.966 604.4 500.934 609.672 492.284 610.975C482.161 612.498 473.923 607.463 466.174 601.665L465.401 601.083C458.055 595.522 450.857 589.766 443.883 583.745C429.664 571.469 416.137 558.288 404.132 543.827C392.454 529.761 380.911 514.033 373.713 497.108C373.274 496.077 374.428 494.998 375.332 495.859C378.848 499.206 382.231 502.735 385.574 506.309C385.667 501.048 384.696 495.742 385.236 490.448C385.895 484.013 385.705 476.904 387.547 470.708Z" fill="black"/>
<path fill-rule="evenodd" clip-rule="evenodd" d="M486.041 75.2596C542.822 75.2596 601.552 119.272 622.365 147.357C646.432 179.832 665.417 335.729 656.511 388.628C647.604 441.527 603.365 499.184 526.567 499.184C449.768 499.184 403.031 489.724 401.157 475.984C399.283 462.245 350.503 385.765 350.503 385.765C350.503 385.765 300.613 371.733 300.418 338.214C300.223 304.695 327.152 292.5 327.152 292.5C327.152 292.5 317.551 160.221 341.733 125.782C365.914 91.3425 429.261 75.2596 486.041 75.2596Z" fill="#EDB98A"/>
<path fill-rule="evenodd" clip-rule="evenodd" d="M457.132 62.0009L458.144 62.0051C520.969 62.411 584.864 91.3199 622.241 141.82L623.365 143.357C623.426 143.437 624.544 145.102 624.809 145.576C626.358 148.356 628.183 150.958 629.583 153.785C630.765 156.185 631.551 158.866 632.42 161.422L632.683 162.185C634.914 168.565 636.793 175.005 638.454 181.555C641.673 194.305 644.183 207.255 646.624 220.175C655.345 266.439 661.047 313.365 663.92 360.351L664.487 369.798C665.066 379.597 665.505 389.438 664.404 399.205C663.133 410.575 659.864 421.245 654.914 431.545C650.353 441.045 644.473 449.845 637.744 457.935C634.144 462.265 630.324 466.475 625.624 469.644C621.883 472.165 617.513 473.825 613.303 475.425C606.454 482.265 597.664 487.435 589.074 491.565C574.914 498.355 559.564 502.105 544.034 503.985C528.154 505.894 512.114 505.435 496.364 502.705C481.314 500.105 465.183 493.455 455.914 480.785C455.114 479.695 456.603 478.665 457.583 479.115C484.484 491.565 514.713 494.815 544.034 490.885C557.713 489.055 571.173 485.275 583.664 479.405C594.204 474.455 603.093 467.255 612.553 460.735C614.394 458.285 616.253 455.875 618.374 453.635L621.683 450.165C624.156 447.559 626.585 444.917 628.793 442.065C635.614 433.275 641.263 423.305 644.994 412.815C652.25 392.396 650.287 370.23 649.005 348.95L648.894 347.075C647.574 324.315 645.423 301.635 642.444 279.035C639.463 256.405 635.673 233.865 631.194 211.485C628.984 200.455 626.503 189.495 624.314 178.465C623.183 172.775 622.394 167.005 621.534 161.255C621.013 157.755 621.023 154.385 621.013 150.965C620.914 151.125 620.793 151.275 620.673 151.425C621.034 152.275 620.784 153.365 619.904 153.865C616.574 155.765 612.734 155.125 608.984 155.135C605.003 155.155 601.023 155.165 597.043 155.175C592.898 155.19 588.753 155.19 584.608 155.184L572.173 155.155L522.433 155.005C489.859 154.907 456.732 156.203 424.262 153.132L421.783 152.887C419.232 152.593 390.437 149.072 382.651 148.163L382.414 148.135C368.183 146.495 354.154 144.065 340.324 140.425C344.843 142.235 349.194 144.675 353.673 146.525C359.454 148.905 365.383 150.985 371.314 152.975C383.484 157.065 395.673 161.035 407.793 165.255C411.268 166.463 419.164 196.231 421.155 200.94L421.213 201.075C422.223 203.345 423.614 205.835 422.843 208.415C421.144 214.115 412.133 218.335 407.664 221.555L403.069 224.871V224.871L397.059 229.219C394.594 230.985 392.318 232.336 389.093 231.325C389.083 231.315 389.074 231.315 389.064 231.315C391.824 244.125 393.164 285.555 393.574 292.825C393.933 299.155 395.793 307.265 392.833 313.035C392.133 314.405 390.314 315.485 388.763 315.375C382.003 314.865 375.244 314.365 368.484 313.865C366.673 313.725 365.023 312.695 364.523 310.855L364.503 310.755V310.755C364.284 310.815 364.034 310.775 363.824 310.555C363.454 310.185 363.074 309.825 362.683 309.475C353.784 301.535 339.864 299.575 328.883 303.705C323.124 305.865 316.574 309.505 312.513 314.225C308.003 319.465 307.034 326.785 307.023 333.475C307.003 346.375 311.664 359.435 321.173 368.385C329.911 376.601 341.186 378.992 352.529 381.343L353.744 381.595C356.333 382.135 357.154 385.995 355.204 387.615C360.394 392.695 364.874 398.755 369.244 404.345C375.047 411.761 380.596 419.471 385.995 427.198L388.601 430.935C397.888 444.189 411.331 462.445 405.484 479.015C404.704 481.245 401.444 482.045 400.173 479.705C396.003 472.005 393.673 463.525 389.713 455.735C385.824 448.095 380.984 441.015 376.183 433.935L373.414 429.832C368.804 422.98 364.236 416.053 360.003 408.995L357.055 404.108C354.286 399.493 351.544 394.724 349.503 389.765C335.853 393.055 321.013 385.735 311.423 375.985C299.364 363.705 293.694 345.615 295.253 328.605C296.074 319.705 298.704 311.095 305.223 304.695C305.883 304.055 306.574 303.445 307.284 302.835C307.034 302.705 306.824 302.505 306.723 302.265C302.353 291.885 301.423 279.515 301.053 268.335C300.664 256.775 300.914 245.185 301.793 233.645C303.404 212.485 307.223 191.435 313.284 171.095C322.253 141.035 337.664 111.605 362.284 91.4351C388.538 69.9224 423.712 61.9448 457.132 62.0009ZM326.444 324.925C330.152 323.242 335.936 326.24 339.237 328.149L339.453 328.275C349.203 333.945 356.144 343.605 359.353 354.305C361.413 361.205 349.843 363.955 348.863 357.195C348.064 351.685 346.223 346.525 343.194 341.915C342.473 342.155 341.773 342.465 341.144 342.865C338.734 344.425 337.333 347.105 333.984 346.705C331.503 346.415 328.963 344.695 329.133 341.855C329.404 337.165 333.183 335.295 337.234 335.055C336.656 334.538 336.073 334.026 335.476 333.532L334.822 333.007C334.081 332.471 326.156 327.006 325.928 328.411L325.923 328.495C325.933 329.055 325.183 329.375 324.803 328.955C323.273 327.315 324.694 325.725 326.444 324.925Z" fill="black"/>
<path fill-rule="evenodd" clip-rule="evenodd" d="M547.872 390.917C541.085 393.585 533.066 394.216 526.061 391.942C519.363 389.768 513.28 384.929 509.6 378.844C506.322 373.424 504.953 366.992 506.89 360.58C506.983 360.273 507.284 360.077 507.574 360C509.159 361.443 510.138 362.876 511.116 364.302C512.766 366.707 514.419 369.086 516.688 371.142C519.99 374.132 524.438 376.561 528.853 377.362C533.175 378.148 537.599 377.454 541.47 375.385C543.824 374.127 545.727 372.446 547.611 370.757C549.664 368.918 551.683 367.051 554.51 366.013C556.774 365.181 559.153 365.883 560.981 367.275C562.945 368.771 564.358 371.114 564.28 373.563C564.158 377.357 562.498 380.522 560.088 383.133C556.83 386.663 552.224 389.206 547.872 390.917ZM539.814 296.367C547.366 300.957 558.872 311.66 550.748 323.04C541.186 333.073 527.419 321.569 520.634 316.366C514.343 312.334 507.275 322.704 513.112 327.413C562.136 363.708 582.031 297.567 543.634 290.97C539.406 290.243 537.836 294.947 539.814 296.367ZM460.388 232.768C470.68 232.276 479.75 236.898 489.558 238.998C498.622 240.94 507.552 239.774 516.367 237.304C530.673 233.295 536.587 255.195 522.476 259.463C512.2 262.571 501.38 262.787 490.835 261.185C481.468 259.761 473.616 255.201 464.685 252.546C457.02 250.269 448.004 251.215 439.91 252.288L436.768 252.71C432.098 253.339 427.403 253.97 422.779 254.883C418.767 255.676 414.762 257.127 410.667 257.295C410.202 257.315 409.808 256.711 410.101 256.308C414.858 249.778 424.026 244.625 431.319 241.188L431.813 240.956C440.815 236.759 450.365 233.246 460.388 232.768ZM456.617 280.924L456.616 280.699C456.63 274.322 460.344 259.762 469.524 259.762C475.259 259.762 478.741 269.671 479.344 279.886L479.365 280.302C479.631 286.653 477.888 300.534 469.524 300.534C461.072 300.534 456.704 287.386 456.617 280.924V280.924ZM591.773 280.924L591.774 280.699C591.76 274.322 588.046 259.762 578.866 259.762C573.274 259.762 569.824 269.182 569.097 279.12L569.046 279.886C568.684 286.022 570.314 300.534 578.866 300.534C587.318 300.534 591.686 287.386 591.773 280.924V280.924ZM591.632 225.002L592.289 225.016C603.017 225.388 614.052 231.743 616.916 242.418C617.064 242.972 616.381 243.345 615.976 242.965C607.154 234.706 595.291 242.598 586.458 246.734L583.214 248.233C571.826 253.531 558.875 259.759 546.232 255.811C540.227 253.936 536.413 247.766 538.126 241.534C539.649 235.989 546.342 231.329 552.14 233.33L552.403 233.426C557.113 235.228 562.904 233.402 567.768 231.602L571.764 230.102C578.19 227.664 584.645 224.936 591.632 225.002V225.002Z" fill="black"/>
</svg>
