<svg width="818" height="1184" viewBox="0 0 818 1184" fill="none" xmlns="http://www.w3.org/2000/svg">
<path fill-rule="evenodd" clip-rule="evenodd" d="M77.6649 1165C208.31 1184.84 341.325 1185.84 473.055 1178.63C525.189 1174.73 577.483 1174.03 629.575 1179.02C660.356 1181.31 795.316 1191.62 806.343 1164.05C799.403 1017.25 785.347 869.195 742.228 728.005C724.494 677.872 709.264 636.262 674.654 594.776C663.746 583.449 640.222 559.693 626.743 551.945C615.065 545.234 610.184 547.628 603.479 536.292C596.815 523.769 591.901 502.855 582.439 494.019C572.806 485.022 558.53 488.241 540.835 491.139C544.086 447.208 523.808 436.02 495.872 427.666C446.767 408.925 398.271 418.34 385.912 478.117C362.996 478.117 350.123 487.978 336.207 497.454C330.519 501.327 334.476 511.196 327.681 514.24C315.109 518.716 292.894 517.62 280.789 523.129C225.746 548.178 176.72 584.504 144.524 637.556C72.3438 750.822 22.7616 989.418 31.3415 1123.66C27.5824 1129.56 32.7807 1138.01 34.102 1144.35C35.7698 1149.86 41.1709 1153.53 46.8076 1152.91C54.6735 1161.36 66.8398 1163.25 77.6649 1165Z" fill="#D08B5B"/>
<path fill-rule="evenodd" clip-rule="evenodd" d="M349.465 487.093C357.514 478.695 370.136 473.681 382.089 473.963L382.649 473.981L386.707 474.162L383.996 487.465L383.859 488.095L383.306 490.405L382.57 493.429L382.308 494.54L382.031 495.771C381.988 495.971 381.945 496.168 381.904 496.364L381.783 496.946L380.627 502.598L380.843 503.1L380.78 504.385C380.601 509.027 381.601 511.579 383.805 512.398L383.981 512.459L385.238 512.862L386.264 515.088C388.625 520.178 390.827 524.624 393.087 528.812C399.681 541.025 407.547 553.234 416.617 565.503C425.234 577.161 434.211 588.289 443.545 598.856C447.742 603.607 452.175 608.377 456.893 613.233L460.955 617.393L462.246 618.7L463.115 619.567L464.199 620.628L465.76 622.117L466.892 623.231L467.259 623.58C467.721 624.009 468.078 624.299 468.4 624.505L468.519 624.579L468.876 624.791L487.706 644.594L494.356 648.251L497.515 650.001L498.155 648.728L498.284 648.319L505.283 632.95L509.556 623.537C518.327 604.171 525.151 588.765 531.392 574.096L532.169 572.266L534.47 566.808L535.688 563.896C541.266 550.53 545.386 540.213 549.074 530.192L549.598 528.762L550.374 526.62L551.528 523.391L551.738 522.839C552.739 520.275 550.279 510.956 547.855 505.85L547.718 505.566L547.088 504.301L546.406 502.967C544.804 499.839 543.643 496.368 542.667 492.166C542.509 491.486 542.36 490.801 542.221 490.111L542.017 489.07L541.889 488.387L541.709 487.431L541.452 486.061L546.875 485.155L549.85 484.67L551.147 484.466C552.829 484.207 554.325 483.993 555.734 483.815L556.258 483.749L557.201 483.638L557.235 483.824L559.17 484.015L560.606 484.163C567.683 484.912 573.141 485.736 577.018 486.65L577.4 486.742L578.092 486.917L578.408 487C581.934 487.949 584.651 490 586.801 493.024C588.275 495.099 589.232 497.086 590.747 500.851L591.29 502.21L593.093 506.666C593.304 507.209 593.63 508.076 594.071 509.268L595.601 513.433L603.268 534.605L611.114 538.733C614.761 540.641 617.429 542.017 618.746 542.668L619.214 542.895L619.548 543.048L622.252 544.12L621.962 544.964L622.288 545.151C654.591 563.732 679.501 592.317 698.895 630.266L699.481 631.419L700.081 632.613C715.538 663.524 726.612 698.02 737.425 744.074L738.094 746.937L738.62 749.214L741.439 761.505C752.031 807.908 759.309 842.51 765.333 876.462L765.724 878.676L766.728 884.444C774.292 928.39 780.626 971.938 785.694 1015.06L786.535 1022.32C788.65 1040.84 790.56 1060 792.633 1083L792.91 1086.09L793.823 1096.42C794.794 1107.55 795.682 1118.66 796.486 1129.74L796.881 1135.29L797.692 1147.33L798.169 1154.2L798.227 1155.13L798.42 1158.71L798.473 1159.55C798.546 1160.62 798.628 1161.53 798.732 1162.37L798.814 1162.99L798.906 1163.59C799.174 1165.23 799.702 1166.7 800.577 1168.33L800.803 1168.75L802.304 1171.43L799.583 1172.87C785.394 1180.34 757.458 1183.63 719.135 1183.8L717.971 1183.8H715.575C696.953 1183.79 677.217 1183.08 656.624 1181.85L651.966 1181.56L648.079 1181.32C646.405 1181.21 644.775 1181.1 643.086 1180.98L640.493 1180.8L629.665 1180C580.957 1175.34 529.878 1175.42 473.595 1179.63C326.859 1187.66 200.206 1184.27 81.1648 1166.5L77.5597 1165.96L74.9033 1165.53L73.3189 1165.26C60.6919 1163.11 52.7634 1160.34 46.5768 1154.55L46.2528 1154.24L45.9827 1153.97L45.8657 1153.98C39.6364 1153.95 33.9338 1149.87 31.8179 1143.86L31.708 1143.54L31.5684 1143.09L31.472 1142.65C31.3734 1142.21 31.2504 1141.75 31.1007 1141.24L30.9835 1140.85L30 1137.63L33.3131 1137.02C33.5985 1136.97 33.8953 1136.77 34.1832 1136.35L34.4592 1135.96L34.9369 1135.29L36.091 1133.71C37.3202 1131.99 37.9249 1130.91 38.2246 1129.82C38.4898 1128.86 38.5891 1127.62 38.5603 1125.91L38.5381 1125.07L38.4075 1122.03C38.399 1121.79 38.3932 1121.57 38.3894 1121.37L38.3853 1121.06L38.3832 1116.78L38.3938 1112.08C38.4014 1110.03 38.413 1108.03 38.4287 1106.06L38.4555 1103.14L38.4822 1100.78C38.6417 1087.76 39.024 1074.74 39.6292 1061.75C40.8122 1036.37 42.8414 1011.04 45.7122 985.799C51.6395 933.694 60.7187 883.158 73.0695 834.323L74.3101 829.446C87.6645 777.254 100.54 737.018 116.905 699.81C137.72 652.486 163.099 613.538 195.053 582.402C212.622 565.281 232.078 550.831 252.755 539.748C262.264 534.651 272.37 530.128 283.208 526.059L284.761 525.481L287.268 524.565L289.192 523.855L295.389 521.539C296.692 521.051 298.11 520.505 299.786 519.846L300.824 519.436L311.922 515.009L313.765 514.284L315.814 513.487L317.321 512.909C319.783 511.969 322.013 511.15 324.084 510.427L325.307 510.005L326.418 509.632L331.154 507.993L331.062 512.301C331 515.166 331.738 517.331 333.378 518.886L333.432 518.935L333.489 518.981L333.54 519.014L333.827 519.006L334.946 519.001C335.061 518.937 335.17 518.863 335.271 518.777C336.864 517.424 337.605 515.61 338.324 511.45L338.514 510.292L338.846 508.124L338.979 507.303C339.457 504.417 339.875 502.822 340.686 500.998C341.859 498.362 343.409 495.795 345.234 493.435L345.66 492.894L347.364 490.845L347.625 490.522C348.222 489.757 348.529 489.217 348.657 488.721L348.688 488.587L348.858 487.727L349.465 487.093Z" fill="#FFCF77"/>
<path fill-rule="evenodd" clip-rule="evenodd" d="M618.424 548.624C617.622 548.177 618.328 547.031 619.134 547.41C657.879 565.586 687.602 597.475 708.516 634.32C730.172 672.471 742.515 715.788 753.156 758.124L753.54 759.654C764.887 804.944 774.535 850.702 783.221 896.572C792.018 943.023 799.079 989.762 804.759 1036.69C807.569 1059.9 810.074 1083.15 812.028 1106.44C813.004 1118.08 813.891 1129.73 814.688 1141.38C815.007 1146.04 815.306 1150.7 815.564 1155.37L815.748 1158.87C815.907 1162.04 816.284 1165.22 815.5 1168.35C814.823 1171.05 813.394 1173.5 812.137 1175.98C809.651 1180.87 802.836 1180.07 800.157 1175.98L799.379 1174.78C797.603 1172.04 796.127 1169.49 795.569 1166.07C795.03 1162.76 795.01 1159.29 794.768 1155.95C794.323 1149.8 793.944 1143.65 793.512 1137.5C792.605 1124.55 791.586 1111.61 790.458 1098.68C788.227 1073.15 785.834 1047.65 782.895 1022.19C777.673 976.953 771.12 931.833 763.395 886.953C755.847 843.111 746.306 799.713 736.351 756.371L735.32 751.887C717.891 676.213 691.029 589.065 618.424 548.624ZM205.737 844.946C206.022 844.189 207.248 844.015 207.455 844.946C210.065 856.697 210.323 868.8 210.722 880.831C211.115 892.699 211.099 904.621 210.926 916.496C210.288 960.139 209.09 1003.75 208.054 1047.38C207.536 1069.21 207.05 1091.04 206.677 1112.87C206.536 1121.06 206.417 1129.24 206.319 1137.43L206.198 1148.23C206.138 1153 206.013 1157.72 205.431 1162.49C205.047 1165.63 204.229 1168.62 202.497 1171.31C201.268 1173.22 199.516 1174.19 197.808 1175.48L197.489 1175.73C195.311 1177.45 193.017 1177.46 190.86 1175.73L190.233 1175.23C188.173 1173.62 186.392 1172.36 185.077 1169.82C183.247 1166.27 182.954 1162.42 182.643 1158.52C182.171 1152.6 182.484 1146.59 182.545 1140.66C182.667 1128.75 182.832 1116.84 183.041 1104.93C183.808 1061.26 185.324 1017.58 188.087 973.986C189.388 953.453 191.153 932.853 193.521 912.402L193.972 908.569C194.69 902.552 195.345 896.428 196.083 890.284C185.066 882.535 175.382 873.133 167.124 862.467C166.516 861.682 167.517 860.581 168.251 861.341C176.689 870.078 186.364 877.043 197.075 882.52C198.83 869.659 201.243 856.867 205.737 844.946ZM389.789 455.66C389.94 455.543 390.176 455.492 390.32 455.66C392.688 458.421 392.208 462.642 392.284 466.141L392.293 466.466C392.463 471.581 392.495 476.68 392.478 481.798L392.425 498.089V498.089C392.418 500.329 392.236 502.661 392.351 504.914L392.411 505.786V505.786C393.655 507.06 394.233 508.901 393.811 510.75C393.735 513.122 392.495 515.101 390.686 516.345L394.563 521.846V521.846L398.444 527.343C406.443 538.688 414.53 549.932 422.958 560.965C431.552 572.214 440.72 583.039 450.314 593.447C455.001 598.533 459.768 603.548 464.646 608.451C466.629 610.444 468.66 612.387 470.669 614.352L472.668 616.327C473.849 617.508 475.335 618.676 476.119 620.173C476.58 621.056 476.685 623.232 476.85 623.592C478.33 626.845 475.805 632.032 471.609 630.409L471.8 630.283C472.564 629.751 472.074 629.744 470.33 630.26C469.23 630.257 468.199 630.004 467.235 629.502L466.948 629.344C465.591 628.655 464.38 627.32 463.278 626.253L463.004 625.992C460.483 623.63 458.08 621.125 455.664 618.656C450.621 613.505 445.692 608.244 440.92 602.842C431.4 592.064 422.375 580.849 413.828 569.286C405.122 557.509 397.03 545.127 390.071 532.237C387.43 527.345 385.009 522.359 382.688 517.315C378.17 515.865 377.121 511.06 377.436 505.647C375.769 501.765 374.267 497.803 373.379 493.755C373.258 493.2 373.971 492.677 374.398 493.162C375.843 494.804 377.181 496.552 378.467 498.345C379.243 494.55 380.225 491.057 380.687 488.83L382.69 479.002V479.002C371.403 478.414 359.035 483.051 351.254 491.169C350.836 493.283 349.209 494.796 347.623 496.772C345.811 499.031 344.23 501.566 343.051 504.217C340.436 510.093 341.912 518.752 336.837 523.063C336.308 523.512 335.717 523.824 335.107 524.017C337.515 535.825 336.423 548.836 336.37 560.815L336.368 561.869C336.38 575.276 335.932 588.694 335.414 602.09L334.887 615.348C334.204 633.03 333.761 650.721 335.479 668.305C343.324 661.357 351.436 654.726 359.827 648.409C365.345 644.255 370.973 640.248 376.703 636.391L381.359 633.28C386.938 629.539 392.653 625.69 398.761 623.01C406.751 619.507 414.349 620.711 422.063 624.304C429.745 627.883 437.198 632.04 444.733 635.919C452.397 639.863 460.077 643.774 467.752 647.695C472.836 650.293 480.286 652.638 484.015 657.42C484.253 656.362 484.53 655.307 484.854 654.256C484.484 652.653 484.627 650.921 485.526 649.27C498.056 626.247 509.649 602.674 521.161 579.13C526.988 567.215 532.528 555.159 538.366 543.251L544.042 531.654C544.99 529.722 545.941 527.791 546.897 525.863C548.329 522.977 549.82 520.119 551.268 517.24C551.88 516.024 552.647 514.816 553.243 513.588L553.525 512.972C553.539 512.94 554.914 508.616 553.852 509.028L553.76 509.072C553.218 509.379 552.784 508.697 553.135 508.262C554.637 506.405 556.729 508.05 557.586 509.769C559.948 514.5 555.621 521.926 553.957 526.456L553.865 526.709C548.7 541.328 542.852 555.673 536.86 569.968C525.371 597.375 513.029 624.361 500.714 651.394L500.568 651.859V651.859C503.194 649.846 505.998 648.019 508.399 646.241C514.456 641.754 520.69 637.488 526.914 633.236C538.328 625.438 550.052 618.154 561.969 611.158L564.355 609.762C570.308 606.294 576.205 603.482 583.271 604.523C589.836 605.491 595.939 609.017 601.869 611.882L602.482 612.175L620.807 620.887C618.848 613.075 616.727 605.301 614.514 597.556C610.198 582.449 605.449 567.469 600.299 552.623C595.489 538.752 590.29 525.033 584.79 511.422L583.134 507.338C580.891 501.734 578.662 495.623 572.252 493.897C565.847 492.172 558.5 494.73 552.646 491.079C552.114 490.747 552.18 489.87 552.825 489.708L556.437 488.798C563.22 487.111 571.171 485.414 577.584 487.054C584.563 488.842 590.337 494.699 593.723 500.788C597.488 507.562 600.142 515.142 602.999 522.365L603.452 523.502C606.731 531.676 609.885 539.899 612.903 548.174C618.937 564.714 624.43 581.453 629.402 598.343C631.798 606.483 634.071 614.662 636.256 622.861C636.884 625.219 637.92 628.078 638.77 631.06C639.744 632.01 640.666 633.07 641.531 634.279C642.966 636.285 641.936 638.637 640.152 639.838C640.083 641.89 639.627 643.82 638.537 645.474C634.282 651.933 623.033 650.269 623.49 641.586C623.559 640.257 624.077 638.988 624.861 637.916L624.839 637.742V637.742L624.75 637.424V637.424C622.797 636.488 620.836 635.445 618.769 634.424L599.537 624.921V624.921C593.967 622.168 587.793 617.915 581.599 616.866C575.825 615.889 569.732 620.191 564.77 622.787L564.448 622.953C552.453 629.101 540.547 635.453 528.688 641.857C522.899 644.984 517.185 648.241 511.418 651.405C506.596 654.051 501.392 657.849 495.972 659.342C493.657 661.142 490.907 660.901 488.697 659.54C489.707 665.795 489.645 672.214 489.955 678.609C490.372 687.159 490.436 695.732 490.573 704.293L490.629 707.502C490.993 726.428 491.188 745.359 491.26 764.289C491.516 831.697 490.771 899.125 490.597 966.533C490.509 1000.4 489.838 1034.3 488.958 1068.15C488.585 1082.5 487.805 1096.83 486.963 1111.15L486.499 1118.96C485.518 1135.45 484.939 1152.12 481.887 1168.38C481.489 1170.5 477.899 1170.55 477.547 1168.38C474.739 1150.95 474.582 1133.14 474.042 1115.51L473.928 1111.99C473.279 1093.06 472.971 1074.14 473.037 1055.2C473.277 987.767 475.03 920.374 476.464 852.958C477.185 819.086 477.67 785.199 478.79 751.338C479.35 734.395 479.984 717.463 480.736 700.527C481.072 692.966 481.395 685.412 481.898 677.861L482.124 674.625C482.28 672.514 482.406 670.429 482.559 668.363C475.736 670.855 469.496 666.241 463.358 663.084C456.284 659.445 449.213 655.8 442.136 652.168L435.054 648.543V648.543L420.879 641.31C414.497 638.053 409.58 634.812 402.773 638.632C378.25 652.39 355.715 670.696 335.293 689.905C331.377 693.589 323.102 692.599 322.11 686.425C317.873 660.05 320.45 633.293 322.613 606.837L323.411 597.015C324.377 585.284 325.43 573.553 326.832 561.869C327.459 556.643 328.084 551.42 328.775 546.203L329.307 542.292C330.171 536.109 330.735 529.963 332.577 524.033C331.996 523.845 331.437 523.537 330.937 523.063C325.399 517.809 328.069 508.692 330.596 502.442C333.091 496.273 336.896 490.889 341.661 486.255C342.7 485.243 344.165 484.592 345.637 484.558C357.19 476.904 369.864 473.084 383.055 477.262C383.426 475.491 383.804 473.722 384.201 471.958L384.606 470.195C385.632 465.818 386.013 458.588 389.789 455.66ZM508.195 1146.88C511.78 1145.89 515.705 1146.93 518.332 1149.56C520.958 1152.19 521.998 1156.11 521.01 1159.7C520.516 1161.46 519.623 1162.99 518.332 1164.29C517.125 1165.49 515.717 1166.35 514.109 1166.86L513.734 1166.97L513.148 1167.22C511.351 1167.7 509.553 1167.7 507.757 1167.22C506.039 1166.73 504.548 1165.87 503.282 1164.61C502.025 1163.34 501.156 1161.85 500.674 1160.13C500.191 1158.34 500.191 1156.54 500.674 1154.74L500.919 1154.16V1154.16C501.413 1152.39 502.306 1150.86 503.597 1149.56C504.897 1148.27 506.43 1147.37 508.195 1146.88ZM721.064 789.641C721.653 788.965 722.608 789.831 722.242 790.55C716.658 801.497 710.434 812.366 704.317 823.035C704.807 825.992 705.293 828.925 705.852 831.784C708.235 843.97 711.154 855.936 713.057 868.238C719.897 912.457 723.448 957.156 726.495 1001.77C729.551 1046.55 729.942 1091.34 730.401 1136.21C730.441 1140.1 727.45 1144.61 723.442 1145.35C721.607 1145.68 720.234 1145.62 718.403 1145.35C714.232 1144.73 711.623 1139.96 711.444 1136.21C710.248 1111.13 708.639 1086.09 706.775 1061.06C703.471 1016.67 701.452 972.173 698.783 927.743L697.843 912.214C696.835 895.388 695.912 878.551 695.611 861.7C695.411 850.536 696.008 839.375 695.641 828.224C695.302 817.929 694.258 806.735 696.528 796.62C696.612 796.241 697.211 796.145 697.384 796.508C699.744 801.476 701.239 806.876 702.391 812.388C708.473 804.696 714.667 796.987 721.064 789.641ZM322.668 517.695C323.522 517.631 323.488 518.914 322.668 519.009C310.732 520.394 299.201 525.251 287.931 529.379L286.966 529.731C275.58 533.862 264.479 538.666 253.796 544.392C232.909 555.588 213.729 570.024 196.771 586.55C129.066 652.522 98.2107 747.656 75.6017 837.058C63.0397 886.729 54.1067 937.24 48.3167 988.138C45.4537 1013.31 43.4297 1038.58 42.2497 1063.89C41.6457 1076.86 41.2647 1089.84 41.1057 1102.82C41.0237 1109.47 40.9997 1116.12 41.0077 1122.77C41.0117 1125.82 41.5557 1129.66 40.7407 1132.62C39.9847 1135.36 37.8527 1137.77 36.2757 1140.06C34.4067 1142.77 31.0477 1142.62 29.1527 1140.06L28.4539 1139.12C26.4329 1136.44 24.4554 1133.88 24.1667 1130.37C23.8577 1126.62 24.0757 1122.75 24.0617 1118.97C24.0297 1111.37 24.1237 1103.77 24.2757 1096.17C24.5687 1081.6 25.1427 1067.04 25.9957 1052.5C27.7277 1022.99 30.5787 993.53 34.6607 964.247C41.9167 912.197 52.7927 860.644 67.0387 810.06C80.4787 762.341 96.4007 714.763 119.083 670.561C140.143 629.521 167.771 591.342 204.227 562.66C221.18 549.322 239.635 538.206 259.532 529.835C269.567 525.613 280.105 522.166 290.822 520.201C301.42 518.258 311.972 518.529 322.668 517.695ZM510.25 1062.53C512.143 1062.52 514.254 1062.93 515.878 1063.98L518.048 1065.66V1065.66C518.636 1066.41 519.221 1067.17 519.804 1067.93C521.161 1069.7 521.341 1072.56 521.058 1074.67C520.994 1076.07 520.576 1077.38 519.804 1078.6L518.152 1080.73V1080.73C516.564 1082.03 515.24 1082.95 513.317 1083.58C512.311 1083.9 511.343 1083.97 510.378 1083.92L510.057 1083.9L510.25 1083.93L509.912 1083.89V1083.89C509.598 1083.86 509.283 1083.83 508.967 1083.78C508.752 1083.76 508.536 1083.74 508.321 1083.71C508.114 1083.69 507.914 1083.69 507.705 1083.7C505.261 1083.93 502.804 1082.55 501.069 1080.96C499.506 1079.52 498.103 1076.48 498.321 1074.32L498.414 1073.42C498.578 1071.9 498.713 1071.3 499.358 1069.77C499.984 1068.29 500.859 1066.98 502.05 1065.87C504.33 1063.75 507.121 1062.55 510.25 1062.53ZM502.684 951.25C505.928 947.715 511.499 947.455 515.522 949.593C516.502 950.115 517.402 950.952 518.266 951.65C520.443 953.41 521.298 956.585 521.418 959.26C521.537 961.905 520.142 965.046 518.266 966.872L517.811 967.313V967.313C516.69 968.403 515.084 969.351 513.516 969.639C510.987 970.104 508.863 970.09 506.508 969.096C504.485 968.242 502.741 966.87 501.555 965.008L501.362 964.693C501.281 964.562 501.204 964.429 501.132 964.293L501.027 964.088C498.773 959.754 499.379 954.848 502.684 951.25ZM504.364 839.38C505.827 838.921 507.289 838.856 508.752 839.184C509.745 839.186 510.671 839.437 511.529 839.934C512.461 840.195 513.271 840.667 513.957 841.35C514.783 841.838 515.442 842.496 515.931 843.323C516.904 844.386 517.56 845.633 517.901 847.065L518.293 849.99L517.901 852.916L516.791 855.545V855.545C516.486 855.943 516.179 856.341 515.869 856.737C515.379 857.566 514.719 858.227 513.89 858.717C513.351 859.253 512.733 859.654 512.042 859.932C509.592 861.688 506.328 862.261 503.425 861.461C501.701 860.979 500.204 860.106 498.935 858.845C497.674 857.575 496.801 856.078 496.319 854.355L496.121 852.979C495.864 851.133 495.824 850.111 496.346 847.764C496.575 846.732 497.24 845.277 497.588 844.664C499.076 842.048 501.507 840.255 504.364 839.38ZM631.397 758.898C635.598 758.868 639.799 758.877 643.999 758.923L647.149 758.965C652.424 759.048 656.942 758.504 661.089 762.164C664.099 764.82 662.773 769.276 659.916 771.277C655.587 774.307 650.157 772.783 645.181 772.449C639.933 772.097 634.681 771.805 629.427 771.569C619.254 771.114 609.077 770.824 598.894 770.779C588.733 770.736 578.557 770.832 568.397 770.996C558.059 771.164 547.295 772.127 537.015 771.057C535.603 770.91 535.285 769.053 536.679 768.57C546.366 765.219 557.263 764.133 567.415 762.852C577.886 761.529 588.357 760.593 598.894 759.986C609.717 759.365 620.556 758.974 631.397 758.898ZM504.345 725.984L504.692 725.991C506.541 725.996 508.271 726.43 509.885 727.296L510.229 727.488L512.449 729.202C513.808 730.572 514.749 732.185 515.269 734.043L515.661 736.959V736.959C515.719 738.469 515.403 739.877 514.717 741.185C514.274 742.545 513.518 743.721 512.449 744.715C511.455 745.784 510.278 746.54 508.919 746.983C507.711 747.616 506.419 747.934 505.039 747.934L504.692 747.928C502.713 747.921 500.867 747.422 499.157 746.43L496.936 744.715V744.715C495.577 743.346 494.636 741.733 494.116 739.875L493.723 736.959V736.959C493.667 735.449 493.981 734.039 494.669 732.733C495.111 731.373 495.867 730.196 496.936 729.202C497.93 728.133 499.106 727.377 500.467 726.935C501.673 726.301 502.966 725.983 504.345 725.984V725.984ZM536.864 468.314C539.227 464.891 543.51 467.935 542.897 470.687C543.059 478.416 543.454 485.917 545.213 493.488C546.018 496.954 547.073 500.424 548.7 503.599L549.383 504.936C551.489 509.096 553.124 513.02 550.288 517.585C548.951 519.737 546.535 521.353 543.916 521.24C532.301 520.739 530.705 504.572 529.999 495.547C529.271 486.252 531.535 476.037 536.864 468.314Z" fill="black"/>
<path fill-rule="evenodd" clip-rule="evenodd" d="M493.282 105.173C643.795 109.939 652.873 181.43 652.873 301.325C652.873 421.22 574.794 496.771 546.044 509.964C517.294 523.156 441.59 579.821 373.273 553.708C304.955 527.595 324.739 417.272 324.739 369.87C324.739 322.467 342.769 100.408 493.282 105.173Z" fill="#D08B5B"/>
<path fill-rule="evenodd" clip-rule="evenodd" d="M347.805 295.445C378.926 168.547 435.738 106.634 518.241 109.706C641.995 114.315 640.69 240.451 632.926 228.95C627.854 221.436 592.34 195.187 526.384 150.203L522.308 147.426L347.805 295.445Z" fill="#79361D"/>
<path fill-rule="evenodd" clip-rule="evenodd" d="M554.342 470.587C526.702 486.017 495.053 486.617 465.322 476.907C447.492 471.098 431.143 462.117 415.842 451.377C402.532 442.027 390.652 431.657 378.882 420.646C369.192 399.277 360.563 377.947 356.522 354.697C352.902 333.827 352.422 312.157 356.622 291.327C387.683 265.777 418.553 240.017 449.382 214.178C465.082 201.017 480.822 187.928 496.752 175.047C504.842 168.507 512.853 161.867 520.912 155.297C522.242 154.217 523.563 153.137 524.893 152.057C541.532 164.237 559.372 174.678 575.893 187.057C584.542 193.547 592.952 200.457 600.962 207.726C605.162 211.537 609.263 215.467 613.263 219.497C616.922 223.178 620.452 228.457 625.643 229.848C626.353 230.037 627.022 230.077 627.652 229.987C634.592 290.747 639.522 356.357 609.792 411.537C596.822 435.607 578.433 457.127 554.342 470.587ZM374.533 492.918C370.727 489.431 376.399 483.788 380.189 487.26C403.995 509.066 435.117 520.625 466.553 525.975C471.625 526.84 469.462 534.547 464.426 533.689C431.605 528.103 399.347 515.647 374.533 492.918ZM345.967 526.375C341.423 523.937 345.468 517.034 350.004 519.467C368.551 529.414 388.894 534.582 409.528 538.072C414.603 538.93 412.438 546.637 407.402 545.786C386.067 542.178 365.132 536.653 345.967 526.375ZM421.452 189.348C436.842 175.537 453.382 162.396 470.853 151.307C488.532 140.087 507.842 133.377 528.712 133.217C527.252 134.387 525.862 135.687 524.452 136.896C520.513 140.267 516.582 143.657 512.652 147.037C504.792 153.807 496.912 160.566 489.152 167.447C473.872 181.007 458.542 194.497 443.292 208.087C413.982 234.207 385.303 260.896 357.242 288.357C357.393 287.687 357.553 287.017 357.712 286.348C367.002 247.547 392.272 215.537 421.452 189.348ZM542.092 134.907C542.192 134.607 542.263 134.316 542.303 134.037C582.353 139.257 615.803 168.726 626.862 207.527C625.902 208.867 625.372 210.457 625.572 212.146C625.672 212.997 625.772 213.857 625.872 214.707C624.502 213.348 623.092 212.077 621.893 210.867C617.902 206.827 613.813 202.896 609.612 199.066C601.022 191.237 592.103 183.917 582.702 177.087C566.353 165.207 548.652 154.287 529.162 148.587C530.442 147.537 531.723 146.487 533.013 145.447C536.862 142.316 540.433 139.737 542.092 134.907ZM613.893 93.4168C589.303 66.5468 555.252 46.8668 519.393 40.0268C485.152 33.4868 449.702 37.7968 417.353 50.5068C349.662 77.1068 296.252 135.598 271.242 203.377C256.662 242.867 251.882 286.157 256.263 327.957C260.622 369.566 273.152 412.537 295.952 447.937C298.042 451.178 300.332 454.287 302.732 457.297C301.662 469.517 297.582 481.497 291.162 491.917C290.817 492.475 290.453 493.023 290.093 493.572C283.519 498.495 276.7 503.115 270.043 507.884C264.274 512.016 258.564 516.255 253.139 520.832C248.018 525.153 242.071 529.965 238.604 535.797C235.763 540.574 234.603 547.069 238.481 551.625C243.154 557.113 251.072 555.178 257.402 555.178C257.944 555.178 258.485 555.19 259.026 555.196C260.927 556.391 262.885 557.471 264.782 558.476C283.952 568.637 303.192 578.687 322.452 588.687C360.813 608.617 399.013 629.348 438.162 647.697C456.303 656.207 475.723 663.646 496.042 663.617C515.103 663.587 532.332 656.017 547.212 644.507C564.172 631.396 578.353 614.747 592.112 598.428C597.612 591.896 603.002 585.287 608.292 578.587C618.452 575.197 628.532 574.207 637.592 580.747C644.862 585.997 654.442 578.857 654.612 570.976C654.672 568.178 654.553 565.417 654.252 562.697C652.433 545.896 644.212 530.697 634.952 516.598C629.893 508.887 624.563 501.316 619.202 493.816C617.942 492.047 616.702 490.277 615.502 488.476C637.032 456.777 654.112 421.627 664.612 384.896C675.643 346.247 679.393 306.167 676.933 266.117C673.152 204.737 656.313 139.777 613.893 93.4168Z" fill="#0D0D0D"/>
<path fill-rule="evenodd" clip-rule="evenodd" d="M509.587 421.927C502.864 419.184 496.866 414.61 492.481 408.766C490.957 406.735 490.561 404.59 490.881 402.628C491.241 400.421 492.546 398.422 494.326 397.081C496.112 395.735 498.345 395.072 500.504 395.41C502.381 395.704 504.248 396.731 505.727 398.862L506.035 399.288C508.642 402.815 512.04 405.709 515.91 407.574C519.641 409.372 523.814 410.211 528.132 409.723C536.356 408.794 542.024 404.346 548.049 398.307C548.796 397.544 549.543 396.758 550.294 395.959C550.768 395.234 551.426 394.769 552.157 394.524C552.968 394.253 553.886 394.269 554.726 394.562C555.537 394.845 556.262 395.381 556.747 396.095C557.209 396.773 557.471 397.61 557.386 398.574C556.835 404.833 553.562 410.419 548.914 414.806C543.752 419.677 536.909 423.047 530.466 424.229C523.368 425.531 516.136 424.598 509.587 421.927V421.927ZM533.814 325.367C541.366 329.957 552.872 340.66 544.748 352.04C535.186 362.073 521.418 350.569 514.634 345.366C508.343 341.334 501.275 351.705 507.112 356.413C556.136 392.708 576.031 326.567 537.634 319.97C533.406 319.243 531.836 323.947 533.814 325.367ZM445.963 283.146C446.798 272.79 462.57 270.438 464.139 280.686C465.544 289.866 463.89 298.299 459.755 306.564C455.804 314.46 445.874 310.777 445.123 303.587C444.116 293.949 445.444 289.589 445.963 283.146ZM566.027 278.562C568.226 275.682 571.401 273.716 575.205 274.827C587.09 278.3 583.587 295.173 579.413 303.386C577.145 307.846 569.814 308.977 566.501 305.05C561.101 298.646 558.515 285.857 565.38 279.549C565.566 279.223 565.773 278.894 566.027 278.562ZM459.588 237.831L461.465 237.502C467.273 236.497 474.494 235.532 478.603 240.202C480.782 242.678 481.532 247.28 478.603 249.65C473.451 253.82 467.755 252.204 461.581 252.557C456.493 252.849 451.603 253.691 446.702 255.092C435.95 258.165 427.189 263.775 418.006 269.935C416.801 270.743 415.571 269.202 416.146 268.075C421.447 257.692 431.72 249.163 442.01 243.964C447.502 241.189 453.512 238.887 459.588 237.831ZM555.193 233.179L556.63 233.473C572.267 236.742 592.583 243.271 599.988 258.631C600.271 260.803 599.972 261.268 599.73 261.572L599.649 261.674C599.45 261.933 599.29 262.291 598.349 262.587C598.087 262.525 597.824 262.459 597.557 262.389C594.163 261.499 591.477 260.274 588.877 259.002L586.058 257.613C582.788 256.01 579.488 254.465 575.992 253.324C568.53 250.89 560.854 249.175 553.06 248.26C551.37 248.062 549.744 247.491 548.46 246.514C547.242 245.587 546.311 244.302 545.887 242.596C545.337 240.386 545.495 238.714 546.68 236.721C547.572 235.224 548.847 234.187 550.311 233.591C551.804 232.984 553.503 232.841 555.193 233.179Z" fill="black"/>
</svg>
