<svg width="818" height="1194" viewBox="0 0 818 1194" fill="none" xmlns="http://www.w3.org/2000/svg">
<path fill-rule="evenodd" clip-rule="evenodd" d="M790.748 1173.54C810.074 1172.61 802.301 1138.81 800.914 1126.39C785.613 1081.05 789.21 1031.57 783.192 984.046C779.443 939.678 774.626 895.448 770.574 851.114C762.616 761.12 705.469 577.916 640.254 548.453C632.039 512.407 598.108 478.759 555.178 478.759C525.898 444.1 490.655 419.707 445.452 424.632C426.772 425.482 408.656 445.294 390.757 449.12C380.735 450.502 291.795 446.945 273.979 457.526C261.569 463.898 250.366 475.673 254.015 490.664C259.837 508.826 241.744 489.174 204.001 508.559C127.038 554.782 173.028 616.619 175.066 618.535C127.038 685.358 85.0589 739.57 65.6359 821.247C53.0479 881.886 54.4649 944.485 43.9179 1005.44C40.1939 1026.57 34.4809 1046.98 28.2989 1067.5C21.5989 1094.36 18.3411 1161.31 14.6481 1161.9C7.92106 1163.57 18.5359 1177.39 25.6639 1177.4C223.288 1210.18 424.026 1178.76 622.712 1173.62C678.705 1171.68 734.758 1171.23 790.748 1173.54Z" fill="#FFDBB4"/>
<path fill-rule="evenodd" clip-rule="evenodd" d="M391.006 507.962C391.006 528.994 464.036 607.146 489.239 601.99C506.041 598.553 531.428 576.137 565.399 534.741V507.962L558.062 478.809C599.622 480.274 632.223 513.218 640.254 548.453C704.817 577.622 761.472 757.472 770.32 848.387L770.574 851.114C774.626 895.448 779.443 939.678 783.192 984.046C789.21 1031.57 785.613 1081.05 800.914 1126.39L801.005 1127.16C802.601 1140.14 809.687 1172.63 790.748 1173.54C734.758 1171.23 678.705 1171.68 622.712 1173.62C424.026 1178.76 223.288 1210.18 25.6639 1177.4C18.5359 1177.39 7.92106 1163.57 14.6481 1161.9C18.3411 1161.31 21.5989 1094.36 28.2989 1067.5L29.5707 1063.26C35.2594 1044.16 40.4507 1025.11 43.9179 1005.44C54.4649 944.485 53.0479 881.886 65.6359 821.247C85.0589 739.57 127.038 685.358 175.066 618.535C173.028 616.619 127.038 554.782 204.001 508.559C241.744 489.174 259.837 508.826 254.015 490.664C250.366 475.673 261.569 463.898 273.979 457.526C291.795 446.945 380.735 450.502 390.757 449.12C395.413 448.125 400.083 446.048 404.774 443.505L403.961 446.215C395.324 475.161 391.006 495.743 391.006 507.962Z" fill="#9FD8E5"/>
<path fill-rule="evenodd" clip-rule="evenodd" d="M491.219 624.433C491.311 623.528 492.531 623.53 492.625 624.433L494.02 637.902C495.718 654.352 497.352 670.77 498.537 687.297C500.014 707.906 501.002 728.51 501.478 749.165C503.138 821.102 503.468 893.077 503.608 965.032C513.339 964.358 523.071 963.709 532.808 963.081C539.414 962.654 546.021 962.245 552.628 961.842L569.475 960.821V960.821L576.411 960.395C581.098 960.105 586.423 958.925 589.7 963.077C591.012 964.739 591.67 966.899 590.447 968.872C587.626 973.423 583.293 973.264 578.392 973.461C573.768 973.648 569.144 973.831 564.52 974.009C554.611 974.394 544.703 974.757 534.791 975.035C524.389 975.327 513.992 975.564 503.594 975.741C503.489 1006.12 502.232 1036.46 500.873 1066.8L500.258 1080.45C498.595 1117.38 496.806 1154.34 494.265 1191.22C494.056 1194.23 489.785 1194.23 489.578 1191.22C486.716 1149.69 484.828 1108.07 482.956 1066.48C481.598 1036.33 480.808 1006.17 480.432 976.01C479.057 976.019 477.683 976.038 476.309 976.043C437.282 976.213 398.265 976.383 359.238 976.017C359.303 976.094 359.367 976.171 359.41 976.273C362.234 982.94 362.503 991.448 362.434 998.603C362.355 1006.81 361.25 1014.92 359.36 1022.9C352.589 1051.48 335.123 1077.09 315.231 1098.26L314.581 1098.95C309.889 1103.91 304.506 1108.89 301.625 1115.2C298.682 1121.65 297.661 1129.19 296.209 1136.12L296.039 1136.92L290.361 1163.14C288.557 1171.47 288.045 1183.62 281.451 1189.63C275.299 1195.24 267.149 1192.31 264.254 1185.09C261.993 1179.46 264.245 1173.27 265.584 1167.63L276.075 1123.53C277.799 1116.34 279.683 1109.1 283.403 1102.64C287.214 1096.03 292.801 1091.23 298.502 1086.32C309.297 1077.03 319.207 1066.39 327.588 1054.87C335.966 1043.35 343.126 1030.66 348.147 1017.31C350.661 1010.63 352.721 1003.69 354.142 996.687C355.493 990.046 355.481 983.168 356.926 976.598C357.025 976.144 357.408 975.833 357.847 975.695C357.743 975.402 357.902 975.006 358.312 974.98L390.23 972.929C418.601 971.099 446.972 969.222 475.318 967.077L480.327 966.715V966.715C479.938 926.47 480.268 886.217 480.995 845.957C481.661 809.038 481.675 772.109 482.773 735.195C483.319 716.874 484.496 698.596 485.806 680.313C487.146 661.615 489.291 643.075 491.219 624.433ZM191.527 838.498C191.187 836.448 193.766 835.178 194.955 837.053C208.546 858.475 215.099 881.744 217.861 906.813C220.301 928.938 219.582 951.382 218.367 973.565C217.071 997.225 215.559 1020.88 214.03 1044.53L211.681 1080.79V1080.79L205.786 1171.7C205.364 1178.2 203.888 1184.11 198.289 1187.14C197.58 1187.73 196.841 1188.26 195.98 1188.72C192.955 1190.34 188.943 1189.52 187.194 1186.42L187.895 1186.88C188.506 1187.26 187.82 1186.73 185.837 1185.27L184.154 1183.09V1183.09C182.931 1181.25 182.15 1179.45 181.836 1177.26C181.348 1173.87 181.98 1170.14 182.202 1166.73L186.066 1107.12V1107.12C189.071 1060.77 192.58 1014.44 195.225 968.077C196.457 946.467 197.32 924.836 196.736 903.188C196.154 881.66 195.057 859.767 191.527 838.498ZM309.101 439.443L309.855 439.316C336.85 434.832 366.204 435.671 390.875 448.684C391.079 448.791 390.986 449.13 390.757 449.12L382.816 448.803C357.677 447.819 332.616 447.236 307.898 453.142L305.368 453.752C296.466 455.923 287.17 458.581 280.02 464.46C273.186 470.08 269.783 478.749 266.511 486.73L266.073 487.784C262.754 495.666 258.552 503.141 251.275 508.07C241.85 514.453 230.515 513.671 219.708 514.538C200.68 516.067 185.123 529.857 177.383 546.732C172.696 556.95 170.697 568.406 170.301 579.58C170.098 585.269 170.069 591.18 170.827 596.831C171.069 598.638 173.303 605.221 174.442 605.063C176.973 604.712 179.287 606.032 180.076 608.055C186.328 602.015 192.76 596.149 199.399 590.494C215.948 576.401 233.773 563.628 252.545 552.652C266.872 544.274 281.984 535.974 297.633 529.699C296.393 529.673 295.17 529.919 293.987 530.534C293.469 530.805 292.954 530.155 293.363 529.725C298.292 524.539 304.196 523.801 310.148 525.184C311.418 524.78 312.689 524.389 313.965 524.018C314.6 523.833 314.916 524.708 314.398 525.046L312.936 525.98V525.98C319.429 528.155 325.804 532.43 330.851 535.804C345.349 545.493 358.11 557.338 371.046 568.961L373.398 571.068C384.785 581.235 396.461 591.115 409.398 599.271C416.17 603.54 423.283 607.489 430.744 610.426C437.143 612.947 447.562 614.534 450.559 621.297C453.223 624.533 452.11 628.663 448.99 630.841C443.728 636.632 433.202 632.891 426.932 630.479C419.373 627.571 412.05 624.076 405.066 619.977C391.507 612.017 379.005 602.12 367.359 591.592C355.196 580.596 343.723 568.915 331.893 557.574C326.767 552.66 321.76 547.631 316.626 542.724L314.048 540.282C311.428 537.825 307.695 533.995 303.704 531.677C296.185 536.162 288.55 540.462 281.099 545.063C270.698 551.485 260.603 558.37 250.664 565.482C231.53 579.173 213.398 594.507 196.565 610.943C165.693 641.085 139.391 675.505 116.414 711.951L114.669 714.729C101.612 735.589 89.265 757.123 80.5101 780.173C70.8771 805.538 66.1921 832.211 63.6471 859.136C61.1211 885.868 60.2691 912.735 57.4461 939.442C54.5511 966.833 48.8471 993.619 42.3591 1020.36L40.8117 1026.69C34.9411 1050.64 28.8818 1074.58 25.8641 1099.09C24.2531 1112.18 23.2841 1125.46 23.5031 1138.65C23.7231 1151.93 25.8091 1164.91 27.4921 1178.04C28.1371 1183.08 23.1851 1187.28 18.7541 1187.94C13.6581 1188.71 9.28009 1185.46 7.69609 1180.72C2.75809 1165.97 1.86109 1149.65 2.01609 1134.16C2.17209 1118.44 4.17909 1102.82 7.00309 1087.36C12.5571 1056.97 21.1281 1027.2 28.2981 997.162C34.6171 970.69 38.8581 944.172 41.1441 917.053C43.5171 888.917 44.9381 860.687 49.2671 832.754C53.5401 805.178 61.5801 778.838 73.7051 753.693C84.7451 730.799 98.5071 709.25 112.935 688.363C130.456 663 149.699 638.865 171.209 616.875C169.277 616.791 167.293 616.167 165.471 615.031C159.897 611.554 157.301 604.753 156.503 598.543C154.635 584.016 155.086 568.85 158.822 554.647C164.849 531.735 180.491 511.377 203.161 503.118C208.996 500.992 215.199 500.216 221.383 500.063C227.251 499.917 233.66 500.682 239.322 498.822C248.334 495.86 252.197 485.246 255.581 477.2L255.737 476.83C260.076 466.577 265.284 457.789 274.682 451.387C284.709 444.556 297.271 441.449 309.101 439.443V439.443ZM565.599 479.991C573.711 477.177 583.853 479.731 591.786 482.189C600.624 484.929 608.791 489.975 615.793 495.968C623.18 502.288 629.285 510.092 633.598 518.81L634.01 519.65C637.949 527.737 642.436 538.839 640.45 547.723C640.393 547.975 640.328 548.218 640.254 548.453C656.349 556.376 671.213 566.3 684.157 578.878C699.229 593.523 711.991 610.188 722.791 628.192C765.684 699.699 773.234 785.579 778.3 867.128L779.563 887.805C782.314 932.454 785.533 976.997 793.896 1021.03L794.506 1024.21C803.444 1070.31 816.24 1116.77 814.944 1164.06C814.555 1178.23 793.613 1178.13 793.006 1164.06C790.72 1111.09 778.358 1059.94 769.987 1007.8C755.258 916.055 762.638 821.475 741.768 730.653C733.578 695.011 720.891 660.438 702.774 628.623C693.825 612.906 683.586 597.719 671.592 584.16C661.273 572.493 650.548 561.265 638.489 551.457C634.635 555.317 626.936 553.35 624.924 547.723C623.542 543.856 623.945 539.335 623.058 535.284C622.235 531.525 621.1 527.798 619.588 524.258C616.574 517.203 612.15 510.428 607.043 504.718C601.526 498.546 595.185 493.418 588.09 489.184C580.946 484.921 573.133 483.648 565.599 480.533C565.345 480.428 565.321 480.088 565.599 479.991ZM597.115 970.286C597.127 969.914 597.566 969.738 597.836 969.987C600.68 972.604 602.399 976.36 604.492 979.579C606.906 983.291 609.441 986.927 612.099 990.469C617.425 997.565 623.354 1004.25 629.33 1010.81C634.888 1016.9 640.812 1022.74 646.957 1028.24C653.615 1034.2 661.076 1039.52 667.125 1046.12C679.747 1059.9 681.786 1078.81 684.449 1096.56L684.741 1098.48C686.365 1109.02 687.82 1119.58 689.132 1130.16C689.77 1135.3 690.406 1140.46 690.926 1145.61L691.085 1147.25C691.548 1152.3 691.673 1157.42 688.773 1161.84C685.668 1166.56 678.609 1168.21 674.412 1163.69C667.201 1155.91 668.553 1142.09 667.615 1132.09C666.84 1123.82 665.961 1115.55 664.977 1107.3L664.476 1103.18C663.316 1093.79 662.374 1084.22 660.227 1075C658.334 1066.87 654.727 1060.74 648.809 1054.86C642.847 1048.93 636.652 1043.4 631.149 1037.02C625.312 1030.25 620.047 1022.99 615.303 1015.41C611.245 1008.93 607.993 1001.88 605.013 994.837L604.519 993.664C601.639 986.795 596.89 977.853 597.115 970.286ZM701.227 675.241C701.29 674.283 702.706 674.268 702.727 675.241C702.906 683.481 703.078 691.721 703.249 699.962C704.625 766.364 703.777 832.923 710.439 899.097C713.581 930.298 719.367 961.04 726.062 991.654C729.488 1007.32 733.082 1022.95 736.497 1038.61C739.825 1053.88 743.394 1069.23 746.034 1084.64C748.628 1099.78 750.952 1115.05 751.995 1130.39L752.123 1132.39C752.572 1139.82 754.715 1150.75 750.623 1157.34C746.189 1164.47 737.7 1164.6 732.949 1157.79C728.488 1151.39 729.597 1140.02 728.809 1132.39C728.008 1124.62 727.161 1116.84 726.199 1109.08C724.322 1093.96 721.849 1078.86 719.277 1063.84C713.92 1032.55 706.15 1001.66 700.415 970.418C694.537 938.409 690.359 906.171 690.183 873.581C690.008 840.714 693.487 807.911 695.243 775.116C697.027 741.808 699.055 708.525 701.227 675.241ZM387.547 468.708C389.33 462.705 395.622 458.952 401.76 460.638C407.385 462.184 412.029 469.011 409.83 474.852C407.43 481.226 403.236 486.661 399.7 492.454C396.434 497.807 391.67 502.022 388.343 507.28L392.009 511.232C393.843 513.204 395.683 515.164 397.543 517.09L403.937 523.713C408.918 528.861 413.929 533.981 419.082 538.951C434.234 553.566 449.626 567.701 466.595 580.217C470.458 583.065 474.351 585.897 478.353 588.549L479.845 589.537C482.591 591.335 485.654 593.102 488.971 592.798C497.03 592.058 504.313 583.498 509.851 578.171L510.141 577.894C523.866 564.835 536.575 550.557 547.686 535.205C550.153 531.794 552.542 528.325 554.868 524.815C549.496 518.54 550.779 506.291 550.483 498.681C550.274 493.33 550.258 487.978 550.229 482.623L550.214 481.543C550.149 478.077 549.993 474.752 552.242 471.901C552.373 471.736 552.644 471.741 552.811 471.828C555.892 473.442 556.841 476.145 558.155 479.177L558.293 479.492C559.893 483.131 561.425 486.804 562.975 490.464C564.598 494.296 566.086 498.184 567.594 502.062C568.296 503.866 568.966 505.677 569.621 507.498C570.02 508.661 570.433 509.818 570.857 510.973L570.957 511.062C571.517 511.537 571.992 512.039 572.401 512.557C574.12 513.417 575.486 514.984 576.127 517.286C577.522 522.297 574.635 526.383 572.06 530.36C561.6 546.52 549.676 561.919 536.422 575.888C529.838 582.828 522.913 589.456 515.703 595.743L514.442 596.834C507.966 602.4 500.934 607.672 492.284 608.975C482.161 610.498 473.923 605.463 466.174 599.665L465.401 599.083C458.055 593.522 450.857 587.766 443.883 581.745C429.664 569.469 416.137 556.288 404.132 541.827C392.454 527.761 380.911 512.033 373.713 495.108C373.274 494.077 374.428 492.998 375.332 493.859C378.848 497.206 382.231 500.735 385.574 504.309C385.667 499.048 384.696 493.742 385.236 488.448C385.895 482.013 385.705 474.904 387.547 468.708Z" fill="black"/>
<path fill-rule="evenodd" clip-rule="evenodd" d="M643.142 209.138C644.232 199.013 632.379 172.001 632.665 177.48C613.663 148.181 576.58 136.659 544.585 126.987C476.664 104.565 423.626 131.644 375.904 179.637C347.73 205.954 320.922 235.351 306.779 271.782C278.956 341.28 320.661 420.526 384.084 453.726C389.202 456.496 394.779 459.126 399.653 462.472C425.871 477.619 456.658 482.859 485.873 489.452C540.529 501.945 609.172 495.991 641.382 443.955C663.229 407.025 657.425 362.256 655.715 321.272C653.146 285.363 648.637 244.784 643.142 209.138Z" fill="#FFDBB4"/>
<path fill-rule="evenodd" clip-rule="evenodd" d="M350.995 106.654C386.405 73.5517 438.742 57.5077 486.594 60.3137C512.511 61.8337 537.489 68.3277 560.911 79.4847C568.236 82.9737 575.374 87.0577 581.956 91.8667C586.396 93.9387 590.737 96.1807 594.942 98.6187C616.002 110.819 632.282 129.298 642.702 151.218C647.676 161.68 651.601 172.713 653.824 184.08L654.182 185.951C655.316 191.655 657.558 199.171 654.722 204.509C652.842 208.048 648.902 210.279 645.172 209.979C645.982 213.259 646.952 216.538 647.572 219.839L649.261 228.839C649.541 230.339 649.818 231.839 650.092 233.339C651.722 242.279 653.222 251.208 654.422 260.218C656.932 278.979 659.202 297.779 661.202 316.609C662.635 330.075 663.978 343.556 665.283 357.033L666.062 365.119C667.402 379.038 668.452 393.079 667.541 407.059C666.17 428.03 659.72 447.163 647.201 462.728C648.394 465.597 648.796 468.827 649.694 472.394C650.937 477.33 652.556 482.163 654.279 486.954C655.085 488.837 655.893 490.721 656.692 492.609L658.793 497.61V497.61L660.432 500.888C662.208 504.456 663.926 508.075 665.018 511.767C672.092 515.544 677.869 521.706 678.152 530.149C678.402 537.779 674.442 545.859 667.752 549.748C661.151 553.591 654.355 552.078 648.034 549.144C642.523 550.748 636.624 550.951 631.165 549.238C626.962 553.042 621.541 555.669 615.532 556.378C606.472 557.454 597.871 554.918 589.561 551.583L588.982 551.349C588.722 551.248 588.462 551.138 588.212 551.029C578.652 550.569 569.132 546.788 562.351 540.089C560.142 537.919 558.232 535.439 556.692 532.659C551.101 522.548 550.232 510.138 555.732 500.109C554.552 500.159 553.362 500.208 552.182 500.239C536.447 500.687 520.685 499.884 504.99 498.85L501.29 498.599C491.134 497.868 476.157 496.146 475.872 483.559C475.831 481.949 477.492 480.739 479.012 481.169C484.782 482.798 490.452 485.359 496.432 486.279C504.252 487.489 512.351 487.619 520.252 488.059L522.524 488.185C538.455 489.057 554.958 489.588 570.632 486.429C582.331 484.079 594.522 479.798 605.242 474.498C615.532 469.399 624.882 462.729 632.422 454.019C649.032 434.859 651.232 407.829 650.422 383.589C649.442 354.638 646.041 325.729 644.122 296.819L643.253 283.831C642.537 273 641.883 262.154 641.612 251.319C641.412 243.409 641.541 235.479 641.581 227.569C641.601 223.619 641.552 219.649 641.642 215.699C641.692 213.479 641.952 211.309 642.142 209.138C641.262 208.679 640.442 208.038 639.702 207.189C639.122 206.519 638.672 205.809 638.362 205.089C634.632 203.998 632.902 202.548 630.482 199.259C628.442 196.489 626.132 193.929 623.662 191.529C618.402 186.429 612.392 182.259 606.041 178.628C592.912 171.119 578.532 166.099 564.032 161.979C541.831 155.679 518.772 152.439 496.242 147.378C490.032 156.038 483.452 164.439 476.572 172.569C455.101 197.929 430.482 220.538 404.101 240.699C398.732 244.809 393.291 248.859 387.772 252.788C380.5 263.874 373.153 274.907 365.695 285.866L362.492 290.559L362.442 290.649C362.002 291.319 361.581 291.989 361.162 292.659C360.272 294.079 359.272 295.449 358.212 296.779C357.522 297.788 356.822 298.798 356.112 299.809C357.472 300.538 358.712 301.359 359.682 302.269C361.662 304.138 361.331 307.109 359.682 309.009C354.362 315.149 345.942 307.149 339.822 305.019C333.192 307.038 327.662 314.929 324.912 320.958C320.952 329.649 319.362 340.128 321.152 349.538C322.791 358.138 327.212 365.569 334.562 370.229C334.822 370.388 335.101 370.559 335.372 370.708C335.382 370.729 335.382 370.729 335.392 370.718C335.642 370.878 335.902 371.029 336.162 371.169C339.612 373.069 343.402 374.189 347.331 374.458C349.581 374.619 351.932 374.498 354.182 374.769C356.492 375.038 358.392 376.099 360.612 376.659C363.062 377.288 364.642 380.579 363.101 382.788C362.342 383.878 361.622 384.919 360.851 385.849C363.382 388.829 365.581 392.119 367.572 395.248C370.291 399.538 372.702 404.089 374.902 408.729C376.932 411.399 378.872 414.119 380.752 416.899C391.402 432.679 399.552 450.259 404.562 468.628C409.522 486.798 412.622 507.208 408.032 525.759C403.802 542.819 391.452 556.949 373.172 557.859C369.357 558.047 365.605 557.621 362.077 556.652C354.327 561.439 344.723 563.847 336.128 564.128C329.174 564.356 321.562 562.892 315.883 558.687C309.146 561.619 301.838 563.283 295.483 563.662C288.372 564.086 280.93 562.148 275.133 558.31C269.617 563.035 263.665 567.023 256.902 569.759C245.272 574.458 231.432 573.878 220.782 566.849C210.112 559.809 204.682 547.169 207.942 534.628C210.942 523.069 220.372 514.589 229.232 507.288L230.982 505.853C239.746 498.7 248.597 491.777 254.222 481.699C260.192 471.009 262.372 458.589 262.962 446.489C264.242 419.849 258.822 393.449 257.172 366.949C255.472 339.579 256.422 312.128 260.152 284.958C267.402 232.179 286.482 180.439 321.002 139.298C325.996 133.345 331.342 127.671 336.976 122.293C341.282 116.661 345.936 111.382 350.995 106.654ZM810.171 408.008C810.361 408.018 810.541 408.028 810.711 408.098C810.825 408.146 810.921 408.223 811.01 408.307L811.851 409.148C812.151 409.448 812.131 409.908 811.851 410.208C811.606 410.481 811.162 410.489 810.873 410.278L810.791 410.208L809.92 409.337C809.825 409.234 809.743 409.122 809.701 408.978C809.661 408.838 809.661 408.678 809.651 408.528C809.641 408.258 809.901 408.008 810.171 408.008ZM340.991 326.309C349.011 323.878 358.631 329.659 363.411 335.759C365.811 338.819 366.491 343.009 363.411 346.019C360.791 348.579 355.671 349.048 353.141 346.019C350.271 342.569 347.931 337.788 343.831 335.579C339.381 333.179 333.421 333.779 332.371 339.628C332.191 340.619 330.771 340.288 330.711 339.399C330.321 333.479 335.511 327.958 340.991 326.309Z" fill="black"/>
<path fill-rule="evenodd" clip-rule="evenodd" d="M473 355C499.51 355 521 336.196 521 313C521 289.804 499.51 271 473 271C446.49 271 417.801 289.041 417.801 312.237C417.801 322.079 425.555 339.278 432.035 346.438C440.826 356.153 457.739 355 473 355Z" fill="white"/>
<path fill-rule="evenodd" clip-rule="evenodd" d="M587.256 346.962C607.549 346.962 624 329.957 624 308.981C624 288.005 607.549 271 587.256 271C566.962 271 545 287.315 545 308.291C545 317.191 550.936 332.745 555.896 339.219C562.626 348.004 575.573 346.962 587.256 346.962Z" fill="white"/>
<path fill-rule="evenodd" clip-rule="evenodd" d="M472.33 381.091C472.54 380.897 472.872 380.829 473.125 380.988C477.452 383.724 477.964 392.925 478.013 398.239C479.803 398.705 481.571 399.235 483.243 399.605C486.793 400.39 490.364 401.075 493.927 401.798L496.597 402.349C505.523 404.23 514.616 405.622 523.712 406.319C532.54 406.995 541.624 407.242 550.427 406.105C554.207 405.616 557.965 404.8 561.618 403.711C565.936 402.423 569.375 400.288 573.391 398.418C583.445 393.735 591.871 407.458 582.195 413.48C573.889 418.647 562.557 420.51 552.969 421.31C543.169 422.127 533.407 421.23 523.725 419.68C513.258 418.003 503.006 415.428 493.079 411.694C488.882 410.115 484.819 408.201 480.853 406.109L479.774 405.534C479.115 405.18 478.428 404.821 477.737 404.457C476.994 411.084 474.853 417.485 472.266 423.638L472.205 423.53C470.79 428.384 465.678 431.387 460.592 429.243C454.622 426.728 454.169 420.126 457.642 415.44L457.808 415.222C461.892 409.968 464.451 403.45 466.675 397.237C467.816 394.052 468.872 390.79 469.788 387.532C470.451 385.175 470.475 382.804 472.33 381.091ZM626.162 328.318C622.624 339.012 614.906 347.247 604.156 350.867C593.502 354.456 581.653 353.148 570.763 351.208C568.38 350.783 565.965 350.314 563.555 349.768C565.528 350.99 567.27 352.71 568.938 354.528C571.403 357.217 573.639 360.05 574.317 363.416C574.99 366.755 573.93 369.295 571.996 371.213C569.021 374.162 564.223 375.751 560.158 376.629C551.057 378.596 541.939 378.29 532.882 376.273C530.57 375.759 529.002 374.518 528.121 372.901C527.052 370.937 526.965 368.493 527.578 366.268C528.191 364.044 529.516 361.994 531.439 360.859C533.022 359.925 535.002 359.669 537.249 360.416C541.76 361.917 546.237 362.911 551.001 363.026C553.018 363.073 555.048 363.013 557.061 362.828C558.199 362.724 559.335 362.579 560.465 362.397C559.799 361.512 559.153 360.609 558.522 359.698C557.776 358.62 557.049 357.529 556.355 356.419C554.349 353.206 552.678 349.904 551.211 346.417C550.74 345.301 550.303 344.179 549.884 343.054C549.824 342.891 549.764 342.729 549.703 342.566C549.574 342.458 549.446 342.349 549.318 342.239C546.447 339.755 544.04 336.695 542.337 332.905C537.727 322.639 538.478 309.897 541.275 299.237C543.517 290.693 548.465 282.79 555.002 277.421C556.144 275.543 556.897 274.404 557.821 273.444C561.578 269.536 566.82 266.899 571.936 265.296C583.363 261.713 595.807 264.283 605.493 271.106C614.436 277.405 621.438 286.852 625.221 297.359C628.804 307.309 629.503 318.223 626.162 328.318ZM470.522 263.331C484.111 263.215 497.937 267.227 508.964 275.256C519.514 282.939 527.796 294.282 527.786 307.793C527.776 320.948 520.744 333.882 512.945 344.067C504.191 355.501 492.751 361.014 478.367 361.141C470.89 361.208 463.359 360.546 455.936 359.636L451.953 359.134C446.469 358.427 440.927 357.59 435.729 355.705C410.985 346.73 410.219 314.342 419.383 293.639C426.459 277.655 444.368 262.067 462.226 263.938C464.917 263.561 467.68 263.356 470.522 263.331ZM493.473 278.562C476.456 270.924 455.78 273.211 439.273 281.362C432.734 288.496 427.955 297.487 426.021 305.741C423.956 314.552 424.258 324.043 427.363 332.583C431.154 343.008 440.489 345.59 450.559 347.192L454.469 347.806L456.109 348.055C466.003 349.531 476.821 350.678 486.33 348.831C496.927 346.77 503.658 338.209 508.955 329.432L509.202 329.02C514.703 319.823 519.308 308.638 514.694 298.1C510.771 289.143 502.202 282.48 493.473 278.562ZM593.914 281.224C588.074 277.988 581.413 277.4 575.107 279.566C572.393 280.497 570.049 282.007 567.776 283.7L566.87 284.387C564.074 286.532 561.463 287.619 559.366 290.517L559.096 290.906C558.038 292.486 556.187 293.118 554.501 292.908C552.536 298.325 551.725 304.183 551.708 309.95L551.71 310.714L551.72 311.493C551.846 318.31 553.035 326.649 558.399 331.218C563.291 335.384 570.698 336.384 577.312 336.964L582.408 337.389L583.763 337.491C590.733 337.976 598.372 337.811 604.214 333.685C609.302 330.091 611.702 323.991 612.324 317.968C613.795 303.739 606.593 288.249 593.914 281.224ZM466.795 282.538C476.166 277.754 487.423 278.953 495.361 284.949C494.656 285.087 493.962 285.263 493.27 285.61C491.469 286.513 490.351 288.321 489.925 290.245C489.445 292.42 490.572 294.479 492.719 295.165C494.587 295.761 496.802 296.034 498.537 294.899C499.446 294.305 500.081 293.522 500.498 292.536L500.557 292.391L500.631 292.285L500.658 292.235C500.665 292.216 500.632 292.252 500.58 292.333C500.633 292.21 500.682 292.087 500.731 291.962C500.804 291.813 500.874 291.663 500.931 291.508C501.032 291.421 501.124 291.324 501.217 291.227C502.659 293.446 503.791 295.952 504.51 298.74C509.124 316.635 490.204 335.206 473.301 337.064C466.913 337.766 461.088 336.245 456.254 333.247C456.298 333.188 456.347 333.135 456.387 333.073C458.329 333.422 460.647 332.553 461.352 330.387C463.151 324.862 461.306 318.399 455.286 316.594C451.412 315.432 447.448 316.716 444.679 319.364C442.585 314.239 441.836 308.469 442.827 302.69C444.225 294.537 449.143 287.19 456.797 283.798C460.524 282.145 463.736 281.798 466.795 282.538ZM565.482 293.579L565.767 293.129C568.663 288.673 574.198 283.207 579.935 284.71C580.741 284.921 581.531 285.261 582.243 285.702C585.395 285.274 588.695 285.99 591.405 287.657L591.331 287.844C591.32 287.875 591.309 287.907 591.301 287.94C591.054 289.024 591.198 290.026 591.704 291.022C592.253 292.101 593.036 293.124 594.096 293.743C594.823 294.167 595.678 294.39 596.516 294.373C597.745 294.351 598.827 293.81 599.715 292.984C600.198 292.536 600.535 291.879 600.721 291.203C601.159 291.623 601.584 292.091 601.989 292.622C608.64 301.368 607.721 315.422 599.918 323.218C599.603 323.532 599.268 323.816 598.937 324.106C595.769 328.467 590.886 331.427 585.021 332.026C579.591 332.581 574.161 330.975 569.997 327.683C570.332 327.505 570.645 327.274 570.915 326.968C571.626 326.163 572.211 325.369 572.643 324.386C572.752 324.138 572.856 323.889 572.956 323.638L573.1 323.259C573.125 323.189 573.347 322.55 573.288 322.662L573.274 322.688L573.353 322.504C574.098 320.643 573.797 318.517 572.028 317.35L571.833 317.229C571.255 316.892 570.539 316.733 569.814 316.731C568.008 314.52 565.32 314.013 562.797 314.659L562.708 313.945C562.695 313.826 562.683 313.706 562.675 313.587C560.72 307.106 561.663 299.741 565.482 293.579ZM478.685 228.329L479.335 228.228C484.243 227.518 487.58 228.335 490.771 232.53C492.292 234.529 491.823 237.548 490.771 239.591C487.373 246.192 478.025 244.827 471.729 246.138C465.582 247.417 459.45 249.158 453.698 251.692C447.829 254.278 442.32 257.337 436.948 260.83C432.089 263.991 427.682 268.742 422.131 270.581C421.881 270.664 421.58 270.44 421.596 270.175C421.991 263.862 427.264 258.067 431.348 253.571C436.072 248.372 441.817 243.756 447.8 240.086C453.974 236.3 460.648 233.183 467.558 231.009C471.197 229.864 474.92 228.954 478.685 228.329ZM553.462 236.901C559.642 227.864 575.005 229.597 584.07 232.012C595.436 235.038 607.752 241.159 615.722 250.019C622.861 257.956 612.18 268.268 604.152 261.589L602.009 259.812L600.638 258.686C594.475 253.652 588.372 249.097 580.862 245.741C572.056 241.808 563.133 239.892 553.826 237.796C553.46 237.714 553.245 237.218 553.462 236.901Z" fill="black"/>
</svg>
