<svg width="818" height="1210" viewBox="0 0 818 1210" fill="none" xmlns="http://www.w3.org/2000/svg">
<path fill-rule="evenodd" clip-rule="evenodd" d="M386.476 500.609L374.241 530.855L380.982 626.725L385.998 627.507C438.973 635.718 474.97 639.866 493.99 639.951L494.579 639.952C513.733 639.952 536.684 635.674 563.433 627.117L564.652 626.725L567.739 554.94H560.457L547.285 524.057L547.297 524.047C547.442 524.294 547.593 524.534 547.75 524.767C553.242 532.89 556.425 526.33 569.328 529.203C584.776 532.643 591.633 548.256 605.234 559.924C611.549 565.342 624.802 567.895 631.144 571.62L637.807 575.534C658.682 587.847 682.675 602.804 695.273 622.288C710.041 645.13 720.221 666.807 729.621 692.217C749.883 746.986 763.947 802.875 773.996 860.351C784.182 918.604 790.303 977.58 794.978 1036.51C797.144 1063.82 798.981 1091.15 800.505 1118.5L800.879 1125.34C801.68 1140.22 800.984 1154.78 787.453 1163.95C777.759 1170.51 764.892 1171.51 753.518 1172.19L752.899 1172.22C668.806 1177.16 584.71 1182.05 500.615 1186.96L374.474 1194.33C353.486 1195.56 332.497 1196.78 311.508 1198L260.275 1200.95C236.129 1202.33 211.953 1203.52 187.774 1203.38C157.354 1203.2 127.063 1200.95 96.9233 1196.9L94.2643 1196.54C75.3023 1193.92 47.8083 1187.29 44.4023 1164.55C43.9133 1161.29 46.7873 1159.25 49.2003 1159.72C48.4063 1156.02 47.9133 1152.31 47.4423 1149.09C45.4213 1135.33 44.1523 1121.48 43.5253 1107.59C42.2673 1079.79 43.3273 1051.86 46.1063 1024.19C50.7038 978.4 57.1484 932.691 63.8076 887.142L65.2903 877.023C72.3733 828.765 80.8063 780.588 94.0023 733.581C106.192 690.157 125.209 644.983 151.376 617.525C177.543 590.066 214.851 566.21 253.186 551.597C256.506 550.331 322.466 535.89 326.91 537.993L327.708 537.368C340.858 526.986 359.618 508.749 378.933 514.492L378.978 514.42C379.433 513.582 381.217 507.979 383.682 500.61L386.476 500.609Z" fill="#8FA7DF"/>
<path fill-rule="evenodd" clip-rule="evenodd" d="M400.426 460.353C416.402 440.099 433.242 433.66 458.126 435.169C475.001 434.566 491.831 438.946 506.12 448.622C519.212 455.463 530.822 464.88 539.109 477.002C546.196 487.366 540.812 512.976 547.285 524.057C547.222 525.263 547.189 526.363 547.189 527.355C547.189 536.944 553.863 547.645 567.209 559.457L567.739 559.924V629.603C545.301 636.503 517.521 639.952 484.398 639.952C451.769 639.952 417.832 634.474 382.585 623.517L380.982 623.015L374.241 547.286L380.982 526.33L380.981 508.778L383.586 500.927C388.198 487.123 395.259 466.904 400.426 460.353Z" fill="#D08B5B"/>
<path fill-rule="evenodd" clip-rule="evenodd" d="M380.982 623.015C380.982 623.015 440.227 640.267 480.672 640.267C521.117 640.267 564.652 623.015 564.652 623.015L557.589 1190.93L443.915 1192.32L380.982 623.015Z" fill="#9FD8E5"/>
<path fill-rule="evenodd" clip-rule="evenodd" d="M185.956 870.984C185.518 870.164 186.534 869.427 187.208 870.018C202.521 883.456 210.538 905.037 212.219 924.985C214 946.138 211.475 968.039 210.51 989.183C209.436 1012.74 208.471 1036.3 207.16 1059.84C205.829 1083.72 204.395 1107.6 203.166 1131.49L200.401 1185.22V1185.22C200.107 1190.95 200.744 1197.99 198.546 1203.34C195.14 1211.63 185.022 1210.34 182.896 1203.42L182.83 1203.19L182.636 1203.34C180.76 1197.1 182.164 1189.69 182.482 1183.23L185.379 1124.52V1124.52C187.425 1083.02 189.251 1041.52 191.449 1000.03L192.197 986.197C193.224 967.579 194.012 949.007 194.645 930.395L194.851 924.189C195.452 905.501 194.975 887.858 185.956 870.984ZM557.165 526.47C565.696 525.66 572.138 528.489 579.883 531.469C583.257 532.766 586.452 534.265 589.689 535.817C593.742 537.76 596.348 541.196 598.843 544.828L600.177 546.785C610.568 562.009 617.558 579.573 625.445 596.148C634.671 615.537 643.989 634.884 653.018 654.365L657.474 663.963C659.702 668.762 661.923 673.564 664.11 678.382L667.891 686.766C671.688 695.268 675.093 704.264 669.68 713.035C664.647 721.193 655.724 727.505 648.659 733.811C642.765 739.073 636.87 744.334 630.973 749.594C643.162 761.8 651.345 777.169 656.155 793.651C662.989 790.804 671.33 790.258 678.396 789.026C688.287 787.302 689.499 802.276 680.164 802.093C673.27 801.958 665.182 802.662 658.11 801.21C659.339 806.626 660.231 812.124 660.798 817.637C663.77 846.533 657.276 875.596 650.504 903.553L649.946 905.848C642.591 936.108 635.617 966.447 629.378 996.958C623.125 1027.53 617.5 1058.24 612.507 1089.05C607.425 1120.4 603.829 1151.93 599.964 1183.46C599.379 1188.23 596.377 1192.32 591.105 1192.32C586.713 1192.32 581.693 1188.22 582.245 1183.46C586.233 1149.13 591.889 1114.98 597.508 1080.89C607.187 1022.17 619.368 963.972 633.381 906.152L635.829 896.083C642.134 869.968 647.854 843.06 644.691 816.123C642.115 794.189 632.944 770.802 614.818 757.178L614.266 756.768C610.032 753.663 608.403 747.725 612.573 743.636C615.227 741.034 617.884 738.435 620.542 735.837L636.498 720.259L639.715 717.113C642.398 714.494 645.093 711.891 647.868 709.368C649.548 707.842 654.103 704.932 654.436 702.422C654.653 700.784 652.713 697.906 651.927 696.397L648.325 689.128V689.128C646.28 684.983 644.298 680.808 642.301 676.639C638.163 668.003 633.965 659.393 629.917 650.714L605.596 598.602V598.602C598.735 583.9 592.623 568.379 583.653 554.787L581.885 552.138C580.409 549.907 579.105 547.76 578.171 545.031C577.274 542.406 576.148 539.524 574.49 537.284C570.605 532.027 563.179 529.045 556.966 527.944C556.068 527.784 556.394 526.544 557.165 526.47ZM370.112 512.783C370.652 512.783 370.734 513.554 370.236 513.704C362.74 515.958 355.577 519.595 349.733 524.845C346.937 527.357 344.122 530.208 342.396 533.59C341.735 534.884 341.37 536.251 341.102 537.669L341.016 538.143C340.571 540.704 339.933 542.129 338.632 544.179L338.409 544.527C330.982 555.996 325.777 568.735 321.018 581.49L310.654 609.301V609.301L300.297 637.116C296.96 646.078 293.621 655.041 290.283 664.003C288.439 668.951 286.543 673.878 284.648 678.806C283.828 680.941 282.946 683.06 282.196 685.221C282.093 685.516 281.765 687.295 281.519 687.727L281.603 687.874V687.874C283.692 691.388 289.263 694.324 292.421 696.877L303.295 705.668V705.668C311.048 711.937 319 718.03 326.52 724.579C331.244 728.691 328.305 736.055 323.037 737.772C314.209 740.648 305.56 744.09 296.864 747.344C293.351 748.658 289.694 749.802 286.222 751.251L284.108 752.164C283.283 752.535 283.68 752.532 283.713 754.055C283.746 755.653 284.199 757.318 284.459 758.888C287.388 776.598 290.493 794.278 293.77 811.927C305.362 874.338 319.211 936.293 335.006 997.772C342.984 1028.82 351.54 1059.71 359.693 1090.71C367.826 1121.63 378.527 1152.11 388.745 1182.39C391.628 1190.93 378.087 1194.6 375.275 1186.1C363.499 1150.49 352.726 1114.56 341.601 1078.75C321.835 1015.11 306.259 950.084 292.483 884.905C285.655 852.601 279.41 820.173 273.754 787.643C272.683 781.485 271.633 775.322 270.604 769.157L269.105 760.088C268.077 753.623 267.492 746.89 272.517 741.774C277.423 736.781 285.846 735.011 292.302 732.669L292.771 732.497C296.879 730.964 301.017 729.487 305.139 727.964C299.067 723.184 293.07 718.298 287.013 713.521C282.127 709.667 277.164 705.891 272.348 701.949C268.377 698.697 265.139 694.522 264.725 689.234C264.303 683.829 266.619 678.814 268.487 673.857L268.666 673.378C270.5 668.429 272.339 663.483 274.225 658.553L285.895 628.034V628.034C293.311 608.641 300.414 589.091 308.214 569.849C311.3 562.234 314.663 554.739 318.637 547.541C320.553 544.07 322.608 540.673 324.841 537.397C327.343 533.723 329.614 531.932 333.491 529.905C339.69 526.664 344.555 521.23 350.78 517.889C356.89 514.609 363.176 512.859 370.112 512.783ZM390.236 478.184C390.473 477.777 391.101 477.959 391.109 478.421C391.271 488.059 388.981 497.908 387.572 507.438C386.157 517.002 385.703 527.097 383.656 536.559C383.614 537 383.529 537.435 383.408 537.861L383.31 538.185V538.185C382.446 540.836 380.199 543.083 377.442 543.785C378.309 548.589 379.126 553.401 379.813 558.239C380.993 566.555 382.07 574.883 383.129 583.214L384.397 593.211C385.594 602.633 386.758 612.059 387.909 621.486C390.836 622.71 393.823 623.72 396.882 624.595C403.927 626.611 411.143 627.431 418.413 628.144C433.219 629.597 448.138 630.269 462.995 631.094L466.178 631.273C482.882 632.23 499.677 632.4 516.339 630.686C524.601 629.836 532.798 628.41 540.855 626.389C544.949 625.362 548.928 623.828 553.014 622.824C554.369 622.491 555.58 621.723 556.938 620.903C557.541 620.141 558.387 619.564 559.489 619.341L559.788 619.289V619.289L560.083 619.246L560.185 619.2L560.177 619.232C561.013 619.119 561.807 619.12 562.556 619.222C562.854 611.872 563.177 604.522 563.582 597.174C564.669 577.438 567.67 556.85 563.664 537.286C563.53 536.628 564.425 536.396 564.658 537.012C572.519 557.723 571.636 580.37 572.032 602.168C572.419 623.485 572.185 644.817 572.079 666.139C573.606 666.789 574.968 667.67 576.047 668.906C578.202 671.376 578.822 675.67 576.047 678.054C574.817 679.111 573.456 679.845 572.012 680.354C571.935 698.877 571.804 717.402 571.618 735.926C575.141 738.647 575.47 745.108 571.485 747.793C570.822 807.781 569.732 867.771 568.828 927.75L566.934 1053.59V1053.59C566.682 1070.35 566.264 1087.12 566.114 1103.88L566.233 1103.93V1103.93L566.653 1104.12C567.358 1104.46 568.409 1104.99 568.626 1105.54C568.683 1105.68 568.698 1105.78 568.691 1105.86C569.847 1106.02 570.992 1106.56 571.983 1107.5C574.429 1109.83 573.932 1113.33 571.983 1115.7L571.462 1116.33V1116.33C570.247 1117.81 567.94 1118.37 566.056 1118.07C566.075 1128.54 566.142 1139 566.109 1149.47C566.099 1152.66 566.05 1155.86 565.995 1159.05L565.863 1166.72C565.776 1171.09 565.388 1176.65 560.909 1178.61C555.856 1180.83 551.325 1179.01 549.279 1173.88C548.725 1172.49 548.844 1171.19 549.046 1169.82C548.983 1167.76 548.66 1165.36 548.7 1163.45L548.867 1155.46V1155.46C548.893 1154.23 548.943 1152.99 548.978 1151.76L548.832 1151.78V1151.78C530.878 1152.65 512.798 1152.22 494.814 1152.21L486.815 1152.22C480.142 1152.23 473.454 1152.19 466.79 1151.94L464.292 1151.83C459.303 1151.6 454.056 1151.52 448.884 1151.08C449.543 1156.39 450.159 1161.7 450.708 1167.02C451.228 1172.06 446.023 1176.35 441.38 1176.35C435.866 1176.35 432.712 1172.01 432.052 1167.02C428.936 1143.46 427.661 1119.69 424.684 1096.12C422.018 1075 419.706 1053.84 417.356 1032.69L416.57 1025.64C407.97 948.664 399.62 871.659 391.633 794.617L387.915 758.602C384.159 722.302 380.381 686 377.195 649.646C375.373 628.862 373.694 608.074 372.114 587.27C370.955 571.986 370.227 556.787 369.753 541.533C367.884 539.61 366.947 536.802 367.775 533.902C368.259 532.21 368.822 530.527 369.416 528.847C369.379 527.196 369.34 525.546 369.308 523.893C369.278 522.329 370.866 521.524 372.137 521.783C374.447 516.19 376.991 510.645 379.114 505.106C382.55 496.14 385.382 486.479 390.236 478.184ZM198.341 575.086C234.26 552.576 277.016 536.378 319.839 538.122C320.813 538.162 321.087 539.646 320.076 539.871C297.234 544.971 274.141 551.183 252.516 560.224C230.828 569.292 210.206 581.502 191.839 596.175C157.951 623.247 131.611 658.46 114.267 698.153C104.108 721.405 96.9872 745.953 90.7692 770.51C84.1892 796.499 78.7662 822.768 74.2572 849.195C65.3512 901.396 60.1662 954.172 57.4072 1007.04C54.6002 1060.82 55.7572 1114.63 53.7552 1168.42C53.4092 1177.74 40.0892 1177.56 39.4122 1168.42C34.8762 1107.27 37.3892 1045.14 41.5842 984.033C45.3562 929.099 51.9432 874.28 62.5502 820.23L63.4742 815.545C73.39 765.539 85.3503 714.32 109.322 669.034C129.788 630.371 161.384 598.248 198.341 575.086ZM697.131 814.083C697.318 813.547 698.026 813.554 698.215 814.083C702.31 825.545 702.457 838.479 703.545 850.561L703.631 851.489C704.674 862.509 705.46 873.543 706.191 884.586L706.463 888.728C709.396 933.778 713.062 978.778 718.587 1023.59C724.092 1068.23 731.535 1112.57 739.583 1156.81C740.48 1161.74 738.298 1166.76 733.132 1168.18C728.578 1169.43 722.733 1166.62 721.77 1161.72C716.773 1136.33 712.732 1110.9 709.127 1085.28C702.781 1040.18 698.045 994.861 695 949.411C693.472 926.584 692.531 903.766 692.157 880.89C691.984 870.276 692.259 859.637 692.825 849.034L692.961 846.588C693.585 835.751 693.521 824.418 697.131 814.083ZM309.004 1101.03C309.484 1100.77 310.078 1101.3 309.774 1101.8C302.819 1113.1 293.41 1122.84 284.316 1132.45C274.809 1142.49 265.537 1152.84 255.838 1162.68C248.83 1169.79 237.557 1158.32 244.953 1151.79C255.352 1142.62 266.221 1133.91 276.805 1124.94L281.433 1121.01C290.111 1113.68 299.047 1106.42 309.004 1101.03ZM639.345 1095.36C638.826 1094.38 640.012 1093.57 640.818 1094.23C646.428 1098.79 651.456 1104.23 656.873 1109.05C662.238 1113.82 667.803 1118.26 673.52 1122.6C679.261 1126.96 685.127 1131.14 691.151 1135.1C696.148 1138.38 701.298 1141.01 706.531 1143.73C708.954 1144.04 711.198 1145.23 712.994 1147.49C715.834 1151.05 716.136 1157.78 712.197 1160.87L711.49 1161.43V1161.43C706.893 1165.04 701.436 1165.48 696.911 1161.43C691.858 1156.9 687.082 1151.93 682.23 1147.14L680.772 1145.72C675.558 1140.65 670.471 1135.42 665.675 1129.95L661.333 1125.01C653.279 1115.83 644.895 1105.93 639.345 1095.36ZM613.503 565.831C612.57 565.213 613.145 563.549 614.297 563.946L616.41 564.676C625.237 567.743 634.324 571.145 642.339 575.869C650.952 580.944 658.905 586.99 666.503 593.476C682.23 606.901 695.61 623.41 706.981 640.617C729.797 675.146 743.907 714.69 755.299 754.257C767.446 796.445 776.798 839.541 784.434 882.759C792.193 926.68 798.179 970.997 802.113 1015.43C804.051 1037.31 805.352 1059.21 806.006 1081.17C806.343 1092.47 806.332 1103.76 806.238 1115.06C806.214 1117.97 806.233 1120.87 806.266 1123.78L806.377 1132.5C806.436 1138.01 807.096 1143.8 805.786 1149.18C803.678 1157.85 789.348 1156.23 789.819 1147.37C789.387 1144.43 789.37 1141.38 789.482 1138.33C789.414 1137.93 789.34 1137.53 789.258 1137.13C789.023 1135.95 789.223 1134.87 789.683 1133.94C789.757 1132.47 789.824 1131.02 789.848 1129.59C789.942 1123.77 789.936 1117.97 789.775 1112.16C789.436 1099.89 788.948 1087.63 788.455 1075.37C787.47 1050.87 786.1 1026.35 784.114 1001.91C777.204 916.845 762.613 831.29 738.104 749.447C726.721 711.441 711.028 674.132 688.523 641.29C678.533 626.71 667.262 613.243 654.767 600.744C642.193 588.167 628.337 575.655 613.503 565.831ZM443.915 1114.23L445.614 1126.52C446.463 1132.66 447.303 1138.8 448.101 1144.95C453.522 1144.21 459.068 1143.9 464.292 1143.44C473.437 1142.63 482.645 1142.24 491.817 1141.86C510.784 1141.07 529.846 1139.72 548.832 1139.81C549.027 1139.81 549.211 1139.83 549.395 1139.84L550.337 1115.6V1115.6L536.997 1115.58V1115.58C525.695 1115.56 514.395 1115.47 503.093 1115.37C492.914 1115.28 482.732 1115.27 472.555 1115.06L468.193 1114.95C460.475 1114.75 451.953 1115.17 443.915 1114.23ZM551.456 1079.05C550.912 1079.11 550.358 1079.17 549.769 1079.19C547.127 1079.3 544.464 1079.22 541.82 1079.25C536.19 1079.3 530.561 1079.33 524.93 1079.33C513.67 1079.33 502.411 1079.4 491.153 1079.54C479.563 1079.68 467.981 1079.88 456.39 1079.9C450.774 1079.91 445.176 1079.76 439.562 1079.6C440.47 1087.58 441.419 1095.55 442.467 1103.51C451.185 1102.33 460.562 1102.92 469.082 1102.84L470.188 1102.83C481.817 1102.63 493.456 1102.77 505.088 1102.79C517.054 1102.8 529.019 1102.84 540.986 1102.94L550.817 1103.02V1103.02L550.836 1102.53V1102.53C551.124 1094.71 551.31 1086.88 551.456 1079.05ZM435.237 1040.88C436.327 1050.3 437.35 1059.73 438.393 1069.16C439.086 1069.05 439.788 1068.96 440.503 1068.89C446.127 1068.3 451.739 1067.8 457.383 1067.45C468.634 1066.75 479.884 1066.38 491.153 1066.08C502.741 1065.77 514.331 1065.53 525.923 1065.37C531.555 1065.29 537.182 1065.29 542.814 1065.33C545.456 1065.35 548.125 1065.27 550.762 1065.45C551.076 1065.47 551.377 1065.5 551.675 1065.53L551.873 1051.38C551.907 1049.02 551.943 1046.66 551.981 1044.3C543.277 1044.84 534.428 1044.63 525.73 1044.63L523.725 1044.64C512.796 1044.69 501.863 1044.54 490.936 1044.31C479.663 1044.08 468.413 1043.71 457.16 1042.99C452.601 1042.69 448.075 1042.31 443.541 1041.81L441.273 1041.55C439.3 1041.31 437.268 1041.13 435.237 1040.88ZM552.879 1000.93C531.916 1002.59 511.065 1003.29 490.046 1003.49L486.892 1003.52C468.318 1003.66 449.591 1004.43 430.973 1003.94C432.086 1013.59 433.196 1023.24 434.315 1032.89C436.981 1032.76 439.66 1032.76 442.266 1032.67C447.567 1032.48 452.85 1032.43 458.154 1032.42C469.081 1032.39 480.008 1032.49 490.936 1032.46C502.198 1032.44 513.458 1032.25 524.718 1032.04C533.847 1031.87 543.073 1031.18 552.227 1031.21L552.879 1000.93V1000.93ZM553.766 959.753C551.337 960.56 548.469 960.612 545.325 960.756L537.21 961.16C533.449 961.345 529.687 961.518 525.923 961.655C513.382 962.114 500.841 962.543 488.298 962.942C475.445 963.35 462.53 963.587 449.675 963.182C443.378 962.983 437.134 962.653 430.856 962.128C429.304 961.998 427.722 961.913 426.137 961.801C427.598 974.588 429.065 987.373 430.537 1000.16C449.066 997.884 467.738 996.468 486.244 994.116L502.978 991.98C519.703 989.845 536.415 987.751 553.201 985.985L553.766 959.753V959.753ZM554.659 918.124C551.095 919.004 547.033 918.96 543.61 919.176L542.976 919.22C536.491 919.712 529.989 919.958 523.489 920.118C510.749 920.432 498.001 920.589 485.257 920.667L477.594 920.715C467.378 920.775 457.168 920.801 446.948 920.562C440.393 920.41 433.853 920.089 427.303 919.761C425.341 919.662 423.335 919.597 421.323 919.496C422.692 931.602 424.075 943.705 425.455 955.809C427.607 955.467 429.769 955.207 431.83 954.859C437.109 953.967 442.378 953.255 447.695 952.618C459.211 951.238 470.787 950.245 482.357 949.407C494.235 948.546 506.123 947.818 518.003 946.985L526.417 946.392C529.222 946.198 532.026 946.009 534.832 945.837C539.624 945.543 545.194 945.875 549.947 944.832C551.234 944.296 552.663 944.173 554.094 944.479L554.659 918.124V918.124ZM555.738 869.397C554.505 870.963 552.663 871.784 550.467 872.068C539.028 873.552 527.295 873.791 515.759 874.49L513.725 874.618C501.814 875.403 489.896 876.019 477.976 876.652C465.731 877.302 453.488 877.832 441.233 878.259C436.031 878.44 430.802 878.462 425.591 878.395L423.359 878.361C421.219 878.325 418.978 878.33 416.732 878.257C417.975 889.577 419.23 900.896 420.503 912.212C422.793 911.963 425.082 911.773 427.303 911.538C433.849 910.846 440.387 910.162 446.948 909.645C459.38 908.665 471.821 908.076 484.276 907.46C497.019 906.829 509.769 906.409 522.514 905.814C528.693 905.525 534.87 905.166 541.031 904.598C545.349 904.201 550.478 902.731 554.983 903.271C555.229 891.979 555.485 880.688 555.738 869.397ZM556.743 825.747C556.548 826.049 556.32 826.341 556.043 826.613C551.007 831.589 544.8 831.205 538.127 831.727L537.717 831.76C531.176 832.31 524.632 832.833 518.084 833.305C504.995 834.25 491.88 834.911 478.772 835.5C465.357 836.103 451.856 836.518 438.428 836.244C429.829 836.068 420.823 836.099 412.052 835.261C413.399 847.728 414.754 860.194 416.119 872.659C418.585 872.194 421.067 871.838 423.418 871.468C429.343 870.536 435.274 869.599 441.233 868.913C453.141 867.542 465.052 866.26 476.983 865.103C487.187 864.114 497.387 863.11 507.597 862.206L513.725 861.676C525.908 860.651 538.245 858.961 550.467 858.711C552.481 858.67 554.759 859.766 555.913 861.496C556.183 849.579 556.463 837.663 556.743 825.747ZM557.589 790.41C554.478 790.788 551.126 790.573 548.255 790.667C540.996 790.904 533.736 791.124 526.476 791.338L482.915 792.624V792.624C468.084 793.061 453.201 793.389 438.364 793.179C431.838 793.088 425.282 793.077 418.758 792.722L416.584 792.59C413.899 792.411 410.604 792.386 407.386 792.059L411.185 827.246V827.246C419.914 825.985 428.909 825.514 437.563 824.774L439.412 824.611C452.176 823.448 465.001 822.679 477.788 821.813C490.905 820.925 504.003 819.847 517.102 818.744C523.649 818.194 530.195 817.645 536.737 817.043L537.545 816.964C543.725 816.319 549.536 814.946 555.009 818.589C555.81 819.121 556.437 819.833 556.866 820.63C557.105 810.557 557.339 800.483 557.589 790.41ZM558.604 749.345C532.075 750.413 505.542 751.223 478.993 751.579C464.049 751.779 449.124 751.638 434.182 751.326C427.703 751.19 421.17 750.881 414.696 750.384L412.271 750.189C409.193 749.93 405.959 749.742 402.739 749.432C404.07 761.53 405.39 773.63 406.7 785.732C409.868 785.144 413.178 784.872 415.954 784.517L416.584 784.433C423.481 783.484 430.443 782.931 437.374 782.321C450.87 781.132 464.433 780.366 477.965 779.715C491.822 779.048 505.686 778.483 519.545 777.867L533.406 777.247C535.715 777.145 538.025 777.044 540.335 776.946C543.636 776.807 546.936 776.674 550.236 776.537C551.864 776.47 553.556 776.249 555.186 776.333L555.65 776.271C555.864 776.244 556.053 776.222 556.226 776.203C556.67 775.866 557.147 775.586 557.653 775.374L557.959 775.254L558.604 749.345ZM398.389 710.429C399.621 721.32 400.839 732.214 402.041 743.109C405.825 742.677 409.654 742.438 413.267 742.113C420.552 741.46 427.871 740.888 435.178 740.552L449.782 739.874C459.517 739.424 469.251 738.989 478.993 738.633C505.655 737.66 532.316 736.545 558.962 735.184C559.15 727.795 559.344 720.406 559.542 713.017C558.263 714.387 556.415 715.288 553.987 715.282C526.013 715.207 498.017 715.369 470.046 714.909C456.045 714.678 442.06 714.339 428.075 713.621C421.232 713.27 414.351 712.554 407.56 711.613C404.664 711.212 401.495 710.926 398.389 710.429ZM393.912 671.62C395.227 682.776 396.517 693.936 397.786 705.098C401.26 704.478 404.849 704.148 408.09 703.707C415.054 702.76 422.061 702.006 429.075 701.61C442.723 700.838 456.379 700.449 470.046 700.159C498.015 699.565 526.012 699.569 553.987 699.348C556.615 699.327 558.566 700.367 559.847 701.919C560.041 694.952 560.246 687.985 560.457 681.017C557.755 680.732 555.076 680.328 552.597 680.155C544.978 679.623 537.356 679.137 529.731 678.7C513.819 677.787 497.892 677.008 481.969 676.315C466.042 675.622 450.11 674.945 434.178 674.355L427.211 674.101C416.131 673.689 404.864 673.168 393.912 671.62ZM388.902 629.603C390.271 640.902 391.619 652.203 392.964 663.506L393.373 667.004V667.004C406.698 664.414 420.741 663.655 434.178 663.084C450.113 662.406 466.02 662.057 481.969 662.106C497.902 662.154 513.811 662.531 529.731 663.189C537.686 663.517 545.64 663.897 553.59 664.329C555.776 664.447 558.339 664.384 560.977 664.422C561.034 662.646 561.083 660.87 561.144 659.095C561.386 651.901 561.623 644.707 561.87 637.514C556.493 640.276 549.502 641.39 544.098 642.567L543.481 642.703C534.558 644.707 525.447 646.006 516.339 646.8C498.453 648.36 480.381 647.777 462.512 646.266L459.382 645.999C443.691 644.638 427.423 642.913 412.211 639.03C404.965 637.181 397.474 634.593 390.981 630.842C390.306 630.452 389.609 630.039 388.902 629.603ZM539.99 495.328C540.145 494.717 541.06 494.578 541.361 495.149C543.474 499.163 544.26 503.981 545.727 508.282C547.306 512.906 548.779 517.564 550.521 522.132C554.16 531.676 558.453 540.847 563.571 549.688C568.64 558.442 554.447 564.691 550.717 555.107C546.866 545.217 543.701 534.991 541.786 524.54C540.851 519.441 540.018 514.272 539.748 509.091C539.515 504.641 538.889 499.669 539.99 495.328Z" fill="black"/>
<path fill-rule="evenodd" clip-rule="evenodd" d="M481.041 89.2189C537.822 89.2189 596.552 133.231 617.365 161.316C641.432 193.791 660.417 349.688 651.511 402.587C642.604 455.486 598.365 513.143 521.567 513.143C444.768 513.143 398.031 503.684 396.157 489.944C394.283 476.204 345.503 399.724 345.503 399.724C345.503 399.724 295.613 385.692 295.418 352.173C295.223 318.654 322.152 306.459 322.152 306.459C322.152 306.459 312.551 174.18 336.733 139.741C360.914 105.302 424.261 89.2189 481.041 89.2189Z" fill="#D08B5B"/>
<path fill-rule="evenodd" clip-rule="evenodd" d="M442.758 3.80444C450.394 -5.18226 463.863 3.31223 463.558 13.1325C466.607 13.9577 470.203 16.8048 471.59 20.5166C474.591 20.322 477.617 20.9183 480.342 22.4771L480.917 21.7692C490.362 10.238 502.861 0.342898 515.758 8.83475C519.269 11.1458 520.84 14.9651 520.066 19.1049L520.007 19.398L520.292 18.1198C520.583 16.9054 520.149 19.3353 519.986 19.8495L519.966 19.9079C519.625 20.7737 519.285 21.2097 518.977 21.8642C532.181 12.4831 552.287 17.9744 541.693 36.1341L546.001 34.4538C560.907 28.6934 579.441 22.5077 593.029 32.8645C599.103 38.7075 592.361 46.4986 586.172 48.3873L587.236 48.2093C599.113 46.1925 623.89 41.2076 627.43 56.6684C628.703 62.2315 624.991 66.2972 620.307 68.5355C630.218 68.4991 639.993 70.1329 648.569 74.9696C656.726 80.7669 650.133 90.3602 641.602 89.9419C644.247 93.2125 645.125 98.7475 642.571 102.28C647.419 103.553 651.892 105.19 656.014 107.742L657.147 107.887C665.388 108.915 674.789 109.527 679.322 117.62C685.994 135.18 662.237 134.481 652.04 128.313C652.645 129.297 653.094 130.371 653.345 131.517L656.649 132.445C669.116 135.912 683.224 139.742 691.25 150.234C694.929 156.271 689.809 166.532 682.117 164.698C702.961 174.625 694.972 200.774 674.587 187.171C673.634 188.054 672.474 188.709 671.26 188.999L675.561 191.33C686.486 197.312 699.625 205.5 697.344 219.079C695.174 226.266 685.205 224.953 680.138 222.202C688.991 229.815 697.345 238.058 704.933 246.969L707.033 249.467C712.935 256.54 723.201 269.561 712.08 276.365C698.369 283.343 691.536 262.737 683.562 255.382C689.938 270.385 669.21 280.847 661.975 265.736C660.76 265.95 659.538 265.971 658.34 265.81C664.578 272.422 681.448 317.663 660.464 307.742C657.122 304.206 654.189 300.342 651.493 296.286C654.862 322.207 657.326 348.249 658.92 374.31L659.487 383.758C660.066 393.557 660.505 403.398 659.404 413.164C658.133 424.534 654.864 435.204 649.914 445.504C645.353 455.004 639.473 463.804 632.744 471.894C629.144 476.224 625.324 480.434 620.624 483.603C616.883 486.124 612.513 487.784 608.303 489.384C601.454 496.224 592.664 501.394 584.074 505.524C569.914 512.314 554.564 516.064 539.034 517.944C523.154 519.853 507.114 519.394 491.364 516.664C476.314 514.064 460.183 507.414 450.914 494.744C450.114 493.654 451.603 492.624 452.583 493.074C479.484 505.524 509.713 508.774 539.034 504.844C552.713 503.014 566.173 499.234 578.664 493.364C589.204 488.414 598.093 481.214 607.553 474.694C609.394 472.244 611.253 469.834 613.374 467.594L616.683 464.124C619.156 461.518 621.585 458.877 623.793 456.024C630.614 447.234 636.263 437.264 639.994 426.774C647.25 406.355 645.287 384.19 644.005 362.91L643.894 361.034C642.574 338.274 640.423 315.594 637.444 292.994C636.205 283.589 634.827 274.2 633.317 264.831C630.897 260.895 628.313 257.086 625.42 253.517C627.774 262.665 619.623 275.382 609.628 269.344C598.183 259.56 598.736 243.768 589.144 231.787C579.2 216.428 510.593 186.556 490.195 182.362C493.481 187.142 499.484 190.472 500.884 196.114C525.969 218.278 485.078 230.077 472.309 198.49C472.592 209.006 473.658 219.431 475.997 229.696C479.404 239.122 482.079 266.439 464.994 258.195C456.815 260.557 450.579 253.591 449.553 245.731C443.645 263.493 449.232 291.868 438.399 304.958C435.077 308.401 429.944 306.109 428.217 302.177C418.198 299.553 419.053 287.874 417.838 279.514C408.701 312.835 397.265 335.964 395.69 370.724C402.76 380.789 387.252 388.191 380.596 380.125C371.254 366.628 379.868 348.177 382.066 333.403C379.438 333.268 376.837 332.101 374.668 329.553C373.485 334.19 374.164 340.298 374.563 345.327C368.639 368.487 346.118 353.652 347.05 334.866C346.077 340.166 345.341 345.52 344.873 350.913C349.223 355.917 352.447 361.907 354.353 368.264C355.725 372.858 351.055 375.612 347.491 374.946C345.594 381.416 337.369 386.085 331.959 379.9C326.612 374.492 325.683 366.677 325.256 358.897C324.512 358.106 324.058 357.069 324.133 355.814C324.201 354.636 324.491 353.635 324.951 352.794C324.861 351.203 324.747 349.642 324.573 348.134C320.434 361.01 323.127 374.501 323.489 387.688C330.8 391.805 339.146 393.565 347.529 395.302L348.744 395.554C351.333 396.094 352.154 399.954 350.204 401.574C355.394 406.654 359.874 412.714 364.244 418.304C370.047 425.72 375.596 433.43 380.994 441.157L384.163 445.696C393.418 458.878 406.214 476.736 400.484 492.974C399.704 495.204 396.444 496.004 395.173 493.664C391.003 485.964 388.673 477.484 384.713 469.694C380.824 462.054 375.984 454.974 371.183 447.894L368.414 443.791C363.804 436.939 359.236 430.013 355.003 422.954L352.055 418.067C349.286 413.452 346.544 408.683 344.503 403.724C337.233 405.477 329.626 404.219 322.654 401.188L322.565 401.673L322.388 402.544C321.393 406.736 315.61 409.601 311.916 406.859C303.074 400.193 299.474 390.271 298.536 379.662C296.754 376.665 295.243 373.501 294.011 370.226C293.43 376.76 290.909 383.094 283.142 382.897C269.663 381.791 268.341 369.061 271.985 356.4C256.028 361.273 254.158 338.708 259.194 326.816C257.324 326.257 255.593 325.144 254.602 323.643L253.775 325.093C250.708 330.403 247.232 335.558 242.387 338.313C235.618 342.163 225.776 337.395 226.226 328.917C227.675 315.102 239.785 304.579 247.157 293.507C245.845 293.692 244.48 293.645 243.142 293.396C228.407 301.615 221.374 282.269 226.563 271.061C230.367 260.991 237.251 252.331 244.629 244.697L242.466 245.989C238.564 248.287 234.21 250.506 229.92 249.605C201.849 268.049 192.635 237.028 224.136 227.332L224.125 227.188V227.188C220.964 224.139 219.592 219.314 222.05 214.493C210.496 218.552 194 209.369 204.185 196.82C210.828 190.565 218.665 185.184 227.353 182.368C226.92 180.065 226.78 177.721 226.959 175.363L226.44 175.434C220.955 176.224 214.193 178.463 210.81 172.557C209.095 169.583 209.296 164.682 212.108 162.369C221.792 154.408 232.84 147.785 244.841 145.1C245.281 143.639 245.741 142.187 246.226 140.741C235.989 140.551 224.494 126.953 236.254 119.249C246.592 113.981 257.243 110.593 268.916 110.907C262.072 104.159 266.112 91.9263 275.213 90.046C269.253 77.3557 283.977 70.8082 294.96 72.8093C294.556 67.1713 297.575 60.8871 303.383 59.4718C300.336 41.6306 319.228 43.3185 331.065 47.5475C327.101 40.6691 331.175 32.5773 338.167 30.1652C349.619 27.573 360.574 38.4807 369.294 45.1697C366.321 38.1914 368.829 31.7573 375.91 28.9768C383.204 26.1224 391.063 31.6387 397.15 35.3869C400.46 31.2307 406.111 29.8759 411.18 30.1329C411.722 28.572 412.516 27.2702 413.535 26.241C413.507 16.6237 429.881 11.3364 435.596 20.295C436.568 14.0659 439.131 8.07198 442.758 3.80444ZM647.613 178.239L647.802 179.274V179.274C648.044 179.488 648.272 179.714 648.505 179.934C649.235 180.107 649.939 180.289 650.607 180.475C649.634 179.687 648.632 178.958 647.613 178.239ZM660.253 153L660.031 153.308C659.993 153.358 659.954 153.408 659.913 153.457C660.531 153.69 661.146 153.929 661.759 154.176L662.678 154.551L663.002 154.694C662.089 154.121 661.174 153.554 660.253 153ZM512.855 25.9424L512.303 26.0793C512.127 26.1221 511.96 26.1619 511.808 26.1984C511.751 26.2129 511.699 26.2192 511.648 26.24L511.792 26.2088V26.2088C511.531 26.4075 511.188 26.6416 510.903 26.829C511.183 26.8061 511.462 26.779 511.743 26.7634C512.11 26.4887 512.481 26.215 512.855 25.9424Z" fill="black"/>
<path fill-rule="evenodd" clip-rule="evenodd" d="M549.872 450.877C543.085 453.545 535.066 454.175 528.061 451.902C521.363 449.727 515.28 444.889 511.6 438.803C508.322 433.383 506.953 426.951 508.89 420.539C508.983 420.232 509.284 420.036 509.574 419.959C511.159 421.402 512.138 422.835 513.116 424.262C514.766 426.666 516.419 429.046 518.688 431.101C521.99 434.092 526.438 436.521 530.853 437.322C535.175 438.108 539.599 437.413 543.47 435.344C545.824 434.087 547.727 432.405 549.611 430.716C551.664 428.878 553.683 427.011 556.51 425.972C558.774 425.14 561.153 425.842 562.981 427.234C564.945 428.731 566.358 431.073 566.28 433.522C566.158 437.316 564.498 440.481 562.088 443.092C558.83 446.622 554.224 449.166 549.872 450.877ZM541.814 356.326C549.366 360.916 560.872 371.62 552.748 382.999C543.186 393.032 529.419 381.528 522.634 376.325C516.343 372.293 509.275 382.664 515.112 387.372C564.136 423.667 584.031 357.527 545.634 350.93C541.406 350.203 539.836 354.906 541.814 356.326ZM462.388 292.728C472.68 292.236 481.75 296.858 491.558 298.958C500.622 300.9 509.552 299.734 518.367 297.264C532.673 293.255 538.587 315.155 524.476 319.423C514.2 322.531 503.38 322.747 492.835 321.145C483.468 319.721 475.616 315.161 466.685 312.506C459.02 310.228 450.004 311.175 441.91 312.247L438.768 312.67C434.098 313.299 429.403 313.93 424.779 314.843C420.767 315.636 416.762 317.087 412.667 317.255C412.202 317.275 411.808 316.671 412.101 316.268C416.858 309.737 426.026 304.584 433.319 301.147L433.813 300.916C442.815 296.719 452.365 293.206 462.388 292.728ZM458.617 340.883L458.616 340.658C458.63 334.281 462.344 319.721 471.524 319.721C477.259 319.721 480.741 329.63 481.344 339.845L481.365 340.261C481.631 346.612 479.888 360.493 471.524 360.493C463.072 360.493 458.704 347.346 458.617 340.883ZM593.773 340.883L593.774 340.658C593.76 334.281 590.046 319.721 580.866 319.721C575.274 319.721 571.824 329.141 571.097 339.079L571.046 339.845C570.684 345.981 572.314 360.493 580.866 360.493C589.318 360.493 593.686 347.346 593.773 340.883ZM593.632 284.961L594.289 284.975C605.017 285.347 616.051 291.702 618.915 302.377C619.064 302.931 618.381 303.304 617.976 302.924C609.154 294.666 597.291 302.557 588.458 306.693L585.214 308.192C573.826 313.49 560.875 319.718 548.232 315.77C542.227 313.895 538.413 307.725 540.126 301.493C541.649 295.948 548.342 291.288 554.14 293.29L554.403 293.385C559.113 295.187 564.904 293.362 569.768 291.562L573.764 290.061C580.19 287.623 586.645 284.895 593.632 284.961Z" fill="black"/>
<path fill-rule="evenodd" clip-rule="evenodd" d="M543.914 382.287C532.793 377.278 512.823 381.649 505.573 383.387C488.718 387.429 471.762 396.164 466.522 409.849C460.617 425.272 472.399 430.127 474.132 429.334C485.8 430.156 499.695 422.821 511.922 420.928C521.848 419.378 532.319 418.025 541.619 412.751C548.409 416.486 563.745 418.505 576.122 421.771C586.663 424.551 591.23 430.58 601.002 429.298C612.714 427.762 607.92 403.129 594.867 393.15C580.581 382.229 556.419 377.8 543.914 382.287ZM565.934 487.613C556.204 489.985 555.551 468.66 554.461 461.126C553.61 455.24 548.807 440.061 536.631 440.716C524.455 441.371 519.878 454.088 520.496 461.998C520.897 467.127 525.623 493.109 510.536 496.396C500.917 496.362 489.789 495.713 479.675 493.848C467.771 491.152 452.292 481.713 448.203 500.302C446.732 506.992 499.169 526.869 522.438 528.667C546.036 533.449 573.647 526.096 590.448 508.043C594.27 503.936 605.036 486.889 605.803 482.713C607.414 473.938 603.683 468.291 592.825 471.384C585.155 475.48 572.191 486.087 565.934 487.613Z" fill="black"/>
</svg>
