<svg width="818" height="1281" viewBox="0 0 818 1281" fill="none" xmlns="http://www.w3.org/2000/svg">
<path fill-rule="evenodd" clip-rule="evenodd" d="M765.567 1193.4C763.141 1170.87 761.646 1148.18 760.788 1125.53C759.931 1102.92 761.052 1080.02 761.544 1057.39C762.547 1011.36 764.177 965.225 760.512 919.266C757.049 875.831 749.098 832.699 736.551 790.965C730.441 770.64 724.002 749.497 713.953 730.717C703.848 711.835 687.842 699.261 670.26 687.73C651.541 675.453 632.972 662.944 614.326 650.553C598.674 640.152 570.507 628.047 557.665 614.142C544.152 599.511 541.612 563.243 532.613 545.911C523.849 529.029 499.041 518.017 479.94 518.017C448.322 518.017 424.366 516.401 398.368 545.648C385.397 560.241 395.718 574.993 382.122 588.999C369.622 601.876 337.654 615.11 321.543 622.582C302.247 631.531 282.464 639.432 262.394 646.47C241.921 653.65 220.932 659.001 200.344 665.777C180.61 672.272 154.842 699.043 139.522 713.208C125.279 726.378 121.744 724.903 110.916 740.902C87.1522 776.013 63.3622 811.527 44.4382 849.542C35.0122 868.478 25.8852 888.397 22.4652 909.427C18.8172 931.857 22.4342 953.533 28.3502 975.25C34.3722 997.351 53.4952 1018.39 59.7252 1040.44C62.5962 1050.6 52.7412 1061.68 57.2742 1071.26C59.5382 1076.04 62.3892 1080.3 65.6352 1084.46C68.1362 1087.67 77.8896 1086.96 79.1516 1090.89C80.4266 1094.86 73.3702 1103.09 73.2652 1107.2C73.1162 1113.08 72.8822 1118.95 72.6892 1124.83L71.5492 1159.58C70.8002 1182.41 70.0512 1205.24 69.3022 1228.07C69.0572 1235.53 68.7002 1242.81 70.4872 1249.88C69.8422 1249.28 69.2292 1248.63 68.6692 1247.9C67.0302 1245.76 63.5542 1247.57 64.9452 1250.08C67.2672 1254.25 70.6062 1257.19 74.5292 1259.31C79.0882 1266.03 769.512 1281.04 772.909 1261.39C774.815 1250.36 771.346 1238.56 769.959 1227.61C768.515 1216.2 766.799 1204.84 765.567 1193.4Z" fill="#AE5D29"/>
<path fill-rule="evenodd" clip-rule="evenodd" d="M46.0586 865.45L759.154 904.438C759.665 909.376 760.118 914.319 760.512 919.266C764.177 965.225 762.547 1011.36 761.544 1057.39C761.411 1063.49 761.233 1069.61 761.06 1075.74L690.712 1087.36L190.623 1099.38L65.635 1084.46L60.4474 1075.47L56.8534 1059.81C58.3958 1053.39 61.5042 1046.73 59.725 1040.44C59.2063 1038.6 58.5983 1036.77 57.9158 1034.95L58.5611 1022.39L46.0586 865.45Z" fill="#FDEA6B"/>
<path fill-rule="evenodd" clip-rule="evenodd" d="M64.2284 909.466C65.9174 904.628 73.6434 906.722 71.9424 911.592C63.1984 936.638 69.4014 963.893 78.8544 987.802C80.7514 992.599 73.0114 994.66 71.1404 989.928C61.1964 964.778 55.0444 935.769 64.2284 909.466M122.857 1052.53C147.517 1056 172.197 1058.14 197.027 1059.87C198.137 1059.95 199.097 1059.78 199.927 1059.42C199.187 1070.79 198.587 1082.17 198.117 1093.55C191.347 1093.36 184.437 1093.81 177.727 1093.63C168.957 1093.39 160.197 1092.95 151.447 1092.28C134.507 1091 117.597 1088.96 100.847 1086.14C94.5874 1085.09 86.6374 1084.45 79.5074 1082.37C72.7674 1080.4 66.7674 1077.14 63.6174 1071C60.9374 1065.8 60.4474 1059.43 60.4474 1053.68C60.4474 1049.72 61.1274 1045.7 61.5374 1041.71C62.0474 1041.35 62.5074 1040.92 62.8774 1040.44C70.3174 1042.79 78.0374 1044.44 85.5974 1046.04C97.9074 1048.66 110.397 1050.78 122.857 1052.53M108.949 960.065C109.085 967.708 111.2 974.651 115.315 981.086C118.099 985.441 111.172 989.448 108.407 985.124C103.563 977.547 101.109 969.042 100.949 960.065C100.857 954.906 108.857 954.923 108.949 960.065M741.077 1043.45C744.416 1043.63 747.776 1043.75 751.125 1043.93C754.079 1046.45 758.169 1047.75 761.904 1046.94C762.033 1047.27 762.15 1047.63 762.257 1048.05C762.917 1050.62 763.247 1053.38 763.627 1056C764.007 1058.58 764.297 1061.18 764.497 1063.78C764.597 1065.09 765.227 1068.05 764.427 1069.19C763.707 1070.22 762.117 1070.13 761.017 1070.26C758.057 1070.58 755.057 1070.73 752.077 1070.98C746.447 1071.47 740.817 1071.96 735.197 1072.45C729.687 1072.93 723.637 1072.78 718.247 1074.23C717.327 1063.42 716.487 1052.61 715.707 1041.79C724.057 1043.02 732.787 1042.99 741.077 1043.45M40.9574 1025.52C44.3174 1032.01 47.4174 1038.39 53.8474 1042.29C54.6874 1042.79 55.6274 1043.06 56.5874 1043.13C55.8674 1046.22 55.4174 1049.38 55.0174 1052.3C54.1374 1058.73 53.9474 1065.38 55.5574 1071.72C57.1274 1077.89 59.7274 1083.4 64.8274 1087.35C67.1974 1089.19 69.7874 1090.59 72.5074 1091.7C72.0474 1092.99 71.7774 1094.27 71.9174 1095.68C71.2674 1098.95 70.8374 1102.28 70.3674 1105.47C69.3374 1112.55 68.3074 1119.64 67.4974 1126.76C65.8774 1140.92 64.6074 1155.08 63.5374 1169.29C62.4674 1183.46 61.6974 1197.65 61.0574 1211.85C60.7274 1219.11 60.4374 1226.37 60.1674 1233.64C59.8974 1241.11 58.6874 1248.75 61.9874 1255.68C64.6474 1261.28 73.6374 1260.96 76.3974 1255.68C79.8974 1248.97 78.8674 1241 78.9574 1233.64C79.0474 1226.71 79.1674 1219.77 79.3174 1212.84C79.6174 1198.65 80.0574 1184.47 80.4074 1170.28C80.7474 1156.43 81.1674 1142.59 81.4474 1128.74C81.5874 1121.49 81.5974 1114.24 81.6374 1106.99C81.6574 1102.97 81.8274 1098.68 81.5274 1094.49C84.0274 1095.08 86.5474 1095.58 89.0374 1096.09C108.047 1099.99 127.257 1102.83 146.587 1104.59C156.297 1105.47 166.037 1106.09 175.777 1106.44C182.937 1106.7 190.357 1107.2 197.627 1106.93C197.057 1124.29 196.797 1141.66 196.827 1159.03C196.847 1171.56 197.017 1184.09 197.327 1196.62C197.497 1203.21 197.637 1209.8 197.837 1216.39C197.927 1219.35 197.927 1222.34 198.127 1225.29C198.187 1226.21 198.317 1227.1 198.487 1227.98C197.827 1229.85 197.277 1231.7 196.827 1233.43C194.627 1241.83 194.627 1249.9 195.607 1258.46C196.447 1265.72 202.557 1272.45 210.627 1269.9C211.937 1269.49 213.247 1269.06 214.547 1268.62C226.427 1269.97 238.377 1270.28 250.427 1270.51C268.037 1270.85 285.657 1270.96 303.277 1271.05C337.837 1271.23 372.407 1271.32 406.977 1271.42C476.447 1271.62 545.917 1271.81 615.387 1272.01C634.667 1272.07 653.947 1272.12 673.227 1272.18C683.207 1272.21 693.167 1272.22 703.137 1272.6C707.787 1272.78 712.447 1273.03 717.097 1273.1C722.487 1273.19 727.257 1271.64 732.407 1270.23C735.317 1269.42 736.467 1266.5 735.847 1264.03C740.507 1265.14 746.157 1262.78 747.747 1257.53C748.907 1253.72 748.477 1249.59 746.747 1246.06V1246.05C743.407 1224.96 739.167 1203.97 735.837 1182.87C732.187 1159.76 728.677 1136.6 725.587 1113.4C723.267 1095.88 721.357 1108.3 719.707 1090.7C726.897 1091.26 735.027 1089.07 742.147 1088.14C747.257 1087.48 752.407 1086.95 757.527 1086.25C757.147 1091.41 757.257 1096.67 757.117 1101.62C756.847 1111.45 756.967 1121.24 757.217 1131.07C757.697 1150.04 758.767 1139 760.477 1157.89C762.207 1176.92 764.327 1195.88 766.897 1214.82C768.217 1224.57 769.627 1234.31 771.117 1244.04C771.807 1248.58 772.517 1253.11 773.247 1257.65C774.117 1263 774.397 1268.07 778.407 1272.09C781.457 1275.14 787.687 1274.88 789.707 1270.63C792.267 1265.26 791.107 1260.66 790.157 1255.02C789.387 1250.49 788.647 1245.96 787.917 1241.43C786.357 1231.72 784.877 1222 783.487 1212.27C780.807 1193.52 778.277 1174.74 776.017 1155.94C773.737 1136.99 771.377 1148.06 769.137 1129.11C768.007 1119.55 766.877 1110.01 765.557 1100.48C764.887 1095.58 764.467 1090.36 763.587 1085.31C763.867 1085.27 764.147 1085.22 764.427 1085.17C770.507 1084.06 775.697 1080.63 777.227 1074.37C778.687 1068.38 776.947 1061.49 775.717 1055.61C774.667 1050.6 773.718 1044.21 770.494 1039.92C781.854 1025.45 789.243 1007.24 793.956 989.733C799.09 970.662 801.239 950.755 801.694 931.047C802.222 908.215 800.501 885.515 796.588 863.191C796.496 858.46 796.278 853.731 795.927 849.007C792.487 802.648 778.047 747.778 732.267 726.117C732.087 726.028 731.897 725.947 731.707 725.867C728.117 721.577 723.637 717.717 720.017 714.108C713.607 707.707 706.907 701.587 699.807 695.947C685.747 684.778 670.327 675.858 654.297 667.827C638.087 659.697 621.637 652.068 605.797 643.197C591.997 635.457 579.577 626.137 567.787 615.617C554.537 603.787 545.107 587.837 541.407 570.427C541.217 569.518 539.867 569.768 539.847 570.637C538.877 602.547 560.417 630.747 585.207 648.587C614.847 669.898 650.637 679.987 680.697 700.648C688.167 705.778 695.157 711.568 701.807 717.717C691.617 716.677 681.247 717.337 671.697 720.157C667.937 719.927 664.157 719.858 660.387 719.677C651.767 719.247 643.137 718.848 634.507 718.467C616.917 717.688 599.317 716.978 581.717 716.358C547.187 715.137 512.647 714.217 478.107 713.608C408.697 712.377 339.197 712.137 269.797 714.148C250.977 714.688 152.017 710.938 142.857 711.997C156.327 700.337 171.107 690.818 187.357 682.987C207.687 673.217 228.697 666.697 250.407 660.737C295.117 648.467 341.547 636.637 377.327 605.467C386.217 597.717 394.117 588.808 400.587 578.938C406.767 569.518 413.637 557.457 413.807 545.967C413.927 537.808 402.567 534.837 398.527 541.827C396.017 546.157 394.777 550.907 392.727 555.447C390.687 559.947 388.267 564.287 385.577 568.438C380.287 576.598 373.727 583.877 366.587 590.447C351.367 604.467 332.927 614.737 313.847 622.507C270.527 640.137 223.147 647.577 182.097 670.818C164.137 680.987 146.947 695.018 136.157 712.917C134.417 713.188 132.687 713.507 130.957 713.867C132.247 712.237 133.547 710.608 134.857 708.987C135.717 707.927 134.387 706.528 133.337 707.467C112.927 725.627 94.1274 745.237 77.0874 766.617C60.7874 787.077 45.5874 808.518 34.8274 832.478C15.4874 875.518 11.2274 924.747 21.2174 970.768C23.9374 983.307 27.7774 995.587 32.6674 1007.46C35.1874 1013.59 37.9174 1019.63 40.9574 1025.52" fill="black"/>
<path fill-rule="evenodd" clip-rule="evenodd" d="M665.502 340.757C663.126 310.013 666.808 277.789 654.954 248.567C634.286 200.082 576.33 183.916 531.399 165.457C513.399 160.139 452.83 159.395 431.754 152.356C384.054 136.424 372.657 117.442 334.755 147.776C328.357 152.958 324.354 158.59 321.434 166.285L321.554 166.318C320.72 169.526 321.614 172.727 323.493 175.172C307.059 191.97 300.182 217.154 308.614 239.515C336.131 297.704 334.837 329.167 325.971 391.723C314.393 450.123 340.85 471.456 384.666 503.232C382.882 506.691 382.512 511.288 384.838 514.34C435.505 585.539 531.038 619.534 612.891 583.396C646.116 568.608 660.949 533.224 669.414 501.297C679.275 465.548 682.305 427.878 674.277 391.462C671.039 374.62 666.821 357.9 665.502 340.757Z" fill="#AE5D29"/>
<path fill-rule="evenodd" clip-rule="evenodd" d="M302.604 253.544L332.731 273.613L440.57 159.926L404.683 131.681C404.683 131.681 339.577 179.799 326.775 192.499C313.974 205.199 302.604 253.544 302.604 253.544Z" fill="#9FD8E5"/>
<path fill-rule="evenodd" clip-rule="evenodd" d="M373.244 0.138062C379.394 -0.785447 384.039 3.03027 386.248 8.40847L386.364 8.69806C387.074 10.5281 387.864 12.3081 388.714 14.0581C404.104 6.50806 426.064 8.44806 435.804 23.7381C442.754 34.6581 438.514 47.6181 435.894 59.1981L434.174 66.8281C437.499 68.9438 440.006 72.7327 439.888 76.656L439.874 76.9581L439.174 87.5981C441.394 85.3481 443.424 82.8981 445.234 80.2881C446.484 77.9981 447.834 75.7481 449.284 73.5681C457.814 60.7381 476.964 71.8881 469.924 85.6281C468.574 88.2781 467.054 90.7881 465.424 93.2081C463.584 96.7781 462.074 100.448 460.914 104.218C464.244 105.668 466.804 108.888 467.074 113.748C467.704 125.098 461.744 134.568 452.264 140.518C449.474 142.268 446.594 142.608 443.984 141.958C443.524 142.578 443.064 143.198 442.624 143.828C446.404 146.898 449.814 150.398 452.744 154.278C461.564 152.958 470.434 152.338 479.304 152.318C490.144 147.008 503.124 147.118 514.774 149.108C522.274 150.388 529.474 152.878 536.854 154.668C544.634 156.548 552.534 156.618 560.404 157.898C570.324 159.508 579.024 164.088 584.494 171.398C590.504 171.578 596.824 174.038 602.064 177.378C614.264 185.158 626.394 193.048 638.564 200.878C643.235 203.884 644.981 208.683 644.122 214.036L644.064 214.378L643.654 216.598L644.617 217.964C648.341 223.224 652.394 228.733 654.804 234.538C659.264 240.968 663.294 247.708 666.864 254.658C671.674 263.998 675.644 273.898 678.334 284.058C679.004 286.628 679.674 289.218 680.114 291.838C680.744 295.538 679.774 298.408 679.244 301.958C678.584 306.458 678.344 311.018 677.644 315.528C677.174 318.518 674.634 319.988 671.974 320.068C672.974 327.678 673.694 335.338 674.384 342.938C675.354 353.798 676.014 364.688 676.584 375.578C679.524 379.848 685.534 383.228 689.874 384.398C695.884 386.008 702.184 384.258 707.864 382.208C711.434 380.918 714.364 385.408 712.624 388.408C707.154 397.828 695.454 397.788 686.594 393.618C682.844 391.858 679.554 389.308 677.114 385.988C677.264 389.148 677.424 392.308 677.584 395.478L677.733 398.349C679.535 431.881 683.424 466.567 677.124 499.768C666.214 557.278 618.622 601.068 560.484 604.468C529.976 606.253 504.571 597.241 491.937 592.215C479.304 587.188 484.214 576.939 492.984 579.869C508.092 584.916 535.846 592.435 560.684 589.188C619.224 581.535 668.864 552.276 663.764 426.258C663.041 408.387 660.814 390.508 660.334 372.638C659.874 355.168 660.044 337.688 659.274 320.228L659.017 314.271C658.717 307.31 658.395 300.317 657.874 293.348C657.244 290.648 656.724 287.908 655.954 285.258C653.864 278.048 651.134 271.038 647.744 264.348C646.994 264.918 646.154 265.328 645.244 265.488C638.334 266.728 631.854 266.378 625.384 263.498C622.364 262.168 619.704 260.398 617.224 258.208C616.044 257.178 615.254 256.178 614.634 255.138C611.504 255.188 608.374 254.248 606.414 251.998C604.179 249.434 603.807 246.785 604.682 244.333L604.774 244.088L604.554 244.008C601.914 250.838 596.654 256.848 590.884 260.908C581.764 267.348 570.354 269.208 559.414 269.378C547.334 269.558 534.594 267.698 522.674 265.798C519.524 265.298 516.394 264.728 513.324 263.958C513.204 264.078 513.084 264.218 512.954 264.338C502.724 274.128 488.334 276.648 475.354 271.058C467.854 267.828 461.564 262.628 456.004 256.668C455.924 259.788 455.764 262.908 455.494 265.998L455.382 267.225C454.829 272.98 453.763 279.085 449.414 283.238C442.384 289.968 432.184 287.268 424.074 282.888C424.084 283.098 424.084 283.318 424.084 283.538C426.274 290.978 428.474 298.428 430.674 305.878L431.148 307.465C432.748 312.755 434.502 318.052 434.984 323.588C435.904 334.168 428.864 344.618 417.104 341.068C410.936 339.213 405.994 334.026 401.252 329.872L398.264 327.288C405.994 352.558 411.354 378.728 411.854 405.098C411.884 406.528 410.654 407.608 409.294 407.658C406.114 407.788 402.694 407.158 399.494 405.888C399.314 405.878 399.134 405.868 398.944 405.838C393.484 405.048 388.414 403.078 383.944 400.168C384.974 403.438 385.434 406.948 385.164 410.618C385.094 411.508 383.704 411.818 383.504 410.838C380.924 398.148 366.074 388.558 353.274 390.988C339.534 393.598 329.414 405.418 326.934 418.868C324.274 433.318 329.364 450.028 338.794 461.178C343.134 466.318 348.844 470.608 355.624 471.688C358.724 472.178 361.944 472.008 364.954 471.128C366.234 470.748 367.434 470.218 368.654 469.718C370.434 468.998 372.514 468.888 374.194 468.128C378.004 466.418 381.834 469.928 379.904 473.838C378.224 477.248 376.714 479.548 373.924 481.308C376.184 484.068 378.234 487.908 378.994 488.938C382.874 494.178 386.814 499.128 391.234 503.918C395.734 508.778 400.644 513.218 405.834 517.328L408.016 519.052C413.015 523.017 417.368 526.691 420.894 532.378C423.674 536.868 420.074 542.958 414.864 542.888C398.564 542.658 386.714 528.338 378.274 515.828C377.074 514.038 375.944 512.148 374.894 510.208C374.514 510.818 374.094 511.388 373.624 511.908L374.554 514.408C377.314 521.768 365.424 526.578 361.974 519.708C359.464 514.728 356.554 509.988 353.314 505.508C351.404 505.238 349.534 504.078 348.494 502.578C345.864 498.768 342.914 494.918 340.424 490.858C339.044 489.548 337.624 488.288 336.174 487.058C335.754 487.428 335.324 487.798 334.914 488.188C333.094 492.338 330.844 496.128 328.054 499.698L327.456 500.46C322.111 507.196 315.149 514.09 306.534 515.738C303.904 516.238 301.374 512.968 303.704 510.878C309.734 505.458 316.864 501.768 322.424 495.718C325.163 492.737 327.679 489.455 329.841 486.015L330.334 485.218C330.694 484.628 331.064 484.038 331.444 483.438C328.934 481.728 326.424 480.008 323.914 478.288C317.004 484.191 308.006 486.892 300.364 491.782L299.604 492.278C292.694 496.898 285.414 486.678 290.954 481.068C297.061 474.907 302.159 467.56 307.569 460.712C305.025 456.026 303.821 450.485 303.37 444.885C303.192 443.3 303.053 441.714 302.914 440.128C299.034 440.188 295.134 438.858 291.834 436.568L290.584 435.678C286.574 436.958 282.364 437.578 278.334 437.468C268.854 437.188 264.974 426.358 270.904 419.508C276.954 412.508 287.544 410.978 295.934 414.378C296.204 414.238 296.484 414.088 296.754 413.938C296.354 412.098 296.443 410.429 296.898 408.963L296.766 408.069C294.921 405.238 293.708 402.006 293.248 398.591C292.884 395.886 292.958 393.205 293.584 390.534C293.792 389.645 294.225 388.724 294.556 387.797C293.874 386.075 293.473 384.295 293.349 382.505C293.158 382.278 292.968 382.045 292.788 381.793C288.625 375.948 289.466 368.905 293.428 364.175C293.446 363.874 293.474 363.573 293.515 363.274C293.283 362.752 293.07 362.225 292.876 361.692C289.005 357.787 286.163 353.088 286.693 347.265C287.004 343.839 288.412 340.755 290.543 338.45C290.165 337.332 290.129 336.037 290.587 334.956C287.186 325.91 287.616 315.015 290.064 304.898C289.524 303.358 289.244 301.688 289.304 299.918C289.584 292.408 296.084 285.508 303.784 285.598C304.711 285.606 305.579 285.727 306.413 285.904L306.424 285.725C306.719 283.471 307.339 281.388 308.244 279.519C307.799 279.358 307.387 279.127 307.026 278.82C302.092 281.452 296.871 283.464 291.397 284.835C287.372 285.843 283.249 281.268 285.751 277.49C286.912 275.737 288.193 274.163 289.573 272.725C287.611 272.736 285.619 272.869 283.604 273.128C279.984 273.598 275.944 271.128 273.594 267.788C270.674 270.628 267.744 273.458 264.814 276.288C257.394 283.478 246.184 278.188 245.014 268.708C242.804 268.118 240.744 267.118 238.934 265.688C227.234 270.768 214.644 273.558 201.774 274.088C192.534 274.468 187.134 263.708 191.454 256.108C194.354 251.008 197.954 246.428 202.104 242.448C195.664 244.418 189.014 245.838 182.224 246.748C178.554 247.238 173.364 244.198 171.894 240.828C166.274 227.868 166.754 214.358 173.224 201.748C173.474 201.248 173.754 200.768 174.024 200.288C174.694 198.618 175.424 196.968 176.214 195.348C168.254 187.048 167.564 174.708 171.854 164.378C170.134 161.588 169.474 158.228 170.644 155.188C173.974 146.438 178.774 138.358 184.834 131.418C184.254 130.298 183.744 129.108 183.314 127.828C179.904 117.478 183.854 104.988 191.824 97.7781C196.834 93.2381 202.594 90.5181 208.744 88.7781C211.334 84.1981 214.664 80.0681 218.544 76.5881C218.694 76.2581 218.844 75.9281 219.014 75.5981C225.054 64.2181 236.054 58.1181 247.844 56.7081C248.304 52.2581 251.304 48.0081 255.664 46.6281C256.864 42.7781 258.654 39.0981 261.114 35.7581C264.984 30.4981 271.414 28.0181 277.474 31.4681C280.794 33.3581 283.974 35.5281 286.954 37.9281C288.293 37.3004 289.81 36.8942 291.522 36.7647L291.954 36.7381L301.814 36.2381C305.944 34.4081 310.064 32.4881 314.194 30.6181C316.674 28.5681 319.444 26.8581 322.464 25.5881C325.884 24.1581 329.384 23.3481 332.894 23.0781C335.744 22.1481 338.614 21.3281 341.534 20.6881C348.394 19.1881 355.574 18.3481 362.694 18.4181C362.84 16.5752 362.912 14.7103 362.898 12.8234L362.884 11.8781C362.724 5.82806 367.554 0.998062 373.244 0.138062ZM366.334 484.188C365.354 484.398 364.364 484.568 363.374 484.688C363.674 485.428 363.974 486.168 364.264 486.908C365.064 487.358 365.874 487.788 366.684 488.188C366.444 486.828 366.304 485.458 366.334 484.188ZM314.957 468.921L314.292 470.145C314.185 470.345 314.078 470.543 313.974 470.738C315.384 470.628 316.804 470.658 318.204 470.818L318.2 470.669C318.02 470.608 317.84 470.552 317.668 470.468C316.702 470.004 315.804 469.484 314.957 468.921ZM342.724 413.068C351.571 413.583 359.067 414.94 367.113 418.81L367.804 419.148C374.914 422.678 386.674 429.198 385.684 438.548C385.404 441.208 383.474 444.008 380.434 443.798C372.104 443.228 367.344 434.828 361.704 429.588C356.014 424.308 349.024 418.878 342.134 415.248C341.16 414.737 341.544 413.12 342.604 413.067L342.724 413.068ZM302.604 289.878C300.484 289.948 301.194 292.008 302.284 290.288C302.374 290.148 302.484 290.008 302.604 289.878ZM417.04 152.356C396.962 152.884 376.755 164.739 361.714 176.722C348.629 187.147 337.33 199.547 327.325 212.912C324.751 219.568 322.541 226.363 320.674 233.208C319.444 237.728 318.674 242.298 317.644 246.858L317.324 248.256C316.515 249.768 315.914 251.395 315.476 253.076C317.299 254.904 319.664 256.213 322.268 256.834C323.107 257.034 323.804 257.467 324.355 258.041C326.451 254.543 328.283 250.851 329.349 246.937L329.388 246.756C333.417 240.157 337.793 233.763 342.484 227.588C355.424 210.538 369.674 194.998 386.804 182.068C399.794 172.268 414.314 164.588 429.754 159.598C425.975 156.549 421.683 154.137 417.04 152.356Z" fill="black"/>
<path fill-rule="evenodd" clip-rule="evenodd" d="M555.587 518.927C548.864 516.185 542.866 511.611 538.481 505.767C536.957 503.736 536.561 501.59 536.881 499.628C537.241 497.422 538.546 495.423 540.326 494.082C542.112 492.736 544.345 492.073 546.504 492.411C548.381 492.705 550.248 493.732 551.727 495.863L552.035 496.289C554.642 499.816 558.04 502.71 561.91 504.575C565.641 506.373 569.814 507.212 574.132 506.724C582.356 505.795 588.024 501.347 594.049 495.308C594.796 494.545 595.543 493.759 596.294 492.96C596.768 492.235 597.426 491.77 598.157 491.525C598.968 491.254 599.886 491.269 600.726 491.563C601.537 491.846 602.262 492.382 602.747 493.095C603.209 493.774 603.471 494.611 603.386 495.575C602.835 501.834 599.562 507.42 594.914 511.806C589.752 516.678 582.909 520.048 576.466 521.23C569.368 522.532 562.136 521.599 555.587 518.927V518.927ZM579.814 422.368C587.366 426.958 598.872 437.661 590.748 449.04C581.186 459.074 567.418 447.57 560.634 442.367C554.343 438.335 547.275 448.705 553.112 453.414C602.136 489.709 622.031 423.568 583.634 416.971C579.406 416.244 577.836 420.948 579.814 422.368ZM491.963 380.147C492.798 369.791 508.57 367.439 510.139 377.687C511.544 386.867 509.89 395.3 505.755 403.565C501.804 411.461 491.874 407.777 491.123 400.587C490.116 390.95 491.444 386.589 491.963 380.147ZM612.027 375.562C614.226 372.682 617.401 370.716 621.205 371.827C633.09 375.3 629.587 392.173 625.413 400.386C623.145 404.846 615.814 405.977 612.501 402.05C607.101 395.646 604.515 382.857 611.38 376.549C611.566 376.223 611.773 375.894 612.027 375.562ZM505.588 334.831L507.465 334.503C513.273 333.498 520.494 332.533 524.603 337.202C526.782 339.678 527.532 344.28 524.603 346.65C519.451 350.82 513.755 349.204 507.581 349.557C502.493 349.849 497.603 350.691 492.702 352.092C481.95 355.165 473.189 360.775 464.006 366.935C462.801 367.743 461.571 366.202 462.146 365.075C467.447 354.692 477.72 346.163 488.01 340.964C493.502 338.189 499.512 335.887 505.588 334.831ZM601.193 330.18L602.63 330.474C618.267 333.743 638.583 340.272 645.988 355.632C646.271 357.804 645.972 358.269 645.73 358.573L645.649 358.674C645.45 358.934 645.29 359.292 644.349 359.588C644.087 359.525 643.824 359.459 643.557 359.39C640.163 358.5 637.477 357.275 634.877 356.003L632.058 354.614C628.788 353.011 625.488 351.465 621.992 350.325C614.53 347.891 606.854 346.176 599.06 345.261C597.37 345.062 595.744 344.492 594.46 343.515C593.242 342.588 592.311 341.303 591.887 339.596C591.337 337.387 591.495 335.715 592.68 333.722C593.572 332.225 594.847 331.188 596.311 330.592C597.804 329.985 599.503 329.842 601.193 330.18Z" fill="black"/>
<path fill-rule="evenodd" clip-rule="evenodd" d="M679.267 415.082C670.087 426.551 634.151 439.281 615.024 425.462C595.898 411.642 588.339 402.011 585.783 384.743C585.51 382.901 582.181 381.677 580.774 382.984C572.892 390.304 567.791 399.628 562.737 408.975C557.036 419.517 551.421 430.124 541.062 437.261C522.714 447.096 489.52 448.497 479.713 444.158C460.927 435.847 446.067 418.073 442.687 393.614C442.687 393.614 439.25 382.764 436.239 380.481C433.384 378.317 417.632 376.389 415.906 376.068C384.807 370.298 345.475 366.62 317.776 386.921C314.027 389.187 301.195 397.699 301.005 395.606C300.871 387.407 310.162 368.85 331.294 360.019C357.426 349.1 396.271 348.461 418.775 350.871C419.906 350.992 423.765 350.044 424.037 349.926C458.131 335.165 497.359 339.086 533.839 345.29C539.067 346.304 585.863 357.891 604.478 350.871C635.254 338.307 668.067 329.205 701.302 332.786C701.58 332.816 705.775 358.282 702.507 360.019C699.906 361.402 695.48 364.945 693.908 366.884C692.502 368.617 691.617 370.772 691.695 373.757C692.327 391.026 687.4 404.921 679.267 415.082ZM552.728 399.673C556.631 394.028 557.862 381.347 556.228 372.096C555.401 367.412 553.795 363.683 551.779 361.827C550.439 360.593 548.91 360.013 547.243 360.099C546.329 360.146 545.338 360.406 544.29 360.971C530.097 353.294 512.903 350.529 496.604 351.324C483.629 351.322 474.372 354.385 468.094 359.152C460.541 364.888 457.137 373.134 456.941 382.077C456.707 392.689 461.066 404.298 468.217 413.484C475.061 422.276 484.424 428.794 494.581 430.298C506.112 432.587 517.862 430.372 528.079 424.956C538.557 419.4 547.408 410.477 552.728 399.673ZM666.507 405.659C673.084 397.888 677.457 387.778 678.123 377.76C678.728 368.644 676.287 359.613 669.538 352.151C663.418 346.898 652.606 346.811 641.231 349.736C626.523 353.518 611.307 361.97 606.235 367.428C605.04 368.055 603.931 369.146 602.965 371.486L602.958 372.32C601.422 379.407 602.333 386.598 604.991 393.232C607.879 400.438 612.831 406.98 618.868 411.971C626.89 418.579 635.264 420.602 643.102 419.535C651.979 418.326 660.235 413.072 666.507 405.659Z" fill="#C32323"/>
<path fill-rule="evenodd" clip-rule="evenodd" d="M603.42 348.064C634.585 335.34 667.898 326.169 701.624 329.803C704.413 328.742 707.875 329.636 709.111 333.58C721.124 370.175 694.335 359.998 694.695 373.678C697.503 450.381 594.408 463.48 582.816 385.182L582.603 385.308V385.308C565.925 400.871 562.412 426.196 542.765 439.731C503.132 468.716 446.95 445.751 439.734 394.151L439.576 393.453C437.154 382.922 434.258 380.311 422.312 380.363L420.424 379.988C389.385 373.873 348.052 368.377 319.464 389.408C313.246 393.024 312.954 402.32 307.7 406.359C301.944 407.477 298.398 400.554 298.008 395.763C297.096 348 382.566 344.564 420.844 348.663C421.575 347.906 423.136 348 423.662 348.943C458.28 333.955 497.281 336.029 534.347 342.332C557.308 346.777 579.986 356.902 603.42 348.064ZM698.521 338.621C679.82 337.686 662.522 338.709 644.166 343.204C634.492 345.538 627.068 348.489 617.808 352.038C560.05 377.627 553.388 332.142 423.92 349.972C425.595 357.146 425.903 364.249 425.993 370.989C452.428 369.924 446.204 395.166 456.108 412.895L456.413 413.43C470.847 439.298 504.907 451.364 532.382 434.206C555.304 420.846 557.54 386.961 580.362 373.513C600.145 372.735 592.243 399.435 603.009 410.409C618.163 430.63 650.374 433.457 669.376 414.437C678.291 405.285 683.029 393.665 683.291 381.181C683.788 373.205 682.42 365.1 688.45 359.49C692.677 355.196 700.187 356.629 701.049 350.138C701.597 346.3 700.001 342.137 698.521 338.621ZM495.28 349.076C513.857 348.161 533.513 351.387 549.464 360.498C561.271 351.102 564.164 388.444 556.327 399.245C545.036 422.347 518.749 437.536 493.438 432.492C453.952 426.77 426.44 349.007 495.28 349.076ZM548.33 363.002L547.32 362.854C530.207 360.243 483.612 348.146 465.641 367.239C448.2 398.908 492.447 452.102 538.492 409.732C551.307 396.685 556.274 380.864 548.33 363.002ZM602.56 367.049C611.422 356.556 656.587 335.302 672.33 348.941C701.063 381.142 655.496 446.275 617.33 414.542C604.618 403.935 596.255 387.035 599.915 370.67L599.92 369.984C599.928 369.735 599.975 369.792 600.241 369.482C600.712 368.245 601.56 367.455 602.56 367.049ZM671.929 386.566C681.619 334.009 641.12 353.989 607.86 368.017C609.645 369.648 609.637 371.875 609.124 373.705C605.616 412.701 653.013 434.799 671.929 386.566ZM420.172 351.217C406.299 355.915 314.538 347.513 306.061 390.527C315.009 376.03 333.541 370.277 350.201 367.155C372.862 362.908 395.399 365.367 417.742 369.836L418.203 365.212C418.699 360.307 419.221 355.719 420.172 351.217Z" fill="black"/>
</svg>
