<svg width="1021" height="1195" viewBox="0 0 1021 1195" fill="none" xmlns="http://www.w3.org/2000/svg">
<path fill-rule="evenodd" clip-rule="evenodd" d="M996.082 671.472C981.802 672.874 967.523 674.274 953.244 675.676C884.856 680.901 816.495 691.813 748.63 698.362C746.94 695.612 743.633 696.065 741.625 697.976C734.853 697.383 727.264 692.207 721.129 697.591C720.93 697.563 720.731 697.53 720.53 697.511C709.608 676.548 702.058 654.189 694.731 631.8C690.054 618.035 683.762 604.71 672.134 595.468C652.29 581.693 606.822 553.76 583.521 554.934C583.134 550.762 581.189 546.462 577.996 543.684C585.034 531.685 556.893 523.856 554.908 525.247C556.18 485.159 537.323 450.345 495.743 442.362C458.492 434.6 405.51 433.296 385.476 472.225C383.273 471.977 360.762 471.86 358.584 472.104C355.198 467.815 318.008 508.457 333.251 522.606C196.978 582.888 119.493 575.695 81.7752 745.164C76.6761 761.084 76.3047 778.505 70.9203 794.07C51.764 838.801 36.2263 886.432 32.3594 935.104C23.0199 937.497 21.9459 953.964 32.7638 956.346C36.8959 957.257 40.3514 958.501 43.3645 960.86C41.0091 1000.75 50.6558 1091.86 56.734 1091.58C69.1275 1131.02 124.409 1142.15 163.547 1128.29C156.8 1140.99 163.547 1148.97 163.547 1155.75C304.374 1161.08 458.353 1158.01 599.141 1165.32C617.15 1165.06 636.093 1169.74 653.856 1167.05C664.688 1164.45 664.706 1147.42 653.718 1145.31L701.731 1134.88C700.658 1134.48 721.522 1120.6 737.291 1094.67C751.969 1065.66 741.979 1030.64 748.63 999.081C800.575 994.833 853.378 993.017 904.754 984.22C911.759 1005.18 942.082 980.113 951.721 970.03C951.709 970.014 951.697 969.999 951.685 969.983C956.35 968.707 960.091 964.335 960.216 959.159C963.487 954.485 964.174 947.897 961.036 943.38C975.415 860.412 997.335 775.7 1005.26 691.952C1008.06 691.332 1010.7 690.104 1012.93 688.212L1012.75 688.031C1016.54 683.807 1017.28 676.516 1010.96 672.927C1005.87 670.029 1001.61 670.928 996.082 671.472Z" fill="#EDB98A"/>
<path fill-rule="evenodd" clip-rule="evenodd" d="M453 982L464 989L554 1018L609 1025L654 1018V1095L663 1167C659 1174.33 621 1174.33 549 1167C503.102 1162.32 335.356 1160.06 297.164 1159.06L295 1159C250.12 1157.71 205.787 1157.71 162 1159V1132L287 1070L399 1007L453 982ZM389.229 465.932L397.495 472.104L379.448 501.754L467.361 572.864V629.664L495.193 655.988L511.102 629.664L533.519 599.852L549.45 551.528L544.026 519.692L554.934 518.664C554.987 520.84 554.978 523.035 554.908 525.247C556.893 523.856 585.034 531.685 577.996 543.684C581.189 546.462 583.134 550.762 583.521 554.934C606.822 553.76 652.29 581.693 672.134 595.468C683.762 604.71 690.054 618.035 694.731 631.8L695.832 635.158L696.969 638.605L698.114 642.05C704.443 660.985 711.276 679.749 720.53 697.511C720.731 697.53 720.93 697.563 721.129 697.591C727.264 692.207 734.853 697.383 741.625 697.976C743.587 696.109 746.787 695.634 748.51 698.175L748.63 698.362L664.259 714.983L608.598 910.227L560.126 870.881L534.108 874.75L465.399 899.531L385.486 920.289L203.055 970.584H179.824L44.639 937.939L32.4561 933.917C36.4792 885.658 51.9197 838.437 70.9204 794.07C76.3048 778.505 76.6762 761.084 81.7753 745.164C119.493 575.695 196.978 582.888 333.251 522.606C318.008 508.457 355.198 467.815 358.584 472.104L358.798 472.085L359.259 472.06L359.854 472.04C365.17 471.885 383.5 472.002 385.476 472.225C386.622 469.998 387.876 467.902 389.229 465.932Z" fill="#413333"/>
<path fill-rule="evenodd" clip-rule="evenodd" d="M1009.57 677.4L1007.05 691.405C1006.46 691.601 1005.85 691.766 1005.23 691.903C1004.44 700.251 1003.51 708.61 1002.47 716.975L986.887 803.814C984.2 819.178 981.649 834.574 979.116 849.975L975.76 866.518L973.682 876.8C969.195 899.066 964.837 921.26 961.012 943.331C961.589 944.162 962.037 945.063 962.363 946.01L962.069 947.254L961.864 948.083L961.655 948.903C958.637 960.503 953.386 971.753 941.011 975.166C931.677 977.74 921.435 977.973 911.797 978.989L910.728 979.105L742.069 998.072C721.69 1000.36 701.321 1002.72 680.953 1005.11L663.296 1007.18C638.686 1010.03 613.934 1012.27 589.686 1017.43C588.795 1017.62 588.057 1017.98 587.455 1018.45C592.338 999.962 597.012 981.503 601.248 962.833C606.016 941.82 610.541 920.766 615.641 899.829C625.915 857.649 637.432 815.746 650.04 774.203C652.686 765.484 655.393 756.782 658.159 748.101L660.101 742.032L661.595 737.196C663.906 729.823 666.767 722.245 673.546 718.177C681.48 713.417 692.299 712.628 701.297 710.982L707.39 709.837C716.506 708.136 725.634 706.5 734.773 704.928C778.529 697.402 822.533 691.365 866.699 686.83C912.657 682.111 958.776 679.044 1004.95 677.545L1009.57 677.4ZM590.95 966.943L591.38 966.979L585.08 1017.34C584.073 1016.64 582.794 1016.2 581.233 1016.21C560.569 1016.27 540.76 1009.66 521.6 1002.4L518.682 1001.29L510.547 998.164C502.278 994.996 493.965 991.898 485.497 989.328L482.074 988.295L480.334 987.782C473.923 985.91 467.178 984.209 460.509 983.785L459.6 983.735L461.542 982.716C461.826 982.567 462.075 982.4 462.296 982.22C465.967 982.492 469.645 982.418 473.517 981.72C480.799 980.409 487.88 977.876 494.382 974.349L497.286 972.775L498.475 972.145L499.26 971.738L500.041 971.343C505.626 968.559 510.965 966.816 518.016 968.298C526.021 969.983 533.035 974.297 540.25 977.942L541.531 978.58L542.392 978.996L543.269 979.409L544.158 979.814C553.915 984.205 569.443 988.943 573.184 975.677C574.687 970.347 573.51 965.356 570.902 960.98C575.762 960.56 584.445 966.29 590.95 966.943ZM833.828 801.016L833.945 801.62C835.325 809.047 831.865 816.153 826.629 821.332C822.334 825.58 814.733 827.941 812.58 834.052C811.354 837.529 812.658 840.826 815.176 843.125L814.596 843.412L814.029 843.702L813.476 843.994L812.936 844.289L812.41 844.586C803.856 849.501 796.89 857.492 804.605 867.145C813.357 878.096 831.644 878.451 844.528 877.594L845.396 877.533C857.89 876.597 872.689 872.4 879.463 860.864C882.57 855.572 882.228 849.172 877.897 844.643C875.284 841.911 870.623 839.105 866.349 838.773C866.536 836.365 866.249 834.039 865.402 832.076C863.57 827.833 858.695 824.976 853.993 824.873C854.374 815.864 847.158 806.97 841.844 799.768L841.302 799.029L840.775 798.302C838.337 794.91 833.121 796.811 833.828 801.016ZM840.957 810.605L845.798 828.739L845.715 828.889C844.01 832.127 848.48 835.802 851.131 833.082L851.398 832.794C854.545 829.544 859.375 833.913 859.435 837.371C859.521 842.241 856.351 846.005 852.574 848.493L852.31 848.664L851.614 849.097C848.514 851.145 850.861 855.428 854.268 854.906C858.484 854.261 861.939 850.917 864.069 846.742C866.345 847.394 868.935 847.315 871.332 848.656C877.372 852.034 873.898 857.944 869.965 861.516L869.805 861.659L869.485 861.938C862.269 868.092 852.444 870.23 843.183 870.688L842.649 870.712C833.294 871.112 821.106 871.246 813.088 865.744C808.098 862.32 806.653 857.464 810.876 852.865C813.264 850.266 815.675 847.644 818.157 845.11C821.872 846.883 825.19 846.164 828.989 844.486C829.476 844.27 829.206 843.525 828.729 843.525C826.633 843.523 818.942 839.632 818.568 837.146C818.222 834.845 822.477 832.906 824.546 831.794L824.846 831.629L825.106 831.478C827.27 830.167 829.307 828.641 831.169 826.927C835.895 822.577 839.327 817.121 840.826 811.15L840.957 810.605Z" fill="#191970"/>
<path fill-rule="evenodd" clip-rule="evenodd" d="M388.072 463.184C392.315 452.521 406.658 456.666 405.059 467.868C404.102 474.578 400.427 481.665 397.126 487.546C394.438 492.333 391.372 497.005 387.215 500.593C394.615 507.497 402.296 514.149 410.172 520.465C418.766 527.356 427.803 533.708 437.144 539.546C445.335 544.666 453.896 549.202 461.617 555.044C468.796 560.475 475.336 567.007 478.664 575.534C482.209 584.614 480.668 593.992 478.058 603.066L477.758 604.092C475.091 613.082 470.474 623.919 476.876 632.389C480.135 636.701 484.873 639.755 488.964 643.202C492.6 646.266 496.013 649.598 499.143 653.177C505.968 660.979 511.519 669.758 515.022 679.54L515.335 680.429C518.338 689.088 520.532 699.696 516.475 708.198C515.311 710.635 511.557 709.843 510.905 707.47C509.431 702.094 509.508 696.464 508.272 691.012C506.986 685.342 504.846 679.96 502.051 674.868C496.643 665.017 489.319 656.603 480.666 649.489L478.076 647.383C471.326 641.843 465.124 635.966 463.754 626.798C462.288 616.989 466.218 607.645 468.745 598.361C470.506 591.891 471.081 585.689 469.178 579.842C466.853 583.637 463.681 587.239 461.172 590.452C456.175 596.853 451.131 603.215 446.1 609.589C440.942 616.125 435.911 622.764 431.12 629.575C428.977 632.622 426.857 635.687 424.744 638.755C423.155 641.061 420.939 643.365 419.207 645.717C419.628 646.975 419.596 648.425 418.833 649.455C409.648 661.865 396.581 635.971 393.173 629.429C386.233 616.106 381.068 601.952 374.105 588.632C366.89 574.824 358.674 561.384 349.517 548.778C343.978 541.153 337.77 533.991 332.703 526.124C320.766 536.948 305.058 544.204 290.63 550.784C274.777 558.013 258.308 563.918 242.055 570.188L237.254 572.053C209.249 582.983 180.56 594.99 157.283 614.403C129.93 637.216 113.748 669.012 101.701 701.938C87.8328 739.843 76.3598 778.771 65.6648 817.674C60.1918 837.579 54.9988 857.574 50.1168 877.633C45.8148 895.305 42.2488 913.153 37.2688 930.643C47.3688 930.286 58.8878 934.196 67.5108 935.325C106.81 940.469 145.58 948.669 182.683 962.866C187.266 964.62 188.592 969.197 187.594 972.907C190.237 972.161 192.878 971.405 195.521 970.663C192.625 966.226 194.007 958.294 194.235 953.376L194.249 953.038C194.483 946.485 195.194 939.925 195.655 933.384C196.533 920.915 197.675 908.537 199.195 896.14L199.583 893.04C201.305 879.552 202.578 865.985 204.457 852.52L204.679 850.979C203.778 847.534 202.729 844.131 201.628 840.743C198.694 831.718 194.553 823.223 190.924 814.482C190.496 813.453 191.962 812.862 192.647 813.479C198.793 819.008 203.675 826.022 207.597 833.358C207.665 833.012 207.725 832.665 207.796 832.319L208.243 830.116C209.347 824.744 210.689 819.092 213.985 814.735C214.336 814.272 215.03 814.175 215.362 814.735C218.516 820.072 218.869 826.831 219.354 832.904C219.903 839.774 219.972 846.731 219.875 853.62C219.686 867.083 218.737 880.584 217.981 894.025C217.239 907.233 215.783 920.274 213.906 933.352L213.549 935.805C212.631 942.03 211.88 948.333 210.67 954.515L210.328 956.198C209.681 959.264 209.283 963.587 207.995 967.178C241.133 957.935 274.322 948.903 307.574 940.03C331.607 933.616 355.665 927.298 379.713 920.94C380.982 918.653 382.562 916.517 384.534 914.608C391.031 908.316 399.641 905.509 407.538 910.352C408.18 910.747 408.234 911.753 407.538 912.134C406.025 912.961 404.509 913.809 403.02 914.693L417.46 910.782C428.253 907.857 439.175 904.202 450.222 902.163C470.569 892.122 492.453 884.854 513.887 877.671L516.413 876.817C527.387 873.075 538.739 868.886 550.078 866.812C558.379 865.294 568.123 867.126 571.461 875.63C575.687 878.415 579.663 881.688 583.5 884.907C586.274 887.233 588.933 889.706 591.637 892.114L592.135 892.552C594.346 894.47 596.097 895.754 596.64 898.807C596.92 900.384 595.918 902.516 593.973 902.307C588.022 901.67 583.183 894.772 579.147 890.653C576.029 887.469 572.886 884.177 570.04 880.678C568.381 881.581 566.107 881.419 565.051 879.419C559.575 869.05 544.574 876.235 536.274 878.694L524.384 882.213C518.439 883.975 512.497 885.746 506.565 887.548C490.261 892.499 474.037 898.04 457.585 902.587C459.057 904.205 458.854 907.083 456.058 908.178C443.18 913.231 429.052 915.844 415.673 919.311C407.226 921.502 398.784 923.706 390.345 925.923C388.898 928.267 387.857 930.919 387.419 934.006C385.808 945.357 388.914 958.453 391.94 969.431L392.396 971.069C394.883 979.895 398.542 990.715 406.157 996.288C408.016 997.647 410.383 998.593 412.769 998.807C427.676 991.134 442.582 983.462 457.497 975.804C460.26 974.385 462.813 976.306 463.433 978.59C468.692 977.727 473.939 976.367 478.718 974.745C486.748 972.018 493.018 966.817 500.546 963.22C515.112 956.262 529.987 964.809 543.028 971.307L546.034 972.784C551.882 975.622 564.049 981.073 566.856 973.312C569.57 965.804 560.989 957.78 555.447 954.401C548.841 950.372 541.149 948.216 533.683 946.42C529.42 945.394 525.105 944.557 520.764 943.946C515.84 943.253 510.754 943.357 506.013 941.76C503.657 940.968 503.295 937.226 506.013 936.608C513.311 934.947 522.021 936.759 529.637 938.61L533.618 939.591C541.291 941.474 549.038 943.837 556.027 947.593C561.109 950.325 566.473 954.475 569.977 959.555C573.02 956.728 576.807 956.824 580.752 957.872L582.893 958.468C586.429 959.447 589.295 960.122 592.736 959.443C593.196 956.94 593.662 954.436 594.161 951.932C599.064 927.318 604.441 902.798 610.374 878.409C620.608 836.341 632.45 794.735 645.8 753.556L647.14 749.439C650.219 740.02 652.697 729.758 657.661 721.105C662.356 712.923 669.878 708.21 678.815 705.714C688.957 702.882 699.614 701.4 709.96 699.487C712.268 699.061 714.582 698.656 716.892 698.237C714.94 694.712 713.483 690.711 712.17 687.641L711.94 687.109C709.12 680.68 706.587 674.136 704.141 667.556L702.312 662.61C697.895 650.699 693.336 638.984 687.127 627.844C680.591 616.12 671.92 606.535 661.111 598.602C639.073 582.426 612.51 574.175 591.135 556.888C590.259 556.18 591.382 554.969 592.271 555.417C606.704 562.669 622.285 567.6 637.297 573.504L640.258 574.672C652.124 579.376 664.174 584.497 674.444 592.112C685.894 600.604 694.912 611.15 701.69 623.691C708.37 636.053 712.643 649.89 717.356 663.094L718.616 666.612C720.517 671.888 722.481 677.148 724.731 682.282C726.517 686.358 729.85 691.011 731.365 695.667C735.51 694.948 739.654 694.227 743.803 693.534C833.67 678.53 924.541 669.714 1015.61 667.135C1019.18 667.034 1021.02 670.434 1020.49 673.542C1011.75 725.223 1003.99 777.081 995.466 828.801C991.746 851.374 987.952 873.93 984.069 896.475C982.102 907.897 979.828 919.275 977.965 930.714C976.461 939.952 975.369 949.262 972.787 958.286C970.471 966.377 966.917 974.179 961.08 980.352C954.788 987.006 946.006 990.227 937.166 991.749C914.725 995.611 891.707 997.188 869.084 999.761L748.637 1013.46C750.397 1029.46 750.528 1045.21 749.721 1061.4L749.261 1070.23C748.884 1077.34 748.435 1084.46 747.414 1091.49C746.134 1100.31 742.098 1107.78 736.153 1114.37C730.694 1120.43 724.062 1125.59 717.611 1130.54C710.915 1135.68 703.996 1140.64 696.123 1143.81L695.101 1144.22C688.194 1146.91 675.238 1151.09 665.797 1149.56C667.031 1155.75 669.419 1162.4 667.302 1168.51C666.32 1171.35 662.605 1172.77 660.329 1170.35C655.82 1165.56 655.468 1159.24 654.4 1152.99C653.289 1146.48 652.331 1139.95 651.48 1133.41C649.834 1120.76 648.553 1107.99 648.162 1095.24C647.76 1082.13 647.915 1069.01 648.621 1055.93C648.984 1049.2 649.434 1042.49 650.287 1035.81C650.651 1032.96 651.023 1030.11 651.448 1027.27C651.603 1026.23 651.775 1025.2 651.96 1024.17L641.149 1025.39C624.572 1027.24 607.988 1028.92 591.294 1029.18C589.317 1029.21 587.796 1028.31 586.802 1026.99C585.743 1028.72 583.899 1029.95 581.258 1029.94C557.945 1029.86 536.235 1022.23 515.031 1013.25C504.343 1008.72 493.821 1003.82 483.117 999.324C473.126 995.132 462.445 992.141 452.695 987.419L427.075 1000.86C426.887 1001.52 426.646 1002.14 426.39 1002.67C424.722 1006.07 421.433 1007.92 418.074 1009.31C414.85 1010.65 411.511 1011.06 408.258 1010.73C388.828 1020.91 369.393 1031.08 349.945 1041.23L330.493 1051.37C291.737 1071.55 253.134 1092.06 214.134 1111.76L211.263 1113.21C197.792 1119.96 183.327 1126.81 168.378 1131.92C168.112 1135.7 168.28 1139.38 168.597 1143.39L168.673 1144.26C169.119 1148.99 170.075 1154.92 166.278 1158.29C164.303 1160.04 160.775 1160.05 159.432 1157.41C156.995 1152.62 159.183 1145.07 159.955 1139.86C160.229 1138.01 160.563 1136.11 161.057 1134.26C143.919 1139.36 126.262 1141.84 108.822 1138.97C91.8418 1136.18 78.6908 1125.49 68.0888 1112.4C56.8998 1098.6 48.9488 1082.51 44.6828 1065.26C39.8278 1045.63 39.5108 1025.36 39.6248 1005.25C39.7458 983.844 40.5378 962.329 43.1418 941.064C40.2888 940.393 37.1248 939.813 34.2418 940.013C32.8138 942.298 30.0438 943.26 27.5408 942.963C22.0978 948.966 35.9038 955.101 40.3158 956.637C41.8478 957.171 41.6838 959.659 39.9168 959.584L38.8038 959.531C31.9864 959.168 24.9432 958.004 20.9348 951.669C17.7228 946.591 18.6878 940.575 22.5168 936.434C25.0458 912.522 31.0918 889.237 36.7188 865.911C42.2408 843.016 48.3818 820.268 54.8908 797.635L57.8088 787.505C68.0571 752.016 78.7692 716.241 92.9058 682.163C99.9648 665.147 108.097 648.444 119.12 633.607C129.395 619.776 141.526 607.941 155.47 597.833C181.465 578.987 211.967 567.6 241.937 556.751L243.279 556.266C258.81 550.648 274.303 544.963 289.657 538.876C303.236 533.493 316.245 526.668 329.76 521.204C329.321 520.407 328.897 519.601 328.489 518.786L328.239 518.996C328.196 519.03 328.152 519.063 328.107 519.094C326.748 520.036 324.747 519.573 323.627 518.516C320.464 515.532 321.535 512.22 323.646 509.125L323.921 508.731C326.503 505.114 328.806 501.29 331.189 497.542L332.681 495.198C336.681 488.937 340.884 482.633 346.218 477.458C348.688 475.06 351.392 473.266 354.257 471.929C354.012 471.411 356.16 470.352 356.769 470.885C365.846 467.563 376.289 468.259 386.185 469.175M742.809 1014.13L730.189 1015.56C716.305 1017.14 702.415 1018.67 688.524 1020.18L658.352 1023.46C658.275 1025.18 658.066 1026.86 658.028 1028.16C657.831 1034.86 657.684 1041.56 657.545 1048.26C657.266 1061.69 657.572 1075.13 658.456 1088.53C659.313 1101.51 660.441 1114.5 662.195 1127.4L662.554 1129.98L662.762 1131.34C664.193 1131.47 665.599 1132.15 666.768 1133.55C669.32 1136.6 678.561 1133.64 682.17 1132.35C688.105 1130.24 693.694 1126.67 698.851 1123.09C703.887 1119.6 708.422 1115.53 712.78 1111.23L716.345 1107.71C719.892 1104.18 723.443 1100.43 725.616 1096C728.563 1089.98 728.944 1082.6 729.808 1076.06C730.872 1068 732.139 1059.95 733.478 1051.93M376.454 929.584L375.145 929.928C327.594 942.563 280.114 955.571 232.417 967.648C208.813 973.626 185.097 979.169 161.464 985.032L157.638 985.989C138.994 990.701 120.126 996.372 105.849 1009.9C105.322 1010.39 104.557 1009.63 105.053 1009.1C120.44 992.719 142.324 985.785 163.336 979.774C167.22 978.663 171.109 977.578 174.994 976.473C146.418 966.286 117.391 957.423 87.6938 951.102C80.0468 949.474 72.3108 948.279 64.6698 946.645C59.3409 945.505 54.1367 943.857 48.8641 942.489L44.7168 941.446L44.6617 954.554C44.5927 973.119 44.6257 991.669 45.5728 1010.23L45.7521 1013.67C46.8572 1034.33 48.5821 1055.41 55.9128 1074.89C61.8698 1090.72 71.3648 1105.63 83.7818 1117.16C90.0648 1122.99 96.8198 1127.53 105.17 1129.78C112.923 1131.86 121.046 1132.1 129.016 1131.55C167.245 1128.88 201.275 1108.11 234.483 1090.92C288.8 1062.79 343.123 1034.69 397.495 1006.67C396.025 1005.67 394.641 1004.51 393.382 1003.21C386.091 995.676 382.245 985.368 379.719 975.385C377.03 964.759 375.422 953.37 375.235 942.4M445.637 1017.53C446.117 1017.27 446.673 1017.59 446.695 1018.13C446.863 1022.29 444.568 1026.38 442.853 1030.12L442.672 1030.52C440.589 1035.16 438.308 1039.73 435.949 1044.23C431.234 1053.22 426.334 1062.11 421.22 1070.88C410.936 1088.52 399.508 1105.42 386 1120.78C382.949 1124.25 377.931 1119.8 379.889 1116.07C389.329 1098.06 400.334 1081.05 411.662 1064.2C417.333 1055.76 423 1047.31 428.727 1038.91C431.116 1035.4 433.536 1031.91 436.021 1028.47L437.52 1026.41M1009.59 677.45C961.875 678.891 914.214 682.003 866.724 686.88C822.558 691.415 778.554 697.452 734.798 704.978C725.659 706.55 716.531 708.186 707.414 709.887L701.946 710.915C692.828 712.643 681.689 713.356 673.571 718.227C665.012 723.362 662.699 734.094 659.851 742.944C656.503 753.352 653.24 763.79 650.065 774.253C637.457 815.796 625.94 857.699 615.666 899.879C610.566 920.816 606.041 941.87 601.273 962.883C597.037 981.553 592.363 1000.01 587.48 1018.5C588.082 1018.03 588.82 1017.67 589.711 1017.48C613.959 1012.32 638.71 1010.08 663.321 1007.23L665.702 1006.95C691.161 1003.96 716.62 1000.99 742.094 998.122L910.753 979.155C920.7 978.037 931.356 977.885 941.036 975.216C957.494 970.676 961.351 952.276 964.112 937.623L964.196 937.18C972.521 892.907 979.148 848.249 986.912 803.864M591.405 967.029C584.857 966.597 575.895 960.6 570.927 961.03C573.535 965.406 574.712 970.397 573.209 975.727C569.026 990.559 550.109 982.885 540.997 978.354C533.526 974.637 526.312 970.089 518.041 968.348C508.671 966.378 502.323 970.104 494.407 974.399C487.905 977.926 480.824 980.459 473.542 981.77C469.67 982.468 465.992 982.542 462.321 982.27C462.1 982.45 461.851 982.617 461.567 982.766L459.625 983.785C468.406 984.187 477.35 986.897 485.522 989.378C493.99 991.948 502.303 995.046 510.572 998.214L518.706 1001.34C538.772 1009.02 559.542 1016.32 581.258 1016.26C582.819 1016.25 584.098 1016.69 585.105 1017.39M554.769 920.555C561.238 919.764 567.209 920.612 572.378 924.823C578.612 929.901 582.8 938.323 591.762 938.876C594.375 939.037 594.982 942.711 592.385 943.479C585.714 945.454 580.313 941.845 575.768 937.159L572.712 933.966C568.221 929.316 564.078 925.72 556.457 925.998C548.295 926.296 540.119 928.182 532.01 929.141C522.824 930.227 513.64 931.153 504.425 931.952C503.997 931.989 503.924 931.315 504.325 931.216L514.646 928.647M548.525 894.109L549.592 894.002C558.985 893.09 567.576 893.055 575.966 898.108L577.575 899.081C585.139 903.678 593.372 909.094 598.102 916.538C598.876 917.757 597.597 919.19 596.302 918.88C587.211 916.698 580.565 910.028 572.92 905.036C564.34 899.434 555.477 900.358 545.694 901.228C536.222 902.071 526.755 903.229 517.376 904.808C508.563 906.29 499.722 908.63 490.82 909.376L490.822 909.358C489.805 909.356 489.225 907.829 490.262 907.311C499.296 902.8 509.759 900.665 519.586 898.604M833.89 801.264C832.982 796.921 838.324 794.907 840.8 798.352L841.326 799.079C846.675 806.407 854.411 815.603 854.018 824.923C858.72 825.026 863.595 827.883 865.427 832.126C866.274 834.089 866.561 836.415 866.374 838.823C870.648 839.155 875.309 841.961 877.922 844.693C882.253 849.222 882.595 855.622 879.488 860.914C872.713 872.45 857.914 876.646 845.421 877.583L844.976 877.615C832.072 878.507 813.478 878.266 804.63 867.195C796.095 856.516 805.528 847.87 815.201 843.175C812.683 840.876 811.379 837.579 812.605 834.102C814.758 827.991 822.359 825.63 826.654 821.382C831.889 816.202 835.349 809.097 833.97 801.669M840.981 810.655C839.558 816.839 836.062 822.495 831.193 826.977C829.331 828.691 827.294 830.217 825.13 831.528L824.87 831.679C822.95 832.757 818.229 834.777 818.592 837.196C818.966 839.682 826.657 843.573 828.753 843.575C829.23 843.575 829.5 844.32 829.013 844.536C825.214 846.214 821.896 846.933 818.181 845.16C815.699 847.694 813.288 850.316 810.9 852.915C806.677 857.514 808.122 862.37 813.112 865.794C821.13 871.296 833.318 871.162 842.673 870.762C852.089 870.36 862.154 868.26 869.509 861.988L869.83 861.709C873.827 858.154 877.478 852.13 871.356 848.706C868.959 847.365 866.369 847.444 864.093 846.792C861.963 850.967 858.508 854.311 854.292 854.956C850.885 855.477 848.539 851.195 851.638 849.146L852.334 848.714C856.226 846.23 859.547 842.404 859.459 837.421C859.399 833.962 854.569 829.594 851.423 832.844L851.278 832.999C848.645 835.967 844.008 832.227 845.739 828.938L845.822 828.789M226.862 638.676C226.851 637.933 227.896 637.655 228.261 638.298C234.373 649.051 237.568 662.232 240.824 674.079C244.234 686.489 246.986 699.025 249.459 711.653C254.468 737.224 257.137 762.648 257.319 788.71C257.343 792.431 251.281 793.421 250.688 789.608C246.751 764.257 242.979 738.88 239.012 713.536C237.016 700.789 234.694 688.091 232.47 675.382M287.371 657.405C286.921 655.922 289.079 655.426 289.631 656.782C301.897 686.891 306.051 721.013 298.176 752.778C296.971 757.637 289.854 755.532 290.763 750.734M445.588 630.651C445.526 629.541 446.967 629.366 447.51 630.13C453.322 638.319 455.733 649.286 465.93 653.518C471.021 655.631 476.75 655.263 481.248 658.832C484.255 661.219 486.561 664.987 484.304 668.602C483.576 669.77 481.538 670.355 480.55 669.086C479.108 667.237 478.345 665.023 476.386 663.637C473.623 661.682 469.897 661.561 466.729 660.642C462.631 659.454 459.019 657.375 456.061 654.286M542.686 494.067C543.285 493.762 543.86 493.957 544.243 494.475C544.79 495.213 544.723 495.931 544.053 496.437C544.948 498.266 546.005 502.848 546.156 503.515C546.768 506.219 547.419 508.907 548.1 511.593C549.474 517.01 550.678 522.469 552.053 527.888C553.511 533.632 555.248 539.315 557.181 544.916C557.306 545.279 557.443 545.649 557.587 546.025L557.807 546.592L557.861 546.506C558.254 545.885 559.072 546.319 558.975 546.975C558.885 547.573 558.764 548.168 558.662 548.766L558.865 549.302C560.129 552.705 560.995 556.289 558.675 559.292C557.807 560.415 556.852 561.08 555.662 561.278C553.754 567.568 551.36 573.741 548.797 579.669L548.046 581.401C544.276 590.051 540.255 598.587 534.252 605.951C527.698 613.991 518.683 619.481 512.974 628.291C510.318 632.389 508.47 636.698 506.97 641.326L506.406 643.083C505.341 646.357 504.113 649.529 501.042 651.449C500.062 652.061 498.594 651.866 497.804 651.031C491.507 644.37 498.099 631.932 501.896 625.483C507.174 616.515 514.813 610.778 522.462 604.012C530.707 596.719 535.966 586.963 541.053 577.352C544.169 571.464 547.177 565.449 550.344 559.535C547.035 556.611 545.976 550.802 544.855 546.764L544.753 546.402C542.9 539.936 541.428 533.302 540.498 526.639C539.603 520.233 539.23 513.918 539.467 507.476L539.535 505.835M554.988 524.559C554.257 523.557 555.467 522.422 556.47 522.631C562.569 523.892 568.531 527.583 574.004 530.568L574.588 530.885C578.957 533.241 583.353 536.127 585.647 540.704C588.142 545.679 587.937 551.408 587.597 556.814L587.564 557.32C587.147 563.803 587.08 570.539 585.708 576.905C585.006 580.163 582.055 581.081 579.532 580.311C576.53 589.79 568.097 596.774 561.937 604.254C554.083 613.79 555.561 626.665 556.382 638.15C556.714 642.8 550.93 644.122 547.951 641.641L541.086 635.939C539.943 634.987 538.801 634.034 537.662 633.076C536.687 632.256 535.721 631.429 534.762 630.591L533.33 629.327C532.695 628.759 529.894 625.63 529.075 625.5C527.092 625.185 522.379 630.413 520.766 632.053L520.561 632.257C517.525 635.234 514.782 638.437 512.227 641.834C511.757 642.458 510.838 641.94 511.174 641.219C513.464 636.315 516.126 631.626 519.287 627.238L519.925 626.364C522.028 623.53 524.851 618.526 528.563 617.689C533.096 616.668 537.622 621.213 540.92 623.736L541.128 623.894C542.697 625.071 544.248 626.269 545.796 627.475C545.634 618.924 546.714 610.284 551.129 602.915C554.242 597.718 558.906 593.869 562.897 589.403C567.34 584.43 569.66 578.318 573.682 573.139C574.2 572.473 574.914 572.114 575.687 572C575.842 567.837 576.455 563.632 576.929 559.513L577.066 558.28C577.545 553.805 578.677 548.339 576.486 544.148C574.417 540.19 569.668 537.396 566.152 534.71L563.28 532.483M357.074 477.241C355.238 478.303 353.522 479.624 351.965 481.275C347.064 486.474 343.56 492.944 340.15 499.168C338.314 502.52 336.544 505.909 334.693 509.253C333.888 510.708 333.06 512.147 332.223 513.584C331.836 514.246 330.686 515.562 330.116 516.373C330.749 517.26 331.404 518.134 332.072 518.999C332.327 519.328 349.908 538.48 356.036 545.975C365.42 557.456 373.808 569.583 380.979 582.563C388.001 595.274 393.347 608.732 399.852 621.689C403.108 628.176 406.744 634.617 411.379 640.231C411.558 640.45 411.747 640.657 411.93 640.873C413.699 636.094 418.232 630.977 420.458 628.039L420.666 627.762C425.715 620.956 431.047 614.355 436.495 607.866C441.471 601.941 446.573 596.143 451.799 590.442L453.765 588.308C457.406 584.375 462.031 578.49 467.361 575.68C466.79 574.662 466.129 573.655 465.369 572.661C460.375 566.135 453.315 561.399 446.35 557.126L441.832 554.378C424.804 544.001 408.042 533.144 393.259 519.661C385.438 512.527 377.725 505.054 371.151 496.733L368.826 493.791M385.486 472.104C377.512 472.773 368.901 472.614 361.532 475.212C368.083 481.405 374.31 488.092 380.707 494.389C381.276 490.13 382.44 485.923 383.426 481.77" fill="black"/>
<path fill-rule="evenodd" clip-rule="evenodd" d="M466.041 75.2595C522.822 75.2595 581.552 119.272 602.365 147.357C619.864 170.969 629.286 277.745 629.286 349.905C629.286 364.997 637.615 393.446 635.184 407.882C626.278 460.781 587.475 505.146 510.677 505.146C433.878 505.146 378.815 474.704 321.733 392.972C294.036 392.972 280.613 371.733 280.418 338.214C280.223 304.695 307.152 292.5 307.152 292.5C307.152 292.5 297.551 160.221 321.733 125.781C345.914 91.3423 409.261 75.2595 466.041 75.2595Z" fill="#EDB98A"/>
<path fill-rule="evenodd" clip-rule="evenodd" d="M442.147 56.5559C477.997 52.9259 513.127 55.9759 548.457 62.2869C551.157 62.7759 552.687 64.5469 553.256 66.6759C569.897 67.4359 586.557 68.6569 603.176 69.5669C609.207 69.8969 612.626 75.8559 609.876 81.2369C609.327 82.3059 608.756 83.3459 608.176 84.3859L608.904 84.1457C613.904 82.5418 619.304 81.7511 624.176 84.2969C630.376 87.5369 632.807 94.6859 631.437 101.266C631.086 102.946 630.497 104.556 629.827 106.127C631.187 106.037 632.557 106.067 633.917 106.247C641.157 107.207 646.537 112.757 646.917 120.147C647.477 131.306 640.286 142.627 631.816 150.616C633.045 153.147 633.517 156.127 633.006 159.147C631.986 165.117 627.588 168.692 622.49 171.024C624.616 177.775 625.62 184.833 625.027 192.046C624.829 194.454 622.724 196.443 620.501 196.931C628.787 219.745 632.981 244.239 635.997 268.106C638.147 285.087 639.207 302.167 639.336 319.276C639.399 327 639.271 334.733 638.947 342.459L638.816 345.356C638.416 353.707 638.397 362.476 636.897 370.737C642.017 379.446 644.077 390.257 644.947 400.016C646.027 412.096 644.317 424.556 640.506 436.047C626.126 479.466 582.726 506.866 539.135 513.987C498.786 520.577 452.097 511.707 428.517 475.056C428.147 474.476 428.937 473.997 429.397 474.377C446.267 488.096 465.836 494.216 487.097 497.196C523.857 502.337 565.176 493.616 594.676 470.497C608.836 459.397 619.045 443.237 623.536 425.846C625.826 416.957 626.617 407.686 625.716 398.537C624.796 389.257 620.686 381.337 618.096 372.567C617.226 369.606 618.147 366.856 619.957 364.897C620.466 357.776 621.667 350.596 622.126 343.497C622.636 335.426 622.947 327.356 623.057 319.276C623.267 302.516 622.567 285.726 621.157 269.037C618.577 238.476 611.727 208.657 607.707 178.356C606.218 179.691 604.084 180.239 601.848 179.073L601.617 178.946L600.397 178.247C600.327 178.247 600.247 178.257 600.176 178.266C591.827 179.077 583.167 177.917 575.167 175.426C566.796 172.827 559.027 168.827 552.086 163.497C550.767 170.186 550.216 176.946 550.207 183.766C550.197 188.026 545.687 190.237 542.107 188.417C526.237 180.356 511.077 171.067 496.687 160.627C495.006 169.237 493.327 177.846 491.636 186.466C490.987 189.787 486.756 191.127 484.046 189.547C473.267 183.276 463.957 175.067 456.377 165.306C454.863 168.2 453.345 171.093 451.817 173.981L449.517 178.306C447.247 182.556 444.207 187.257 439.237 188.616C433.977 190.056 429.586 186.647 427.817 181.886C427.277 180.407 426.777 178.886 426.317 177.356C421.836 187.587 416.777 197.587 411.057 207.127C402.477 221.436 392.176 234.186 381.907 247.266C378.787 251.237 373.447 247.446 373.017 243.587C372.767 241.317 372.557 239.037 372.376 236.766C366.392 248.842 360.148 260.805 353.345 272.421L354.319 276.238V276.238C357.126 287.516 359.457 298.874 361.991 310.212C362.809 313.87 360.865 319.1 356.591 319.723C351.485 320.467 346.654 323.076 341.424 321.281C335.721 319.323 334.594 314.394 331.902 309.722C331.365 308.791 330.74 307.936 330.068 307.124L329.897 307.346V307.346C329.477 307.897 328.477 307.297 328.727 306.667L329.02 305.939V305.939C326.707 303.484 323.939 301.436 321.394 299.233C315.346 298.214 308.543 299.33 304.376 301.787C294.886 307.386 290.527 318.926 290.437 329.537C290.327 341.957 294.176 355.917 300.676 366.537C303.537 371.207 307.457 375.426 312.636 377.497C317.777 379.556 323.347 378.917 328.577 380.856C332.037 382.147 334.167 385.987 332.077 389.466C331.937 389.707 331.777 389.926 331.626 390.157L333.181 392.221C334.251 393.651 335.367 395.183 336.407 396.776C339.067 399.837 341.867 402.787 344.577 405.797C349.586 411.346 354.447 417.047 359.376 422.676C364.027 427.987 368.947 432.976 374.017 437.886C378.807 442.537 384.787 446.446 389.187 451.407C393.466 456.247 394.627 464.696 387.586 467.497C379.796 470.603 372.901 463.323 367.657 458.469L367.437 458.266C357.825 449.421 349.145 439.313 342.252 428.184C335.424 432.832 325.548 433.276 318.749 428.629C315.171 426.184 312.426 422.075 311.092 417.605C309.834 417.887 308.577 418.052 307.351 418.033C306.72 418.399 306.087 418.755 305.447 419.087C300.376 421.726 294.147 420.547 291.827 414.936C289.714 409.842 291.891 404.057 293.794 399.15L294.187 398.136C295.267 395.337 296.457 392.287 297.937 389.417C293.817 386.317 290.296 382.466 287.317 378.087C277.307 363.337 272.307 341.766 274.517 324.167C275.847 313.547 280.836 302.547 289.006 295.386L288.707 294.606V294.606C286.417 288.797 284.336 282.966 282.987 276.827C281.407 269.647 280.636 262.207 279.937 254.897C278.457 239.457 278.857 223.667 280.827 208.287C284.527 179.337 293.907 150.917 310.557 126.827C305.836 121.176 302.097 114.526 304.046 106.877C304.937 103.366 306.966 100.037 310.027 98.0259C311.716 96.9169 313.727 96.7469 315.417 95.8269L315.925 95.5471C316.667 95.1139 316.099 95.1598 315.657 93.1469C313.907 85.1059 315.357 77.3369 324.207 74.6669C332.537 72.1569 340.417 77.4869 345.347 83.8369C358.247 74.6859 375.247 69.8969 390.197 65.8269C407.197 61.2159 424.636 58.3369 442.147 56.5559ZM302.807 326.256C302.746 319.706 308.956 315.666 315.067 316.737C319.17 317.451 322.593 319.9 325.808 322.431L327.375 323.671C331.289 326.744 335.783 330.057 338.116 334.407C341.536 340.827 334.307 349.466 327.557 344.966C322.927 341.863 319.959 336.891 316.921 332.273L316.607 331.796C315.227 329.726 314.017 327.526 312.126 325.866L311.717 325.508C311.096 324.979 310.429 324.495 309.626 324.266C308.078 323.821 305.21 324.444 304.527 326.288L304.466 326.476C304.216 327.407 302.817 327.206 302.807 326.256Z" fill="black"/>
<path fill-rule="evenodd" clip-rule="evenodd" d="M514.853 452.089L516.986 451.522C524.626 449.441 532.554 446.137 539.848 450.665C542.482 452.3 542.879 455.777 540.797 458.027C534.888 464.411 526.166 463.173 518.175 463.237L517.782 463.241C509.742 463.352 501.762 462.951 493.805 461.798C492.756 461.646 492.549 459.903 493.502 459.485C500.43 456.448 507.556 454.053 514.853 452.089V452.089ZM527.814 335.367C535.366 339.957 546.872 350.66 538.748 362.04C529.186 372.073 515.418 360.569 508.634 355.366C502.343 351.334 495.275 361.705 501.112 366.413C550.136 402.708 570.031 336.567 531.634 329.97C527.406 329.243 525.836 333.947 527.814 335.367ZM580.316 275.005C592.498 274.632 592.509 293.985 580.316 293.933C576.676 293.917 573.036 293.916 569.396 293.908C571.511 301.619 570.303 310.814 566.483 317.291C563.963 321.566 557.932 322.343 554.409 318.847C548.327 312.811 547.128 303.984 549.277 295.98L548.835 294.933V294.933C548.691 294.59 548.588 294.243 548.504 293.894C536.739 293.904 524.974 293.933 513.208 293.952L495.56 293.97C484.102 293.974 472.639 294.067 461.18 293.96C461.321 294.173 461.462 294.385 461.577 294.628C462.292 296.133 462.595 298.033 462.82 299.66C463.204 302.452 463.158 305.459 462.718 308.24C462.397 310.272 461.807 312.692 460.676 314.607L460.669 314.647V314.647C460.136 316.919 459.463 319.094 457.706 320.733C457.178 321.224 456.663 321.574 456.119 321.822C455.092 322.897 453.77 323.608 452.033 323.631C451.111 323.641 450.1 323.372 449.12 322.99C447.613 323.116 446.057 322.434 444.724 321.83C443.655 321.345 442.674 320.701 441.883 319.861C441.512 319.773 441.138 319.628 440.764 319.397C438.472 317.987 437.596 315.161 437.477 312.609C437.469 312.454 437.475 312.291 437.47 312.134C437.385 311.788 437.309 311.44 437.251 311.09C436.489 306.555 437.415 301.448 438.385 297.041C438.629 295.938 438.83 294.657 439.129 293.418C436.842 293.329 434.557 293.241 432.27 293.147C426.542 292.913 419.551 293.68 414.252 291.259C413.866 291.084 413.97 290.57 414.252 290.369C419.144 286.872 426.746 286.306 432.638 285.155L433.138 285.054C440.164 283.613 447.186 282.401 454.283 281.366C467.944 279.374 481.78 278.302 495.56 277.53C523.773 275.95 552.074 275.868 580.316 275.005Z" fill="black"/>
</svg>
