<svg width="818" height="1195" viewBox="0 0 818 1195" fill="none" xmlns="http://www.w3.org/2000/svg">
<path fill-rule="evenodd" clip-rule="evenodd" d="M765.567 1107.4C763.141 1084.87 761.646 1062.18 760.788 1039.53C759.931 1016.91 761.052 994.018 761.544 971.391C762.547 925.362 764.177 879.224 760.512 833.265C757.049 789.83 749.098 746.698 736.551 704.964C730.441 684.639 724.002 663.496 713.953 644.716C703.848 625.834 687.842 613.26 670.26 601.729C651.541 589.452 632.972 576.943 614.326 564.552C598.674 554.151 570.507 542.046 557.665 528.141C544.152 513.51 541.612 477.243 532.613 459.911C523.849 443.029 499.041 432.016 479.94 432.016C448.322 432.016 424.366 430.4 398.368 459.647C385.397 474.24 395.717 488.992 382.121 502.998C369.621 515.875 337.654 529.109 321.543 536.581C302.247 545.53 282.464 553.431 262.394 560.469C241.921 567.649 220.932 573 200.344 579.776C180.61 586.271 154.842 613.042 139.522 627.207C125.279 640.377 121.744 638.902 110.916 654.901C87.152 690.012 63.362 725.526 44.438 763.541C35.012 782.477 25.885 802.396 22.465 823.426C18.817 845.856 22.434 867.532 28.35 889.249C34.372 911.35 53.495 932.393 59.725 954.438C62.596 964.597 52.741 975.683 57.274 985.257C59.538 990.038 62.389 994.295 65.635 998.461C68.136 1001.67 77.8894 1000.96 79.1514 1004.89C80.4264 1008.86 73.37 1017.09 73.265 1021.2C73.116 1027.08 72.882 1032.95 72.689 1038.83L71.549 1073.57C70.8 1096.41 70.051 1119.24 69.302 1142.07C69.057 1149.52 68.7 1156.81 70.487 1163.88C69.842 1163.28 69.229 1162.63 68.669 1161.9C67.03 1159.76 63.554 1161.57 64.945 1164.08C67.267 1168.25 70.606 1171.19 74.529 1173.3C79.088 1180.03 769.512 1195.04 772.909 1175.39C774.815 1164.36 771.346 1152.56 769.959 1141.61C768.515 1130.2 766.799 1118.84 765.567 1107.4Z" fill="#FFDBB4"/>
<path fill-rule="evenodd" clip-rule="evenodd" d="M46.0587 779.449L759.154 818.437C759.665 823.375 760.118 828.318 760.512 833.265C764.177 879.224 762.547 925.362 761.544 971.391C761.411 977.492 761.233 983.613 761.06 989.743L690.713 1001.36L190.623 1013.38L65.635 998.461L60.4474 989.468L56.8535 973.813C58.3958 967.386 61.5043 960.733 59.725 954.437C59.2064 952.602 58.5983 950.774 57.9159 948.951L58.5612 936.388L46.0587 779.449Z" fill="#9FD8E5"/>
<path fill-rule="evenodd" clip-rule="evenodd" d="M64.2284 823.466C65.9174 818.628 73.6434 820.722 71.9424 825.592C63.1984 850.638 69.4014 877.893 78.8544 901.802C80.7514 906.599 73.0114 908.66 71.1404 903.928C61.1964 878.778 55.0444 849.769 64.2284 823.466M122.857 966.528C147.517 969.997 172.197 972.137 197.027 973.867C198.137 973.947 199.097 973.778 199.927 973.417C199.187 984.787 198.587 996.167 198.117 1007.55C191.347 1007.36 184.437 1007.81 177.727 1007.63C168.957 1007.39 160.197 1006.95 151.447 1006.28C134.507 1005 117.597 1002.96 100.847 1000.14C94.5874 999.087 86.6374 998.447 79.5074 996.367C72.7674 994.398 66.7674 991.137 63.6174 984.997C60.9374 979.797 60.4474 973.428 60.4474 967.678C60.4474 963.717 61.1274 959.697 61.5374 955.707C62.0474 955.348 62.5074 954.917 62.8774 954.438C70.3174 956.787 78.0374 958.438 85.5974 960.037C97.9074 962.657 110.397 964.778 122.857 966.528M108.949 874.065C109.085 881.708 111.2 888.651 115.315 895.086C118.099 899.441 111.172 903.448 108.407 899.124C103.563 891.547 101.109 883.042 100.949 874.065C100.857 868.906 108.857 868.923 108.949 874.065M741.077 957.447C744.416 957.634 747.776 957.748 751.125 957.926C754.079 960.452 758.169 961.747 761.904 960.943C762.033 961.266 762.15 961.629 762.257 962.047C762.917 964.617 763.247 967.377 763.627 969.997C764.007 972.577 764.297 975.178 764.497 977.778C764.597 979.087 765.227 982.047 764.427 983.188C763.707 984.217 762.117 984.127 761.017 984.257C758.057 984.577 755.057 984.728 752.077 984.978C746.447 985.467 740.817 985.957 735.197 986.447C729.687 986.928 723.637 986.778 718.247 988.228C717.327 977.417 716.487 966.608 715.707 955.787C724.057 957.018 732.787 956.987 741.077 957.447M40.9574 939.518C44.3174 946.007 47.4174 952.387 53.8474 956.287C54.6874 956.787 55.6274 957.057 56.5874 957.127C55.8674 960.217 55.4174 963.377 55.0174 966.297C54.1374 972.728 53.9474 979.377 55.5574 985.717C57.1274 991.887 59.7274 997.398 64.8274 1001.35C67.1974 1003.19 69.7874 1004.59 72.5074 1005.7C72.0474 1006.99 71.7774 1008.27 71.9174 1009.68C71.2674 1012.95 70.8374 1016.28 70.3674 1019.47C69.3374 1026.55 68.3074 1033.64 67.4974 1040.76C65.8774 1054.92 64.6074 1069.08 63.5374 1083.29C62.4674 1097.46 61.6974 1111.65 61.0574 1125.85C60.7274 1133.11 60.4374 1140.37 60.1674 1147.64C59.8974 1155.11 58.6874 1162.75 61.9874 1169.68C64.6474 1175.28 73.6374 1174.96 76.3974 1169.68C79.8974 1162.97 78.8674 1155 78.9574 1147.64C79.0474 1140.71 79.1674 1133.77 79.3174 1126.84C79.6174 1112.65 80.0574 1098.47 80.4074 1084.28C80.7474 1070.43 81.1674 1056.59 81.4474 1042.74C81.5874 1035.49 81.5974 1028.24 81.6374 1020.99C81.6574 1016.97 81.8274 1012.68 81.5274 1008.49C84.0274 1009.08 86.5474 1009.58 89.0374 1010.09C108.047 1013.99 127.257 1016.83 146.587 1018.59C156.297 1019.47 166.037 1020.09 175.777 1020.44C182.937 1020.7 190.357 1021.2 197.627 1020.93C197.057 1038.29 196.797 1055.66 196.827 1073.03C196.847 1085.56 197.017 1098.09 197.327 1110.62C197.497 1117.21 197.637 1123.8 197.837 1130.39C197.927 1133.35 197.927 1136.34 198.127 1139.29C198.187 1140.21 198.317 1141.1 198.487 1141.98C197.827 1143.85 197.277 1145.7 196.827 1147.43C194.627 1155.83 194.627 1163.9 195.607 1172.46C196.447 1179.72 202.557 1186.45 210.627 1183.9C211.937 1183.49 213.247 1183.06 214.547 1182.62C226.427 1183.97 238.377 1184.28 250.427 1184.51C268.037 1184.85 285.657 1184.96 303.277 1185.05C337.837 1185.23 372.407 1185.32 406.977 1185.42C476.447 1185.62 545.917 1185.81 615.387 1186.01C634.667 1186.07 653.947 1186.12 673.227 1186.18C683.207 1186.21 693.167 1186.22 703.137 1186.6C707.787 1186.78 712.447 1187.03 717.097 1187.1C722.487 1187.19 727.257 1185.64 732.407 1184.23C735.317 1183.42 736.467 1180.5 735.847 1178.03C740.507 1179.14 746.157 1176.78 747.747 1171.53C748.907 1167.72 748.477 1163.59 746.747 1160.06V1160.05C743.407 1138.96 739.167 1117.97 735.837 1096.87C732.187 1073.76 728.677 1050.6 725.587 1027.4C723.267 1009.88 721.357 1022.3 719.707 1004.7C726.897 1005.26 735.027 1003.07 742.147 1002.14C747.257 1001.48 752.407 1000.95 757.527 1000.25C757.147 1005.41 757.257 1010.67 757.117 1015.62C756.847 1025.45 756.967 1035.24 757.217 1045.07C757.697 1064.04 758.767 1053 760.477 1071.89C762.207 1090.92 764.327 1109.88 766.897 1128.82C768.217 1138.57 769.627 1148.31 771.117 1158.04C771.807 1162.58 772.517 1167.11 773.247 1171.65C774.117 1177 774.397 1182.07 778.407 1186.09C781.457 1189.14 787.687 1188.88 789.707 1184.63C792.267 1179.26 791.107 1174.66 790.157 1169.02C789.387 1164.49 788.647 1159.96 787.917 1155.43C786.357 1145.72 784.877 1136 783.487 1126.27C780.807 1107.52 778.277 1088.74 776.017 1069.94C773.737 1050.99 771.377 1062.06 769.137 1043.11C768.007 1033.55 766.877 1024.01 765.557 1014.48C764.887 1009.58 764.467 1004.36 763.587 999.307C763.867 999.268 764.147 999.217 764.427 999.167C770.507 998.057 775.697 994.627 777.227 988.367C778.687 982.377 776.947 975.487 775.717 969.608C774.667 964.6 773.718 958.207 770.494 953.916C781.854 939.446 789.243 921.238 793.956 903.733C799.09 884.662 801.239 864.755 801.694 845.047C802.222 822.215 800.501 799.515 796.588 777.191C796.496 772.46 796.278 767.731 795.927 763.007C792.487 716.648 778.047 661.778 732.267 640.117C732.087 640.028 731.897 639.947 731.707 639.867C728.117 635.577 723.637 631.717 720.017 628.108C713.607 621.707 706.907 615.587 699.807 609.947C685.747 598.778 670.327 589.858 654.297 581.827C638.087 573.697 621.637 566.068 605.797 557.197C591.997 549.457 579.577 540.137 567.787 529.617C554.537 517.787 545.107 501.837 541.407 484.427C541.217 483.518 539.867 483.768 539.847 484.637C538.877 516.547 560.417 544.747 585.207 562.587C614.847 583.898 650.637 593.987 680.697 614.648C688.167 619.778 695.157 625.568 701.807 631.717C691.617 630.677 681.247 631.337 671.697 634.157C667.937 633.927 664.157 633.858 660.387 633.677C651.767 633.247 643.137 632.848 634.507 632.467C616.917 631.688 599.317 630.978 581.717 630.358C547.187 629.137 512.647 628.217 478.107 627.608C408.697 626.377 339.197 626.137 269.797 628.148C250.977 628.688 152.017 624.938 142.857 625.997C156.327 614.337 171.107 604.818 187.357 596.987C207.687 587.217 228.697 580.697 250.407 574.737C295.117 562.467 341.547 550.637 377.327 519.467C386.217 511.717 394.117 502.808 400.587 492.938C406.767 483.518 413.637 471.457 413.807 459.967C413.927 451.808 402.567 448.837 398.527 455.827C396.017 460.157 394.777 464.907 392.727 469.447C390.687 473.947 388.267 478.287 385.577 482.438C380.287 490.598 373.727 497.877 366.587 504.447C351.367 518.467 332.927 528.737 313.847 536.507C270.527 554.137 223.147 561.577 182.097 584.818C164.137 594.987 146.947 609.018 136.157 626.917C134.417 627.188 132.687 627.507 130.957 627.867C132.247 626.237 133.547 624.608 134.857 622.987C135.717 621.927 134.387 620.528 133.337 621.467C112.927 639.627 94.1274 659.237 77.0874 680.617C60.7874 701.077 45.5874 722.518 34.8274 746.478C15.4874 789.518 11.2274 838.747 21.2174 884.768C23.9374 897.307 27.7774 909.587 32.6674 921.457C35.1874 927.587 37.9174 933.627 40.9574 939.518" fill="black"/>
<path fill-rule="evenodd" clip-rule="evenodd" d="M631.867 203.178C621.566 165.992 582.191 149.766 546.729 147.191C450.715 137.21 352.985 190.734 310.419 277.525C276.346 343.428 275.279 412.658 348.521 450.287C352.521 452.492 356.698 454.849 360.964 456.989C364.67 460.435 368.487 463.746 372.653 466.526C412.536 492.752 461.487 504.095 508.925 501.635C578.966 500.223 603.97 452.696 619.271 391.747C635.409 331.068 644.434 265.226 631.867 203.178V203.178Z" fill="#FFDBB4"/>
<path fill-rule="evenodd" clip-rule="evenodd" d="M677.843 553.684C674.573 543.794 670.473 534.204 666.643 524.514C665.833 519.684 665.293 514.814 665.154 509.904C664.623 492.364 667.904 474.674 671.583 457.594C679.063 422.884 686.993 388.534 690.973 353.184C698.083 289.954 693.853 224.204 665.093 166.484C640.173 116.484 597.943 75.5939 543.393 60.2739C527.267 55.7429 510.67 53.2439 493.959 52.2459C491.89 51.9169 489.824 51.5949 487.768 51.2849C464.524 47.7809 440.994 46.0349 417.5 47.5459C378.54 50.0529 339.944 61.2489 307.496 83.3929C274.827 105.69 251.615 136.954 240.814 175.087C229.578 214.757 230.531 257.72 211.128 294.912C205.396 305.9 198.705 316.346 192.324 326.966C175.393 345.857 157.011 366.858 152.983 392.833C148.013 424.934 166.483 452.064 183.963 477.114C199.763 499.734 221.203 530.974 204.943 558.824C197.273 571.964 184.983 581.794 175.753 593.774C166.183 606.214 158.713 620.494 154.853 635.754C147.603 664.413 154.273 694.284 173.663 716.684C183.763 728.344 196.733 736.054 210.773 742.064C225.143 748.204 239.183 754.034 251.063 764.484C256.493 769.254 261.463 774.484 266.163 779.964C270.543 786.814 275.643 793.214 281.393 799.074C287.723 805.524 300.123 796.694 294.313 789.104C293.883 788.544 293.463 787.994 293.033 787.434C288.783 781.894 284.513 776.354 280.043 770.994C266.713 749.873 261.583 724.014 268.213 699.344C269.933 692.934 272.353 686.854 275.364 681.114C276.003 682.784 276.703 684.434 277.443 686.064C280.323 692.384 284.364 699.873 289.503 706.274C289.703 710.663 290.364 715.014 291.643 719.274C299.563 745.684 326.043 758.714 349.923 768.854C352.263 769.854 354.573 770.814 356.843 771.764C363.083 774.373 369.683 765.484 365.793 760.123C364.773 758.714 363.783 757.274 362.843 755.814C351.643 738.474 346.313 717.734 349.333 697.074C352.513 675.224 365.393 657.144 378.183 639.794C390.743 622.734 404.233 605.324 409.853 584.514C416.073 561.524 410.413 538.604 400.813 517.444C392.023 498.081 380.314 480.234 370.495 461.404C373.857 464.757 377.326 468 380.9 471.128C384.919 474.646 389.048 478.672 393.811 481.152C397.333 482.985 400.861 478.597 398.072 475.63C394.406 471.732 389.715 468.72 385.644 465.241C381.736 461.902 377.941 458.429 374.24 454.862C369.683 450.471 365.348 445.873 361.168 441.136C357.823 432.615 355.067 423.865 352.823 414.984C349.773 402.964 346.953 390.174 347.173 377.714C347.393 364.934 354.033 355.984 362.873 347.404C366.617 343.771 370.397 340.181 374.17 336.584C382.206 330.685 389.786 324.095 397.149 317.523C410.269 305.812 422.959 293.433 435.078 280.692C438.329 277.274 441.553 273.818 444.737 270.322C455.862 258.906 466.472 246.986 476.473 234.654C486.413 231.034 495.963 226.244 504.923 220.604C501.023 224.554 497.083 228.454 493.163 232.384C484.433 241.144 475.364 249.944 465.243 257.083C464.203 257.824 464.833 259.394 466.114 259.144C478.983 256.574 491.023 252.294 502.263 245.474C513.693 238.534 523.763 229.104 533.163 219.644C538.483 217.244 543.614 214.154 548.303 211.114C548.553 210.954 548.803 210.784 549.053 210.623C544.433 225.264 537.654 241.844 523.203 247.064C522.733 247.234 522.763 248.014 523.323 247.984C535.497 247.27 545.281 241.793 553.005 233.81C559.217 229.34 565.145 224.603 570.802 219.446C576.282 214.45 581.473 209.092 586.403 203.544C579.513 217.193 571.795 230.539 564.183 243.734C563.783 244.434 564.623 245.384 565.343 244.894C581.413 234.014 593.603 219.974 603.573 203.373C605.045 200.929 606.45 198.445 607.82 195.942C606.786 199.859 605.657 203.751 604.448 207.623C602.259 214.632 600.104 221.657 597.911 228.662C596.729 232.439 595.288 236.13 593.707 239.758C592.575 242.354 591.093 244.945 590.863 247.792C590.848 247.981 591.054 248.105 591.219 248.064C597.627 246.462 603.594 239.154 608.16 234.627C610.703 232.106 613.085 229.339 615.276 226.421C615.683 243.228 615.963 260.037 615.593 276.894C614.904 307.854 612.904 338.804 610.343 369.663C608.083 396.944 606.413 425.574 591.193 449.284C579.413 467.634 560.313 480.333 539.563 486.484C537.733 487.034 535.893 487.524 534.043 487.964C504.003 495.094 474.083 487.014 447.523 472.734C439.543 468.444 432.723 480.083 440.423 484.873C469.243 502.814 505.773 508.924 538.393 500.884C537.364 539.413 556.353 575.964 575.243 608.644C585.813 626.934 596.393 645.104 603.864 664.934C610.203 681.774 614.513 699.244 615.963 717.214C617.683 738.394 615.993 759.694 613.033 780.694C612.873 781.833 612.713 782.984 612.543 784.123C611.883 788.634 615.933 792.413 620.323 790.104C639.733 779.904 648.103 758.163 653.193 738.064C657.953 719.234 661.183 700.034 662.983 680.704C665.623 687.994 667.763 695.464 669.423 703.083C669.654 704.174 669.873 705.264 670.093 706.354C671.353 712.724 680.993 712.274 682.533 706.354C682.813 705.284 683.083 704.214 683.333 703.134C691.283 670.984 693.423 637.454 689.223 604.583C687.013 587.294 683.323 570.234 677.843 553.684" fill="black"/>
<path fill-rule="evenodd" clip-rule="evenodd" d="M544.581 443.822C541.281 448.137 535.306 451.442 528.614 453.022C522.238 454.528 515.19 454.466 509.109 452.149L508.587 451.941C504.039 450.053 499.675 446.239 498.017 442.26C497.358 440.678 497.135 439.069 497.586 437.569C497.992 436.219 498.943 434.976 500.527 433.909C501.025 433.574 501.692 433.55 502.327 433.662C503.116 433.801 503.893 434.17 504.362 434.668C506.964 437.435 510.739 440.132 515.207 440.086C518.655 440.051 521.47 438.69 524.2 437.151L526.118 436.053C527.97 434.996 529.847 434.004 531.971 433.551C535.772 432.739 540.384 434.222 543.194 436.67C544.419 437.737 545.309 438.991 545.551 440.343C545.754 441.477 545.469 442.661 544.581 443.822ZM524.814 368.367C532.366 372.957 543.872 383.66 535.748 395.039C526.186 405.073 512.419 393.569 505.634 388.366C499.343 384.334 492.275 394.704 498.112 399.413C547.136 435.708 567.031 369.567 528.634 362.97C524.406 362.243 522.836 366.947 524.814 368.367ZM439.623 297.821L441.792 297.226L444.005 296.629L445.5 296.234C455.775 293.544 467.108 291.178 477.297 292.333C481.013 292.755 484.029 294.846 484.555 298.739C484.998 302.024 482.875 306.262 479.262 306.846C467.295 308.782 455.044 308.154 443.022 310.15C437.035 311.143 431.094 312.376 425.13 313.487C420.595 314.333 415.909 314.63 411.335 315.314L412.386 315.46C412.754 315.51 412.662 316.129 412.299 316.104C410.791 315.954 409.281 315.93 407.769 316.036L407.121 316.089C406.134 316.228 405.552 315.05 406.432 314.452C412.005 310.671 416.734 306.573 422.974 303.786C428.371 301.376 433.926 299.389 439.623 297.821ZM533.162 292.022C541.062 284.036 557.862 287.105 567.26 290.758C572.624 292.844 577.724 295.481 581.972 299.426L582.386 299.814L583.024 300.428C585.892 303.235 589.089 307.098 588.634 311.145C588.565 311.762 588.229 312.467 587.532 312.591C583.768 313.258 580.071 311.272 576.595 310.077L574.293 309.287C570.836 308.11 567.357 306.985 563.793 306.172C559.361 305.164 554.84 304.581 550.29 304.639C545.691 304.699 540.751 305.997 536.37 304.171C531.484 302.136 528.951 296.28 533.162 292.022ZM455.116 356.43C453.1 358.488 450.438 359.65 447.032 358.959C444.369 358.419 439.3 355.742 435.251 351.62C432.481 348.8 430.165 345.275 429.535 341.193C429.389 340.245 428.886 339.637 428.225 339.254C427.703 338.952 427.015 338.8 426.266 338.876C425.63 338.94 424.954 339.171 424.432 339.476C423.439 340.057 423.033 340.882 422.951 341.498C422.154 347.442 424.45 353.339 428.029 358.312C432.858 365.022 439.951 369.94 444.12 371.091C451.253 373.062 458.77 371.493 464.312 366.528C468.744 362.558 471.016 357.386 473.123 352.067L473.53 351.036C474.004 349.829 474.474 348.631 474.973 347.446C475.972 345.071 475.652 343.018 474.683 341.418C473.61 339.645 471.63 338.398 469.424 338.014C467.386 337.66 465.205 338.048 463.484 339.292C462.029 340.344 460.856 342.01 460.44 344.474C459.762 348.481 458.19 353.078 455.418 356.111L455.116 356.43ZM577.441 333.24C575.779 332.374 574.478 332.113 572.634 332.666C571.615 332.972 570.607 333.559 569.818 334.348C569.036 335.13 568.472 336.102 568.252 337.181C567.713 339.843 566.256 342.335 564.181 343.96C562.406 345.349 560.167 346.085 557.683 345.669C555.003 345.222 552.449 343.503 550.69 341.476C550.2 340.911 549.798 340.282 549.41 339.645L549.178 339.263C548.311 337.832 547.469 336.502 546.274 335.451C545.821 335.052 545.138 334.775 544.477 334.775C544.208 334.775 543.935 334.818 543.676 334.899C541.008 337.577 540.495 339.608 540.581 341.623C540.671 343.736 541.504 345.875 542.85 347.871C546.008 352.553 552.003 356.392 556.048 357.261C561.589 358.452 567.091 357.023 571.503 353.928C576.042 350.744 579.406 345.801 580.454 340.23C580.706 338.888 580.599 337.44 580.088 336.184C579.589 334.957 578.719 333.906 577.441 333.24Z" fill="black"/>
</svg>
